<svg xmlns="http://www.w3.org/2000/svg" xmlns:xlink="http://www.w3.org/1999/xlink" width="200" viewBox="0 0 150 149.999998" height="200" preserveAspectRatio="xMidYMid meet"><path fill="#f6d578" d="M 7.40625 74.699219 C 11.503906 122.03125 38.316406 155.945312 72.882812 147.3125 C 107.222656 138.046875 135.453125 103.796875 139.726562 76.222656 C 144.542969 48.914062 116.308594 14.359375 72.882812 2.988281 C 29.230469 -7.59375 2.417969 27.296875 7.40625 74.699219 " fill-opacity="1" fill-rule="nonzero"></path><path fill="#ffffff" d="M 12.707031 74.871094 C 16.484375 118.574219 41.191406 149.890625 73.042969 141.917969 C 104.683594 133.367188 130.699219 101.738281 134.636719 76.273438 C 139.070312 51.058594 113.058594 19.152344 73.042969 8.648438 C 32.816406 -1.121094 8.113281 31.097656 12.707031 74.871094 " fill-opacity="1" fill-rule="nonzero"></path><path fill="#f6d578" d="M 69.125 51.296875 C 70.007812 51.632812 83.949219 55.660156 84.667969 56.011719 C 84.773438 56.0625 84.328125 57.207031 83.484375 58.71875 C 82.859375 59.832031 81.992188 60.328125 81.835938 60.289062 C 80.949219 60.074219 66.242188 55.894531 66.242188 55.894531 C 66.242188 55.894531 66.550781 54.816406 67.203125 53.683594 C 67.855469 52.546875 69.125 51.296875 69.125 51.296875 Z M 69.125 51.296875 " fill-opacity="1" fill-rule="nonzero"></path><path fill="#f6d578" d="M 101.765625 60.761719 C 101.765625 60.761719 105.234375 61.898438 107.65625 62.636719 C 110.0625 63.367188 108.6875 68.167969 105.820312 67.210938 C 104.300781 66.699219 101.929688 66.175781 99.945312 65.4375 C 99.945312 65.4375 100.570312 63.78125 100.964844 62.738281 C 101.390625 61.617188 101.761719 60.761719 101.761719 60.761719 Z M 101.765625 60.761719 " fill-opacity="1" fill-rule="nonzero"></path><path fill="#f6d578" d="M 43.050781 79.523438 C 43.132812 78.757812 50.554688 67.8125 51.085938 67.410156 C 51.683594 66.964844 55.925781 66.515625 56.445312 66.589844 C 56.964844 66.664062 61.878906 70.851562 62.027344 71.296875 C 62.175781 71.746094 54.761719 82.953125 54.304688 83.347656 C 53.257812 84.257812 49.496094 84.84375 48.707031 84.457031 C 48.167969 84.191406 42.972656 80.195312 43.046875 79.523438 Z M 43.050781 79.523438 " fill-opacity="1" fill-rule="nonzero"></path><path stroke-linecap="round" transform="matrix(0.146323, 0, 0, 0.146987, 5.216727, 25.120846)" fill="none" stroke-linejoin="round" d="M 279.095368 336.340355 C 238.837576 349.22944 155.171845 378.754745 150.339842 387.870118 C 146.068458 396.028776 154.023911 579.106928 156.479956 586.468322 C 158.936002 593.829717 301.146387 642.861389 312.785908 641.638919 C 324.452125 640.41645 448.882875 568.715934 454.382281 561.354539 C 459.908384 553.993144 453.154258 373.173904 450.698213 366.423744 C 449.390102 362.862636 409.95989 352.631095 371.677612 343.940929 " stroke="#313f51" stroke-width="1.98" stroke-opacity="1" stroke-miterlimit="4"></path><path stroke-linecap="round" transform="matrix(0.146323, 0, 0, 0.146987, 5.216727, 25.120846)" fill-opacity="1" fill="#313f51" fill-rule="nonzero" stroke-linejoin="round" d="M 297.222053 403.6825 C 294.232084 402.220851 270.205551 383.990105 261.609391 374.741855 C 261.315733 375.964325 261.102164 377.186794 261.048771 378.488991 C 260.381368 395.816172 279.762772 404.001405 300.318806 404.400037 C 298.983999 404.26716 297.916153 404.027981 297.222053 403.6825 Z M 297.222053 403.6825 " stroke="#313f51" stroke-width="1.98" stroke-opacity="1" stroke-miterlimit="4"></path><path stroke-linecap="round" transform="matrix(0.146323, 0, 0, 0.146987, 5.216727, 25.120846)" fill-opacity="1" fill="#313f51" fill-rule="nonzero" stroke-linejoin="round" d="M 326.107286 400.679476 C 322.049472 401.981673 317.377646 403.018114 312.946085 403.6825 C 317.537822 403.071265 322.022775 402.061399 326.107286 400.679476 Z M 326.107286 400.679476 " stroke="#313f51" stroke-width="1.98" stroke-opacity="1" stroke-miterlimit="4"></path><path stroke-linecap="round" transform="matrix(0.146323, 0, 0, 0.146987, 5.216727, 25.120846)" fill-opacity="1" fill="#313f51" fill-rule="nonzero" stroke-linejoin="round" d="M 335.477634 396.135078 C 334.810231 396.719737 334.009346 397.277821 333.048285 397.80933 C 341.324091 393.610411 346.983675 387.471487 347.250636 379.578583 C 341.030433 388.773683 336.358607 395.390965 335.477634 396.135078 Z M 335.477634 396.135078 " stroke="#313f51" stroke-width="1.98" stroke-opacity="1" stroke-miterlimit="4"></path><path stroke-linecap="round" transform="matrix(0.146323, 0, 0, 0.146987, 5.216727, 25.120846)" fill="none" stroke-linejoin="round" d="M 258.56603 370.117729 C 259.126649 364.908945 309.849332 290.444584 313.480008 287.707314 C 317.564519 284.677715 346.556536 281.62154 350.107124 282.126474 C 353.657712 282.631407 387.241467 311.12027 388.255921 314.149869 C 389.270374 317.206044 338.601084 393.450959 335.477634 396.135078 C 328.323067 402.327153 302.614675 406.313468 297.222053 403.6825 C 293.537985 401.875371 258.032107 374.688704 258.539333 370.117729 Z M 258.56603 370.117729 " stroke="#313f51" stroke-width="1.98" stroke-opacity="1" stroke-miterlimit="4"></path><path stroke-linecap="round" transform="matrix(0.146323, 0, 0, 0.146987, 5.216727, 25.120846)" fill="none" stroke-linejoin="round" d="M 150.339842 387.896694 C 157.707979 392.175338 293.77825 430.789441 307.873817 430.178206 C 321.969383 429.566971 448.242167 372.562669 450.698213 366.423744 " stroke="#313f51" stroke-width="1.98" stroke-opacity="1" stroke-miterlimit="4"></path><path stroke-linecap="round" transform="matrix(0.146323, 0, 0, 0.146987, 5.216727, 25.120846)" fill="none" stroke-linejoin="round" d="M 307.873817 430.178206 C 309.101839 436.317131 314.627942 637.360275 312.785908 641.638919 " stroke="#313f51" stroke-width="1.98" stroke-opacity="1" stroke-miterlimit="4"></path><path stroke-linecap="round" transform="matrix(0.146323, 0, 0, 0.146987, 5.216727, 25.120846)" fill-opacity="1" fill="#313f51" fill-rule="nonzero" stroke-linejoin="round" d="M 224.52844 469.403544 C 184.724482 460.607076 177.916964 538.047885 221.458383 554.604379 C 264.973105 571.160873 271.727231 479.821113 224.52844 469.403544 Z M 224.52844 469.403544 " stroke="#313f51" stroke-width="1.98" stroke-opacity="1" stroke-miterlimit="4"></path><path stroke-linecap="round" transform="matrix(0.146323, 0, 0, 0.146987, 5.216727, 25.120846)" fill-opacity="1" fill="#313f51" fill-rule="nonzero" stroke-linejoin="round" d="M 393.087924 457.15227 C 432.891882 448.355802 439.672703 525.796611 396.157981 542.353105 C 352.643258 558.909599 345.889132 467.569839 393.087924 457.15227 Z M 393.087924 457.15227 " stroke="#313f51" stroke-width="1.98" stroke-opacity="1" stroke-miterlimit="4"></path><path stroke-linecap="round" transform="matrix(0.146323, 0, 0, 0.146987, 5.216727, 25.120846)" fill="none" stroke-linejoin="round" d="M 314.280892 288.132521 C 315.348738 288.982935 351.441931 322.016197 353.177181 322.893187 C 354.939127 323.770176 382.916691 316.780837 387.08129 314.149869 " stroke="#313f51" stroke-width="1.98" stroke-opacity="1" stroke-miterlimit="4"></path><path stroke-linecap="round" transform="matrix(0.146323, 0, 0, 0.146987, 5.216727, 25.120846)" fill="none" stroke-linejoin="round" d="M 353.177181 322.893187 C 349.466416 328.34115 307.50007 400.945231 304.216444 404.214009 " stroke="#313f51" stroke-width="1.98" stroke-opacity="1" stroke-miterlimit="4"></path><path stroke-linecap="round" transform="matrix(0.146323, 0, 0, 0.146987, 5.216727, 25.120846)" fill="none" stroke-linejoin="round" d="M 519.200531 202.160998 C 524.619849 188.208897 534.470728 180.847502 539.970135 175.877896 C 549.554052 167.267456 592.641636 148.133145 607.831745 133.410356 C 628.975095 112.947273 669.980379 72.074258 669.980379 72.074258 " stroke="#313f51" stroke-width="1.98" stroke-opacity="1" stroke-miterlimit="4"></path><path stroke-linecap="round" transform="matrix(0.146323, 0, 0, 0.146987, 5.216727, 25.120846)" fill="none" stroke-linejoin="round" d="M 417.061065 209.362941 C 417.061065 209.362941 518.37295 238.330162 524.379584 239.951263 C 529.959079 241.439487 544.188126 210.611986 543.894468 210.505684 C 538.021316 208.485951 442.796153 180.342569 436.762823 178.083657 " stroke="#313f51" stroke-width="1.98" stroke-opacity="1" stroke-miterlimit="4"></path><path stroke-linecap="round" transform="matrix(0.146323, 0, 0, 0.146987, 5.216727, 25.120846)" fill="none" stroke-linejoin="round" d="M 544.081341 210.000751 C 546.884437 204.021279 549.340483 196.261252 555.560685 188.926433 " stroke="#313f51" stroke-width="1.98" stroke-opacity="1" stroke-miterlimit="4"></path><path stroke-linecap="round" transform="matrix(0.146323, 0, 0, 0.146987, 5.216727, 25.120846)" fill="none" stroke-linejoin="round" d="M 563.649619 258.128858 C 558.897704 266.473544 541.25155 279.522081 528.277221 275.562342 C 517.091535 272.160687 518.880177 257.145567 525.020291 240.323319 " stroke="#313f51" stroke-width="1.98" stroke-opacity="1" stroke-miterlimit="4"></path><path stroke-linecap="round" transform="matrix(0.146323, 0, 0, 0.146987, 5.216727, 25.120846)" fill="none" stroke-linejoin="round" d="M 647.422134 274.286721 C 660.957081 279.309478 677.161643 282.870586 687.573141 286.351967 C 707.141419 292.862948 716.538463 260.201742 700.120331 255.232136 C 683.542023 250.20938 660.209589 242.475929 660.209589 242.475929 " stroke="#313f51" stroke-width="1.98" stroke-opacity="1" stroke-miterlimit="4"></path><path stroke-linecap="round" transform="matrix(0.146323, 0, 0, 0.146987, 5.216727, 25.120846)" fill="none" stroke-linejoin="round" d="M 399.468303 266.819025 C 403.632902 249.358966 413.430389 188.953009 450.644821 166.363891 C 487.859252 143.774774 500.219569 141.223533 493.492139 134.659401 C 484.976068 126.394441 440.073146 153.68741 435.641585 149.08986 C 429.127725 142.259974 481.719138 131.071717 478.542296 127.298006 C 474.270912 122.168948 427.392475 131.948707 392.820962 168.489926 C 358.276146 205.031145 349.012582 252.36199 346.983675 260.839553 C 343.646656 274.791654 396.157981 280.771127 399.468303 266.819025 Z M 399.468303 266.819025 " stroke="#313f51" stroke-width="1.98" stroke-opacity="1" stroke-miterlimit="4"></path><path stroke-linecap="round" transform="matrix(0.146323, 0, 0, 0.146987, 5.216727, 25.120846)" fill="none" stroke-linejoin="round" d="M 298.343291 222.358327 L 332.834716 265.809158 " stroke="#313f51" stroke-width="1.98" stroke-opacity="1" stroke-miterlimit="4"></path><path stroke-linecap="round" transform="matrix(0.146323, 0, 0, 0.146987, 5.216727, 25.120846)" fill="none" stroke-linejoin="round" d="M 288.011882 262.221475 L 314.467765 276.120426 " stroke="#313f51" stroke-width="1.98" stroke-opacity="1" stroke-miterlimit="4"></path><path stroke-linecap="round" transform="matrix(0.146323, 0, 0, 0.146987, 5.216727, 25.120846)" fill="none" stroke-linejoin="round" d="M 398.24028 289.115812 L 457.826085 280.159892 " stroke="#313f51" stroke-width="1.98" stroke-opacity="1" stroke-miterlimit="4"></path><path stroke-linecap="round" transform="matrix(0.146323, 0, 0, 0.146987, 5.216727, 25.120846)" fill="none" stroke-linejoin="round" d="M 394.209162 301.659416 L 434.093208 314.20302 " stroke="#313f51" stroke-width="1.98" stroke-opacity="1" stroke-miterlimit="4"></path><path stroke-linecap="round" transform="matrix(0.146323, 0, 0, 0.146987, 5.216727, 25.120846)" fill="none" stroke-linejoin="round" d="M 534.016893 276.572208 C 543.46733 296.928989 570.750794 288.291974 586.768483 270.831915 " stroke="#313f51" stroke-width="1.98" stroke-opacity="1" stroke-miterlimit="4"></path><path stroke-linecap="round" transform="matrix(0.146323, 0, 0, 0.146987, 5.216727, 25.120846)" fill="none" stroke-linejoin="round" d="M 558.390477 287.919918 C 564.210238 301.712567 592.641636 298.257761 606.016407 284.279084 " stroke="#313f51" stroke-width="1.98" stroke-opacity="1" stroke-miterlimit="4"></path><path stroke-linecap="round" transform="matrix(0.146323, 0, 0, 0.146987, 5.216727, 25.120846)" fill="none" stroke-linejoin="round" d="M 582.764061 297.008716 C 594.376886 308.276699 624.356661 297.008716 635.462259 289.009511 C 642.002815 284.279084 656.73909 257.092417 661.277435 235.194261 C 665.81578 213.296104 687.226091 190.255205 699.079182 177.764752 C 712.347168 163.81265 759.065428 115.950297 759.065428 115.950297 " stroke="#313f51" stroke-width="1.98" stroke-opacity="1" stroke-miterlimit="4"></path><path stroke-linecap="round" transform="matrix(0.146323, 0, 0, 0.146987, 5.216727, 25.120846)" fill="none" stroke-linejoin="round" d="M 603.827323 137.05119 C 606.737203 142.499153 663.466519 195.224811 676.921378 203.19744 " stroke="#313f51" stroke-width="1.98" stroke-opacity="1" stroke-miterlimit="4"></path><path stroke-linecap="round" transform="matrix(0.146323, 0, 0, 0.146987, 5.216727, 25.120846)" fill="none" stroke-linejoin="round" d="M 510.417498 236.974815 C 509.990359 252.680895 502.942576 266.686148 518.773392 264.34751 " stroke="#313f51" stroke-width="1.98" stroke-opacity="1" stroke-miterlimit="4"></path></svg>