<svg xmlns="http://www.w3.org/2000/svg" xmlns:xlink="http://www.w3.org/1999/xlink" width="200" viewBox="0 0 150 149.999998" height="200" preserveAspectRatio="xMidYMid meet"><path fill="#abd9f3" d="M 134.683594 87.957031 C 127.984375 106.914062 119.898438 127.539062 102.171875 137.019531 C 88.320312 144.429688 71.402344 143.242188 56.21875 139.210938 C 45.585938 136.390625 35.089844 132.15625 26.765625 124.960938 C 14.90625 114.703125 8.449219 98.964844 7.980469 83.292969 C 6.679688 39.605469 47.09375 13.292969 86.46875 7.886719 C 102.632812 5.664062 116.390625 12.191406 128.292969 23.058594 C 148.304688 41.320312 142.816406 64.945312 134.683594 87.957031 " fill-opacity="1" fill-rule="nonzero"></path><path fill="#ffffff" d="M 131.019531 87.261719 C 124.746094 105.011719 117.175781 124.328125 100.570312 133.210938 C 87.601562 140.148438 71.753906 139.035156 57.535156 135.261719 C 47.578125 132.617188 37.75 128.652344 29.957031 121.914062 C 18.847656 112.308594 12.800781 97.570312 12.363281 82.890625 C 11.144531 41.980469 48.992188 17.339844 85.867188 12.273438 C 101.003906 10.195312 113.890625 16.304688 125.039062 26.480469 C 143.773438 43.585938 138.636719 65.710938 131.019531 87.261719 " fill-opacity="1" fill-rule="nonzero"></path><path fill="#f6d578" d="M 47.875 58.175781 C 47.875 58.175781 47.449219 62.976562 48.199219 67.019531 C 48.199219 67.019531 53.003906 67.148438 57.09375 66.527344 C 56.851562 63.027344 56.609375 59.8125 56.84375 58.058594 C 56.84375 58.058594 48.945312 58.300781 47.875 58.171875 Z M 47.875 58.175781 " fill-opacity="1" fill-rule="evenodd"></path><path fill="#f6d578" d="M 57.929688 51.675781 L 58.066406 59.625 C 58.066406 59.625 65.988281 59.21875 66.121094 59.019531 C 66.253906 58.816406 66.253906 51.269531 66.253906 51.269531 Z M 57.929688 51.675781 " fill-opacity="1" fill-rule="evenodd"></path><path fill="#f6d578" d="M 60.550781 64.003906 L 60.820312 73.367188 C 60.820312 73.367188 69.480469 73.03125 69.816406 72.761719 C 70.152344 72.492188 69.546875 63.398438 69.546875 63.398438 C 69.546875 63.398438 61.558594 64.070312 60.550781 64.003906 Z M 60.550781 64.003906 " fill-opacity="1" fill-rule="evenodd"></path><path fill="#f6d578" d="M 52.359375 75.925781 C 52.359375 75.925781 52.15625 82.191406 52.628906 84.753906 C 52.628906 84.753906 61.554688 84.082031 61.757812 83.945312 C 61.960938 83.808594 61.019531 80.644531 61.625 75.523438 C 61.625 75.523438 54.171875 76.265625 52.359375 75.925781 Z M 52.359375 75.925781 " fill-opacity="1" fill-rule="evenodd"></path><path fill="#f6d578" d="M 73.9375 62.804688 C 73.800781 63.082031 73.9375 68.121094 74.144531 68.257812 C 74.351562 68.394531 81.503906 67.980469 81.640625 67.773438 C 81.777344 67.566406 81.210938 62.972656 81.433594 62.527344 C 81.570312 62.25 73.9375 62.804688 73.9375 62.804688 Z M 73.9375 62.804688 " fill-opacity="1" fill-rule="evenodd"></path><path fill="#f6d578" d="M 85.917969 78.074219 C 86.054688 77.886719 86.65625 69.75 86.148438 69.472656 C 85.640625 69.191406 76.324219 70.167969 76.234375 70.449219 C 76.140625 70.726562 76.417969 75.984375 76.417969 75.984375 L 76.417969 76.648438 C 76.417969 76.648438 77.496094 76.757812 77.496094 76.90625 C 77.496094 77.050781 77.351562 77.472656 77.351562 77.472656 C 77.351562 77.472656 76.785156 78.367188 76.695312 78.460938 C 76.601562 78.554688 76.4375 78.679688 76.4375 78.679688 L 76.476562 79.210938 C 76.476562 79.210938 76.367188 80.476562 76.585938 80.53125 C 76.804688 80.585938 83.371094 80.144531 83.371094 80.144531 C 83.371094 80.144531 83.332031 78.421875 83.515625 78.332031 C 83.703125 78.242188 84.339844 78.1875 84.339844 78.1875 Z M 85.917969 78.074219 " fill-opacity="1" fill-rule="evenodd"></path><path fill="#abd9f3" d="M 47.875 58.175781 C 47.875 58.175781 47.449219 62.976562 48.199219 67.019531 C 48.199219 67.019531 53.003906 67.148438 57.09375 66.527344 C 56.851562 63.027344 56.609375 59.8125 56.84375 58.058594 C 56.84375 58.058594 48.945312 58.300781 47.875 58.171875 Z M 47.875 58.175781 " fill-opacity="1" fill-rule="evenodd"></path><path fill="#abd9f3" d="M 57.929688 51.675781 L 58.066406 59.625 C 58.066406 59.625 65.988281 59.21875 66.121094 59.019531 C 66.253906 58.816406 66.253906 51.269531 66.253906 51.269531 Z M 57.929688 51.675781 " fill-opacity="1" fill-rule="evenodd"></path><path fill="#abd9f3" d="M 60.550781 64.003906 L 60.820312 73.367188 C 60.820312 73.367188 69.480469 73.03125 69.816406 72.761719 C 70.152344 72.492188 69.546875 63.398438 69.546875 63.398438 C 69.546875 63.398438 61.558594 64.070312 60.550781 64.003906 Z M 60.550781 64.003906 " fill-opacity="1" fill-rule="evenodd"></path><path fill="#abd9f3" d="M 52.359375 75.925781 C 52.359375 75.925781 52.15625 82.191406 52.628906 84.753906 C 52.628906 84.753906 61.554688 84.082031 61.757812 83.945312 C 61.960938 83.808594 61.019531 80.644531 61.625 75.523438 C 61.625 75.523438 54.171875 76.265625 52.359375 75.925781 Z M 52.359375 75.925781 " fill-opacity="1" fill-rule="evenodd"></path><path fill="#abd9f3" d="M 73.9375 62.804688 C 73.800781 63.082031 73.9375 68.121094 74.144531 68.257812 C 74.351562 68.394531 81.503906 67.980469 81.640625 67.773438 C 81.777344 67.566406 81.210938 62.972656 81.433594 62.527344 C 81.570312 62.25 73.9375 62.804688 73.9375 62.804688 Z M 73.9375 62.804688 " fill-opacity="1" fill-rule="evenodd"></path><path fill="#abd9f3" d="M 85.917969 78.074219 C 86.054688 77.886719 86.65625 69.75 86.148438 69.472656 C 85.640625 69.191406 76.324219 70.167969 76.234375 70.449219 C 76.140625 70.726562 76.417969 75.984375 76.417969 75.984375 L 76.417969 76.648438 C 76.417969 76.648438 77.496094 76.757812 77.496094 76.90625 C 77.496094 77.050781 77.351562 77.472656 77.351562 77.472656 C 77.351562 77.472656 76.785156 78.367188 76.695312 78.460938 C 76.601562 78.554688 76.4375 78.679688 76.4375 78.679688 L 76.476562 79.210938 C 76.476562 79.210938 76.367188 80.476562 76.585938 80.53125 C 76.804688 80.585938 83.371094 80.144531 83.371094 80.144531 C 83.371094 80.144531 83.332031 78.421875 83.515625 78.332031 C 83.703125 78.242188 84.339844 78.1875 84.339844 78.1875 Z M 85.917969 78.074219 " fill-opacity="1" fill-rule="evenodd"></path><path fill="#313f51" d="M 120.519531 39.613281 C 119.535156 38.207031 36.484375 40.078125 34.238281 41.0625 C 33.085938 41.566406 33.816406 103.691406 35.082031 104.679688 C 35.621094 105.101562 48.382812 105.238281 67.914062 105.160156 C 67.871094 108.078125 67.707031 117.027344 67.664062 119.984375 C 63.605469 120.003906 60.578125 120.007812 60.089844 119.996094 C 59.710938 119.988281 59.527344 122.648438 59.941406 122.648438 C 60.351562 122.648438 93.609375 122.484375 94.019531 122.484375 C 94.429688 122.484375 94.496094 119.855469 94.074219 119.855469 C 93.941406 119.855469 91.21875 119.871094 87.367188 119.890625 C 87.355469 117.019531 87.3125 107.96875 87.300781 105.011719 C 106.925781 104.792969 120.085938 104.378906 120.328125 103.832031 C 121.347656 101.53125 121.503906 41.023438 120.519531 39.613281 Z M 117.328125 68.386719 C 117.28125 81.273438 117.203125 94.203125 116.894531 94.328125 C 115.730469 94.796875 39.234375 95.59375 38.53125 94.886719 C 38.171875 94.523438 38.304688 81.464844 38.160156 68.695312 C 38.023438 56.78125 38.089844 44.894531 38.46875 44.683594 C 39.734375 43.980469 115.96875 42.4375 117.019531 43.25 C 117.40625 43.550781 117.375 56.035156 117.328125 68.382812 Z M 117.328125 68.386719 " fill-opacity="1" fill-rule="nonzero"></path><path fill="#313f51" d="M 87.367188 119.757812 L 67.65625 119.898438 " fill-opacity="1" fill-rule="nonzero"></path><path fill="#313f51" d="M 108.554688 71.996094 C 108.726562 72.316406 109.683594 72.921875 110.433594 72.402344 C 111.183594 71.882812 111.589844 70.632812 111.328125 69.707031 C 111.066406 68.78125 110.605469 68.027344 111.066406 67.011719 C 111.53125 66 111.039062 63.851562 110.203125 63.363281 C 109.363281 62.867188 108.527344 63.214844 107.921875 62.609375 C 107.40625 62.089844 106.128906 62.085938 105.496094 62.144531 C 104.222656 62.261719 103.328125 63.59375 102.460938 63.679688 C 101.597656 63.765625 99.863281 65.128906 99.632812 65.96875 C 99.402344 66.808594 100.152344 67.5625 99.890625 68.515625 C 99.632812 69.472656 99.226562 70.285156 99.632812 71.039062 C 100.035156 71.789062 100.410156 73.152344 101.132812 73.152344 C 101.855469 73.152344 102.808594 72.921875 102.894531 72.371094 L 102.070312 68.53125 C 102.070312 68.53125 102.007812 67.78125 102.320312 67.339844 C 102.636719 66.902344 103.253906 66.601562 103.65625 66.625 C 104.058594 66.648438 104.207031 66.644531 104.207031 66.644531 C 104.207031 66.644531 104.757812 66.390625 104.863281 66.15625 C 104.96875 65.925781 105.730469 64.882812 105.902344 64.925781 C 106.070312 64.964844 106.683594 65.265625 106.832031 65.390625 C 106.980469 65.519531 107.359375 65.902344 107.425781 66.007812 C 107.492188 66.113281 107.722656 66.515625 107.722656 66.515625 C 107.722656 66.515625 109.15625 66.433594 109.289062 67.664062 C 109.394531 68.640625 108.589844 68.980469 108.589844 68.980469 C 108.589844 68.980469 108.699219 69.875 108.675781 70.703125 C 108.65625 71.53125 108.558594 71.992188 108.558594 71.992188 Z M 108.554688 71.996094 " fill-opacity="1" fill-rule="evenodd"></path><path fill="#313f51" d="M 101.949219 50.113281 L 101.929688 50.1875 C 102.039062 50.390625 102.125 50.75 102.382812 50.75 C 102.796875 50.75 102.640625 49.636719 102.582031 49.039062 C 102.523438 48.445312 103.203125 47.371094 104.425781 47.773438 C 105.425781 48.101562 106.519531 47.183594 107.332031 47.53125 C 108.605469 48.066406 107.597656 50.554688 108.113281 50.933594 C 108.503906 51.222656 108.054688 50.21875 108.828125 50.398438 C 108.898438 50.414062 108.957031 50.449219 109.003906 50.503906 L 109.042969 50.347656 C 109.441406 50.148438 109.675781 49.140625 109.308594 48.804688 C 108.941406 48.46875 109.308594 46.855469 108.839844 46.386719 C 108.371094 45.917969 107.167969 46.289062 106.164062 45.984375 C 105.160156 45.683594 104.191406 45.246094 103.65625 45.78125 C 103.121094 46.320312 102.984375 46.824219 102.050781 47.125 C 101.113281 47.425781 101.378906 48.066406 101.78125 48.734375 C 102.183594 49.40625 102.117188 49.574219 101.949219 50.113281 Z M 101.949219 50.113281 " fill-opacity="1" fill-rule="nonzero"></path><path fill="#313f51" d="M 109.171875 84.621094 L 109.179688 84.621094 C 109.234375 84.300781 109.308594 83.882812 109.355469 83.722656 C 109.433594 83.464844 109.640625 82.734375 109.882812 82.566406 C 109.886719 82.523438 109.890625 82.5 109.890625 82.5 C 109.78125 81.714844 109.675781 80.269531 108.691406 79.503906 C 107.527344 78.601562 106.347656 78.441406 105.1875 78.796875 C 103.835938 79.214844 103.949219 80.398438 103.007812 80.222656 C 101.71875 79.976562 101.40625 80.332031 100.757812 81.117188 C 100.109375 81.898438 100.757812 83.464844 100.757812 83.464844 L 100.832031 83.625 C 100.980469 83.621094 101.171875 83.664062 101.40625 83.746094 C 101.734375 83.855469 101.949219 84.527344 102.164062 84.082031 C 102.382812 83.632812 102.003906 82.402344 102.597656 81.953125 C 103.195312 81.507812 104.480469 82.1875 105.347656 81.179688 C 106.214844 80.171875 107.074219 79.972656 107.59375 80.558594 C 108.183594 81.21875 108.753906 81.3125 108.9375 81.675781 C 109.257812 82.308594 109.28125 83.761719 109.28125 83.761719 Z M 109.171875 84.621094 " fill-opacity="1" fill-rule="evenodd"></path><path stroke-linecap="round" transform="matrix(0.161205, 0, 0, 0.161766, 4.086812, 17.94419)" fill="none" stroke-linejoin="round" d="M 722.2641 133.953576 C 728.370448 142.670854 727.401186 516.716906 721.052523 530.939832 C 717.587412 538.787796 200.098637 542.265048 192.271849 536.179857 C 184.42083 530.070519 179.889532 146.027368 187.037837 142.912329 C 200.970972 136.802991 716.181983 125.260447 722.2641 133.953576 Z M 213.280595 165.297138 C 210.930135 166.601108 210.518199 240.082201 211.366303 313.732328 C 212.26287 392.646627 211.438998 473.396143 213.6683 475.641868 C 218.029977 479.988433 692.556231 475.086473 699.77723 472.188764 C 701.691522 471.416041 702.176153 391.487543 702.466931 311.824669 C 702.75771 235.470013 702.951562 158.318487 700.552639 156.459123 C 694.058587 151.436426 221.131614 160.950574 213.280595 165.297138 Z M 213.280595 165.297138 " stroke="#313f51" stroke-width="1.98" stroke-opacity="1" stroke-miterlimit="4"></path><path stroke-linecap="round" transform="matrix(0.161205, 0, 0, 0.161766, 4.086812, 17.94419)" fill="none" stroke-linejoin="round" d="M 396.010641 539.657109 C 396.010641 544.872987 394.338664 624.1495 394.338664 630.258838 " stroke="#313f51" stroke-width="1.98" stroke-opacity="1" stroke-miterlimit="4"></path><path stroke-linecap="round" transform="matrix(0.161205, 0, 0, 0.161766, 4.086812, 17.94419)" fill="none" stroke-linejoin="round" d="M 516.174849 538.787796 C 516.174849 544.003674 516.611017 624.173647 516.611017 629.413673 " stroke="#313f51" stroke-width="1.98" stroke-opacity="1" stroke-miterlimit="4"></path><path stroke-linecap="round" transform="matrix(0.161205, 0, 0, 0.161766, 4.086812, 17.94419)" fill="none" stroke-linejoin="round" d="M 347.402171 630.862528 C 357.870196 631.128151 555.381481 629.993215 558.216572 629.993215 C 560.809346 629.993215 560.421642 646.244538 557.853098 646.244538 C 555.308787 646.244538 349.001452 647.258736 346.457141 647.258736 C 343.912829 647.258736 345.051711 630.814233 347.377939 630.886675 Z M 347.402171 630.862528 " stroke="#313f51" stroke-width="1.98" stroke-opacity="1" stroke-miterlimit="4"></path><path stroke-linecap="round" transform="matrix(0.161205, 0, 0, 0.161766, 4.086812, 17.94419)" fill="none" stroke-linejoin="round" d="M 220.840835 174.618105 C 218.199598 175.294237 221.495087 465.910392 222.125107 467.190214 C 222.779359 468.470036 556.059964 467.842199 558.628508 465.258407 C 559.912779 463.978585 559.500843 392.260266 559.403917 318.368663 C 559.306991 243.945814 559.549306 167.349683 558.240803 166.069861 C 555.67226 163.510217 225.977922 173.338283 220.840835 174.618105 Z M 220.840835 174.618105 " stroke="#313f51" stroke-width="1.98" stroke-opacity="1" stroke-miterlimit="4"></path><path stroke-linecap="round" transform="matrix(0.161205, 0, 0, 0.161766, 4.086812, 17.94419)" fill="none" stroke-linejoin="round" d="M 569.581164 166.842584 C 569.023839 174.135154 569.023839 254.643193 569.023839 257.97556 C 569.023839 259.521005 687.467608 256.430114 690.472319 256.212786 C 692.459305 256.067901 692.095832 166.069861 690.351161 164.910777 C 688.994195 163.993169 569.702322 165.466171 569.581164 166.842584 Z M 569.581164 166.842584 " stroke="#313f51" stroke-width="1.98" stroke-opacity="1" stroke-miterlimit="4"></path><path stroke-linecap="round" transform="matrix(0.161205, 0, 0, 0.161766, 4.086812, 17.94419)" fill="none" stroke-linejoin="round" d="M 569.581164 270.290827 C 569.023839 277.583397 569.023839 358.091437 569.023839 361.423803 C 569.023839 362.969248 687.467608 359.878358 690.472319 359.661029 C 692.459305 359.516144 692.095832 269.518104 690.351161 268.35902 C 688.994195 267.441412 569.702322 268.914415 569.581164 270.290827 Z M 569.581164 270.290827 " stroke="#313f51" stroke-width="1.98" stroke-opacity="1" stroke-miterlimit="4"></path><path stroke-linecap="round" transform="matrix(0.161205, 0, 0, 0.161766, 4.086812, 17.94419)" fill="none" stroke-linejoin="round" d="M 569.581164 373.73907 C 569.023839 381.03164 569.023839 461.53968 569.023839 464.872046 C 569.023839 466.417491 687.467608 463.350748 690.472319 463.109273 C 692.459305 462.964387 692.095832 372.966347 690.351161 371.807263 C 688.994195 370.889655 569.702322 372.362658 569.581164 373.73907 Z M 569.581164 373.73907 " stroke="#313f51" stroke-width="1.98" stroke-opacity="1" stroke-miterlimit="4"></path><path stroke-linecap="round" transform="matrix(0.161205, 0, 0, 0.161766, 4.086812, 17.94419)" fill="none" stroke-linejoin="round" d="M 579.540327 258.434364 C 579.928032 255.488359 579.928032 242.569402 586.930947 240.371972 C 593.933862 238.150395 610.629393 236.025407 613.222168 233.441616 C 615.790711 230.857825 615.790711 226.438817 615.790711 226.438817 " stroke="#313f51" stroke-width="1.98" stroke-opacity="1" stroke-miterlimit="4"></path><path stroke-linecap="round" transform="matrix(0.161205, 0, 0, 0.161766, 4.086812, 17.94419)" fill="none" stroke-linejoin="round" d="M 638.592591 226.873474 C 638.592591 229.457265 639.125685 231.992761 641.718459 233.10355 C 644.287003 234.214339 665.150359 234.842176 668.47008 238.89897 C 671.789801 242.979911 673.34062 255.947163 673.34062 255.947163 " stroke="#313f51" stroke-width="1.98" stroke-opacity="1" stroke-miterlimit="4"></path><path stroke-linecap="round" transform="matrix(0.161205, 0, 0, 0.161766, 4.086812, 17.94419)" fill="none" stroke-linejoin="round" d="M 605.201528 198.862278 C 602.366438 201.228741 602.511827 217.214441 606.558494 217.576654 C 610.629393 217.938868 610.629393 213.51986 612.107517 214.992863 C 613.585641 216.490013 613.197937 232.330827 627.591471 232.717189 C 641.960775 233.079402 641.985006 214.992863 643.075426 214.992863 C 644.190077 214.992863 645.304727 218.494262 647.146325 218.325229 C 650.829519 217.938868 654.512713 201.711693 649.714868 200.600904 C 644.917023 199.490115 647.727881 205.720191 645.280496 203.93327 C 642.081933 201.590955 648.33367 186.208945 640.458419 182.876578 C 635.394027 180.751591 628.609196 186.402125 622.430153 184.373728 C 614.82145 181.910675 610.605162 188.527113 610.968635 192.221693 C 611.356339 195.916273 612.325601 202.798334 609.732826 202.798334 C 607.140051 202.798334 607.382367 197.002914 605.153065 198.862278 Z M 605.201528 198.862278 " stroke="#313f51" stroke-width="1.98" stroke-opacity="1" stroke-miterlimit="4"></path><path stroke-linecap="round" transform="matrix(0.161205, 0, 0, 0.161766, 4.086812, 17.94419)" fill="none" stroke-linejoin="round" d="M 621.339734 218.687443 C 621.339734 218.687443 627.591471 227.91182 632.025843 219.049657 " stroke="#313f51" stroke-width="1.98" stroke-opacity="1" stroke-miterlimit="4"></path><path stroke-linecap="round" transform="matrix(0.161205, 0, 0, 0.161766, 4.086812, 17.94419)" fill="none" stroke-linejoin="round" d="M 625.580254 212.288334 C 625.580254 212.288334 629.990394 214.847978 632.946642 211.539759 C 635.90289 208.23154 629.481532 199.900624 629.481532 199.900624 " stroke="#313f51" stroke-width="1.98" stroke-opacity="1" stroke-miterlimit="4"></path><path stroke-linecap="round" transform="matrix(0.161205, 0, 0, 0.161766, 4.086812, 17.94419)" fill="none" stroke-linejoin="round" d="M 611.21095 234.769733 C 612.034823 240.154644 615.790711 247.423066 628.221492 247.205738 C 640.676503 246.98841 643.390436 236.411769 643.172352 233.731387 " stroke="#313f51" stroke-width="1.98" stroke-opacity="1" stroke-miterlimit="4"></path><path stroke-linecap="round" transform="matrix(0.161205, 0, 0, 0.161766, 4.086812, 17.94419)" fill="none" stroke-linejoin="round" d="M 607.067357 198.862278 C 608.109313 195.529912 608.521249 194.491566 606.025401 190.338181 C 603.529552 186.208945 601.881807 182.248741 607.673145 180.389377 C 613.488715 178.530014 614.312587 175.414975 617.632308 172.082609 C 620.952029 168.77439 626.985683 171.478919 633.188957 173.338283 C 639.440695 175.221795 646.904009 172.927774 649.811794 175.825484 C 652.719579 178.747342 650.417582 188.696146 652.719579 190.772838 C 654.997344 192.84953 653.543451 199.079606 651.047603 200.311133 " stroke="#313f51" stroke-width="1.98" stroke-opacity="1" stroke-miterlimit="4"></path><path stroke-linecap="round" transform="matrix(0.161205, 0, 0, 0.161766, 4.086812, 17.94419)" fill="none" stroke-linejoin="round" d="M 617.438456 198.862278 C 617.438456 198.862278 622.84209 198.64495 624.489834 199.079606 " stroke="#313f51" stroke-width="1.98" stroke-opacity="1" stroke-miterlimit="4"></path><path stroke-linecap="round" transform="matrix(0.161205, 0, 0, 0.161766, 4.086812, 17.94419)" fill="none" stroke-linejoin="round" d="M 634.667081 198.862278 C 634.667081 198.862278 640.264567 198.64495 641.088439 198.64495 " stroke="#313f51" stroke-width="1.98" stroke-opacity="1" stroke-miterlimit="4"></path><path stroke-linecap="round" transform="matrix(0.161205, 0, 0, 0.161766, 4.086812, 17.94419)" fill="none" stroke-linejoin="round" d="M 247.035131 273.478308 C 247.035131 274.323473 246.86551 275.168638 246.526268 275.965509 C 246.211258 276.738231 245.726627 277.438511 245.120839 278.066348 C 244.51505 278.670038 243.812336 279.128842 243.012695 279.466908 C 242.237286 279.804974 241.389182 279.94986 240.541078 279.94986 C 239.668742 279.94986 238.84487 279.804974 238.045229 279.466908 C 237.26982 279.128842 236.567105 278.670038 235.961317 278.066348 C 235.331297 277.438511 234.870897 276.738231 234.555887 275.965509 C 234.216646 275.168638 234.047025 274.323473 234.047025 273.478308 C 234.047025 272.608995 234.216646 271.787977 234.555887 270.991107 C 234.870897 270.194236 235.331297 269.493957 235.961317 268.890267 C 236.567105 268.26243 237.26982 267.803626 238.045229 267.46556 C 238.84487 267.151641 239.668742 266.982608 240.541078 266.982608 C 241.389182 266.982608 242.237286 267.151641 243.012695 267.46556 C 243.812336 267.803626 244.51505 268.26243 245.120839 268.890267 C 245.726627 269.493957 246.211258 270.194236 246.526268 270.991107 C 246.86551 271.787977 247.035131 272.608995 247.035131 273.478308 Z M 247.035131 273.478308 " stroke="#313f51" stroke-width="1.98" stroke-opacity="1" stroke-miterlimit="4"></path><path stroke-linecap="round" transform="matrix(0.161205, 0, 0, 0.161766, 4.086812, 17.94419)" fill="none" stroke-linejoin="round" d="M 247.035131 343.023345 C 247.035131 343.892658 246.86551 344.713676 246.526268 345.510546 C 246.211258 346.307416 245.726627 347.007696 245.120839 347.611386 C 244.51505 348.215075 243.812336 348.698027 243.012695 349.011946 C 242.237286 349.350012 241.389182 349.519045 240.541078 349.519045 C 239.668742 349.519045 238.84487 349.350012 238.045229 349.011946 C 237.26982 348.698027 236.567105 348.215075 235.961317 347.611386 C 235.331297 347.007696 234.870897 346.307416 234.555887 345.510546 C 234.216646 344.713676 234.047025 343.892658 234.047025 343.023345 C 234.047025 342.154032 234.216646 341.333014 234.555887 340.536144 C 234.870897 339.739274 235.331297 339.038994 235.961317 338.435304 C 236.567105 337.831615 237.26982 337.348663 238.045229 337.034745 C 238.84487 336.696678 239.668742 336.527645 240.541078 336.527645 C 241.389182 336.527645 242.237286 336.696678 243.012695 337.034745 C 243.812336 337.348663 244.51505 337.831615 245.120839 338.435304 C 245.726627 339.038994 246.211258 339.739274 246.526268 340.536144 C 246.86551 341.333014 247.035131 342.154032 247.035131 343.023345 Z M 247.035131 343.023345 " stroke="#313f51" stroke-width="1.98" stroke-opacity="1" stroke-miterlimit="4"></path><path stroke-linecap="round" transform="matrix(0.161205, 0, 0, 0.161766, 4.086812, 17.94419)" fill="none" stroke-linejoin="round" d="M 234.531656 291.081895 L 247.035131 291.081895 L 247.035131 303.590343 L 234.531656 303.590343 Z M 234.531656 291.081895 " stroke="#313f51" stroke-width="1.98" stroke-opacity="1" stroke-miterlimit="4"></path><path stroke-linecap="round" transform="matrix(0.161205, 0, 0, 0.161766, 4.086812, 17.94419)" fill="none" stroke-linejoin="round" d="M 234.531656 358.670978 L 247.035131 358.670978 L 247.035131 363.500495 L 234.531656 363.500495 Z M 234.531656 358.670978 " stroke="#313f51" stroke-width="1.98" stroke-opacity="1" stroke-miterlimit="4"></path><path stroke-linecap="round" transform="matrix(0.161205, 0, 0, 0.161766, 4.086812, 17.94419)" fill="none" stroke-linejoin="round" d="M 234.531656 366.881157 L 247.035131 366.881157 L 247.035131 375.260368 L 234.531656 375.260368 Z M 234.531656 366.881157 " stroke="#313f51" stroke-width="1.98" stroke-opacity="1" stroke-miterlimit="4"></path><path stroke-linecap="round" transform="matrix(0.161205, 0, 0, 0.161766, 4.086812, 17.94419)" fill="none" stroke-linejoin="round" d="M 247.035131 313.176933 L 234.531656 325.685381 L 247.035131 325.685381 Z M 247.035131 313.176933 " stroke="#313f51" stroke-width="1.98" stroke-opacity="1" stroke-miterlimit="4"></path><path stroke-linecap="round" transform="matrix(0.161205, 0, 0, 0.161766, 4.086812, 17.94419)" fill="none" stroke-linejoin="round" d="M 247.035131 397.862505 L 234.531656 385.354057 L 234.531656 397.862505 Z M 247.035131 397.862505 " stroke="#313f51" stroke-width="1.98" stroke-opacity="1" stroke-miterlimit="4"></path><path fill="#050038" d="M 43.625 59.570312 L 43.125 58.828125 L 43.683594 58.636719 L 41.953125 57.472656 L 42.378906 59.519531 L 42.800781 59.042969 L 43.304688 59.789062 Z M 43.625 59.570312 " fill-opacity="1" fill-rule="evenodd"></path><path stroke-linecap="round" transform="matrix(0.161205, 0, 0, 0.161766, 4.086812, 17.94419)" fill="none" stroke-linejoin="round" d="M 228.909938 238.19869 L 252.681079 238.19869 L 252.681079 405.638026 L 228.909938 405.638026 Z M 228.909938 238.19869 " stroke="#313f51" stroke-width="1.98" stroke-opacity="1" stroke-miterlimit="4"></path><path stroke-linecap="round" transform="matrix(0.161205, 0, 0, 0.161766, 4.086812, 17.94419)" fill="none" stroke-linejoin="round" d="M 271.630144 248.702888 C 271.630144 248.702888 268.988906 278.380267 273.641362 303.373015 C 273.641362 303.373015 303.446156 304.169885 328.816579 300.330419 C 327.314224 278.694185 325.811868 258.820725 327.265761 247.978461 C 327.265761 247.978461 278.269586 249.475611 271.630144 248.678741 Z M 271.630144 248.702888 " stroke="#313f51" stroke-width="1.98" stroke-opacity="1" stroke-miterlimit="4"></path><path stroke-linecap="round" transform="matrix(0.161205, 0, 0, 0.161766, 4.086812, 17.94419)" fill="none" stroke-linejoin="round" d="M 334.002129 208.521311 L 334.850233 257.661641 C 334.850233 257.661641 383.991797 255.150293 384.815669 253.918766 C 385.639541 252.663092 385.639541 206.009962 385.639541 206.009962 Z M 334.002129 208.521311 " stroke="#313f51" stroke-width="1.98" stroke-opacity="1" stroke-miterlimit="4"></path><path stroke-linecap="round" transform="matrix(0.161205, 0, 0, 0.161766, 4.086812, 17.94419)" fill="none" stroke-linejoin="round" d="M 350.261492 284.731081 L 351.933469 342.612836 C 351.933469 342.612836 405.654794 340.536144 407.738706 338.869961 C 409.822619 337.203778 406.06673 280.988206 406.06673 280.988206 C 406.06673 280.988206 356.51323 285.14159 350.261492 284.731081 Z M 350.261492 284.731081 " stroke="#313f51" stroke-width="1.98" stroke-opacity="1" stroke-miterlimit="4"></path><path stroke-linecap="round" transform="matrix(0.161205, 0, 0, 0.161766, 4.086812, 17.94419)" fill="none" stroke-linejoin="round" d="M 299.447952 358.429503 C 299.447952 358.429503 298.187912 397.162225 301.119929 413.003039 C 301.119929 413.003039 356.488998 408.849655 357.749038 408.004489 C 359.009078 407.159324 353.169277 387.599782 356.925166 355.942302 C 356.925166 355.942302 310.691387 360.530342 299.447952 358.429503 Z M 299.447952 358.429503 " stroke="#313f51" stroke-width="1.98" stroke-opacity="1" stroke-miterlimit="4"></path><path stroke-linecap="round" transform="matrix(0.161205, 0, 0, 0.161766, 4.086812, 17.94419)" fill="none" stroke-linejoin="round" d="M 299.447952 400.977543 C 285.369427 401.339757 267.850024 401.460495 261.574055 399.987492 C 261.574055 399.987492 258.472418 438.623624 260.629025 454.561028 C 260.629025 454.561028 316.167715 453.039731 317.451987 452.267008 C 318.590869 451.590876 315.004601 436.450342 317.548913 411.723217 " stroke="#313f51" stroke-width="1.98" stroke-opacity="1" stroke-miterlimit="4"></path><path stroke-linecap="round" transform="matrix(0.161205, 0, 0, 0.161766, 4.086812, 17.94419)" fill="none" stroke-linejoin="round" d="M 287.841044 439.710265 C 289.513021 438.889247 296.952104 425.07683 298.599848 425.07683 C 300.271825 425.07683 312.339132 446.737212 311.951427 448.403395 C 311.539491 450.069578 268.625433 449.224413 268.625433 449.224413 C 269.061601 447.147721 278.221123 433.818255 279.456932 432.997237 C 280.716972 432.152072 292.275416 444.443191 294.771265 448.620723 " stroke="#313f51" stroke-width="1.98" stroke-opacity="1" stroke-miterlimit="4"></path><path stroke-linecap="round" transform="matrix(0.161205, 0, 0, 0.161766, 4.086812, 17.94419)" fill="none" stroke-linejoin="round" d="M 274.610623 410.081181 C 264.578766 411.216118 269.013138 423.772861 276.379526 422.710367 C 284.690944 421.527136 284.884797 408.873802 274.610623 410.081181 Z M 274.610623 410.081181 " stroke="#313f51" stroke-width="1.98" stroke-opacity="1" stroke-miterlimit="4"></path><path stroke-linecap="round" transform="matrix(0.161205, 0, 0, 0.161766, 4.086812, 17.94419)" fill="none" stroke-linejoin="round" d="M 346.190594 373.73907 C 344.421691 371.686525 340.423487 371.372607 339.333068 371.807263 C 338.242648 372.24192 336.086041 375.984795 331.482049 375.815762 C 326.853824 375.646729 324.091429 371.058688 320.238614 371.396754 C 316.361567 371.710673 316.216178 375.550139 312.387595 375.260368 C 308.53478 374.946449 306.208552 371.155279 306.208552 371.155279 " stroke="#313f51" stroke-width="1.98" stroke-opacity="1" stroke-miterlimit="4"></path><path stroke-linecap="round" transform="matrix(0.161205, 0, 0, 0.161766, 4.086812, 17.94419)" fill="none" stroke-linejoin="round" d="M 345.97251 387.454897 C 345.97251 387.454897 341.441212 384.967696 339.139215 385.040139 C 336.837219 385.088434 333.614424 388.372505 329.180052 387.889553 C 324.721449 387.406602 323.461409 384.12253 318.518175 384.388154 C 313.550709 384.677925 312.702605 386.971945 312.702605 386.971945 " stroke="#313f51" stroke-width="1.98" stroke-opacity="1" stroke-miterlimit="4"></path><path stroke-linecap="round" transform="matrix(0.161205, 0, 0, 0.161766, 4.086812, 17.94419)" fill="none" stroke-linejoin="round" d="M 342.870873 398.683523 C 335.165243 395.761665 338.315343 402.160774 330.779334 401.098281 C 326.611509 400.518739 325.012227 396.896601 321.959053 396.800011 " stroke="#313f51" stroke-width="1.98" stroke-opacity="1" stroke-miterlimit="4"></path><path stroke-linecap="round" transform="matrix(0.161205, 0, 0, 0.161766, 4.086812, 17.94419)" fill="none" stroke-linejoin="round" d="M 398.748805 296.563396 C 396.858744 294.583295 392.86054 294.510852 391.794353 294.993804 C 390.728165 295.476755 388.789642 299.364516 384.185649 299.461106 C 379.557425 299.557697 376.552714 295.138689 372.699899 295.669936 C 368.871315 296.201183 368.94401 300.064796 365.091195 299.968206 C 361.23838 299.895763 358.694068 296.249478 358.694068 296.249478 " stroke="#313f51" stroke-width="1.98" stroke-opacity="1" stroke-miterlimit="4"></path><path stroke-linecap="round" transform="matrix(0.161205, 0, 0, 0.161766, 4.086812, 17.94419)" fill="none" stroke-linejoin="round" d="M 359.687562 314.432607 C 359.687562 314.432607 360.366045 312.11444 364.921574 311.559045 C 369.452872 311.003651 370.809839 314.215279 374.953432 314.456755 C 379.097025 314.674083 381.859421 311.245127 384.016028 311.051946 C 386.148404 310.834618 390.461618 313.080343 390.461618 313.080343 C 395.52601 315.036297 397.828006 311.728078 397.828006 311.728078 " stroke="#313f51" stroke-width="1.98" stroke-opacity="1" stroke-miterlimit="4"></path><path stroke-linecap="round" transform="matrix(0.161205, 0, 0, 0.161766, 4.086812, 17.94419)" fill="none" stroke-linejoin="round" d="M 397.149523 325.540495 C 389.274272 323.029147 392.787846 329.259223 385.179142 328.631386 C 381.011317 328.269172 379.16972 324.308969 376.140777 324.816068 C 372.021416 325.540495 372.021416 329.138485 367.296265 328.583091 C 362.571115 328.027696 362.013789 327.206679 360.341813 327.762073 " stroke="#313f51" stroke-width="1.98" stroke-opacity="1" stroke-miterlimit="4"></path><path stroke-linecap="round" transform="matrix(0.161205, 0, 0, 0.161766, 4.086812, 17.94419)" fill="none" stroke-linejoin="round" d="M 344.542849 261.959911 C 342.82241 267.924364 338.145722 285.866017 341.126202 304.194033 C 344.130913 322.546195 335.577179 343.023345 335.577179 343.023345 " stroke="#313f51" stroke-width="1.98" stroke-opacity="1" stroke-miterlimit="4"></path><path stroke-linecap="round" transform="matrix(0.161205, 0, 0, 0.161766, 4.086812, 17.94419)" fill="none" stroke-linejoin="round" d="M 433.302981 277.317773 C 432.454877 279.032252 433.302981 310.182633 434.587253 311.027798 C 435.871524 311.872964 480.239475 309.31332 481.087579 308.033498 C 481.935683 306.753676 478.422109 278.356119 479.803307 275.603295 C 480.651411 273.888817 433.302981 277.317773 433.302981 277.317773 Z M 433.302981 277.317773 " stroke="#313f51" stroke-width="1.98" stroke-opacity="1" stroke-miterlimit="4"></path><path stroke-linecap="round" transform="matrix(0.161205, 0, 0, 0.161766, 4.086812, 17.94419)" fill="none" stroke-linejoin="round" d="M 382.94984 345.17248 C 382.94984 345.17248 391.067406 392.960546 444.812963 370.358408 " stroke="#313f51" stroke-width="1.98" stroke-opacity="1" stroke-miterlimit="4"></path><path stroke-linecap="round" transform="matrix(0.161205, 0, 0, 0.161766, 4.086812, 17.94419)" fill="none" stroke-linejoin="round" d="M 444.401027 363.500495 C 443.528691 365.214973 446.945338 375.888205 448.665778 375.453548 C 450.361985 375.043039 456.347176 365.64963 455.062904 364.369808 C 453.778633 363.089986 444.401027 363.524643 444.401027 363.524643 Z M 444.401027 363.500495 " stroke="#313f51" stroke-width="1.98" stroke-opacity="1" stroke-miterlimit="4"></path><path stroke-linecap="round" transform="matrix(0.161205, 0, 0, 0.161766, 4.086812, 17.94419)" fill="none" stroke-linejoin="round" d="M 331.288196 341.550343 C 330.537019 341.936704 331.724364 349.180979 332.354384 349.615635 C 333.008636 350.026144 338.921132 345.148332 339.357299 344.520495 C 339.769235 343.86851 331.724364 341.333014 331.288196 341.550343 Z M 331.288196 341.550343 " stroke="#313f51" stroke-width="1.98" stroke-opacity="1" stroke-miterlimit="4"></path><path stroke-linecap="round" transform="matrix(0.161205, 0, 0, 0.161766, 4.086812, 17.94419)" fill="none" stroke-linejoin="round" d="M 489.205145 254.425865 C 487.533168 255.198588 485.473487 272.536552 487.484705 272.536552 C 489.520155 272.536552 498.122351 270.822074 498.703908 271.401616 C 499.261234 271.95701 496.111134 283.185636 496.111134 283.185636 C 496.111134 283.185636 505.02834 272.270929 506.74878 272.270929 C 508.469219 272.270929 517.386426 273.985407 518.258762 270.532303 C 519.106865 267.079198 518.54954 254.450013 515.956765 253.001158 C 513.36399 251.57645 492.379476 253.001158 489.229376 254.450013 Z M 489.205145 254.425865 " stroke="#313f51" stroke-width="1.98" stroke-opacity="1" stroke-miterlimit="4"></path><path stroke-linecap="round" transform="matrix(0.161205, 0, 0, 0.161766, 4.086812, 17.94419)" fill="none" stroke-linejoin="round" d="M 494.390694 263.046552 C 495.820355 264.76103 498.994687 260.752532 502.726344 263.626094 C 506.458001 266.499656 509.341555 265.630343 510.771216 264.181488 " stroke="#313f51" stroke-width="1.98" stroke-opacity="1" stroke-miterlimit="4"></path><path stroke-linecap="round" transform="matrix(0.161205, 0, 0, 0.161766, 4.086812, 17.94419)" fill="none" stroke-linejoin="round" d="M 492.670255 373.425151 C 490.659037 375.043039 492.379476 392.11538 493.809137 392.11538 C 495.238798 392.11538 502.144787 389.241818 502.435566 390.956296 C 502.726344 392.670775 503.28367 398.442047 504.446784 398.152276 C 505.585666 397.862505 508.178441 390.400902 509.608102 390.956296 C 511.061994 391.535838 521.408862 390.956296 522.547744 390.111131 C 523.686627 389.241818 523.10507 373.714922 522.838523 372.579986 C 522.547744 371.420902 494.099916 372.290215 492.646023 373.425151 Z M 492.670255 373.425151 " stroke="#313f51" stroke-width="1.98" stroke-opacity="1" stroke-miterlimit="4"></path><path stroke-linecap="round" transform="matrix(0.161205, 0, 0, 0.161766, 4.086812, 17.94419)" fill="none" stroke-linejoin="round" d="M 507.621115 371.710673 C 508.469219 370.551589 512.200876 320.252175 509.050776 318.537696 C 505.900676 316.799071 448.108452 322.835966 447.551127 324.574592 C 446.96957 326.28907 448.690009 358.791716 448.690009 358.791716 " stroke="#313f51" stroke-width="1.98" stroke-opacity="1" stroke-miterlimit="4"></path><path stroke-linecap="round" transform="matrix(0.161205, 0, 0, 0.161766, 4.086812, 17.94419)" fill="none" stroke-linejoin="round" d="M 448.980788 378.882505 C 448.690009 380.041589 448.108452 386.947798 449.828892 387.237569 C 451.549331 387.52734 489.786702 384.62963 491.216362 384.62963 " stroke="#313f51" stroke-width="1.98" stroke-opacity="1" stroke-miterlimit="4"></path><path stroke-linecap="round" transform="matrix(0.161205, 0, 0, 0.161766, 4.086812, 17.94419)" fill="none" stroke-linejoin="round" d="M 462.186977 338.073091 C 467.348295 338.073091 498.122351 335.77907 492.088698 338.942404 C 486.030813 342.105737 460.175759 347.27332 466.500191 348.698027 C 472.824623 350.146882 490.07748 348.408256 487.193927 351.016195 C 484.334605 353.599986 456.444102 360.506195 461.048095 362.220673 C 465.652087 363.935151 492.961033 360.771818 492.088698 362.220673 C 491.216362 363.669528 478.858277 367.967798 478.858277 367.967798 " stroke="#313f51" stroke-width="1.98" stroke-opacity="1" stroke-miterlimit="4"></path><path stroke-linecap="round" transform="matrix(0.161205, 0, 0, 0.161766, 4.086812, 17.94419)" fill="none" stroke-linejoin="round" d="M 500.715126 381.490444 C 504.446784 383.204922 505.609897 380.621131 508.759998 382.045838 C 511.910098 383.470546 515.375208 383.204922 516.804869 382.335609 " stroke="#313f51" stroke-width="1.98" stroke-opacity="1" stroke-miterlimit="4"></path><path stroke-linecap="round" transform="matrix(0.161205, 0, 0, 0.161766, 4.086812, 17.94419)" fill="none" stroke-linejoin="round" d="M 446.097234 286.614593 C 452.712445 287.483905 453.560549 283.74103 457.897995 286.324822 C 462.211209 288.908613 463.059313 286.324822 466.79097 285.479656 C 470.546859 284.610343 472.848855 285.189885 472.848855 285.189885 " stroke="#313f51" stroke-width="1.98" stroke-opacity="1" stroke-miterlimit="4"></path><path stroke-linecap="round" transform="matrix(0.161205, 0, 0, 0.161766, 4.086812, 17.94419)" fill="none" stroke-linejoin="round" d="M 445.806456 294.679885 C 450.11967 297.819071 448.690009 290.93701 453.851327 293.810572 C 459.036877 296.684134 458.164541 290.647239 464.198195 292.941259 C 470.25608 295.259427 471.104184 292.651488 472.824623 292.941259 " stroke="#313f51" stroke-width="1.98" stroke-opacity="1" stroke-miterlimit="4"></path><path stroke-linecap="round" transform="matrix(0.161205, 0, 0, 0.161766, 4.086812, 17.94419)" fill="none" stroke-linejoin="round" d="M 444.086017 301.272175 C 450.11967 304.435508 448.399231 301.272175 454.142106 302.72103 C 459.909212 304.169885 462.211209 305.01505 466.209413 303.010801 C 470.231849 301.006552 472.533845 301.296323 473.40618 301.851717 " stroke="#313f51" stroke-width="1.98" stroke-opacity="1" stroke-miterlimit="4"></path><path stroke-linecap="round" transform="matrix(0.161205, 0, 0, 0.161766, 4.086812, 17.94419)" fill="none" stroke-linejoin="round" d="M 401.82621 258.16874 C 403.54665 265.920114 401.82621 271.111845 405.848646 267.948511 C 409.871082 264.785178 407.569085 257.589198 410.743417 260.462761 C 413.893517 263.336323 409.871082 268.817824 415.056631 266.209885 C 420.217949 263.626094 421.381063 257.299427 423.949607 260.17299 C 426.542381 263.046552 425.11272 269.373219 433.739149 265.074949 C 442.341346 260.752532 440.911685 257.878969 444.086017 260.752532 C 447.236117 263.650242 444.643342 268.817824 451.258552 265.654491 C 457.873763 262.491158 455.862545 253.5807 459.327655 259.038053 C 462.768534 264.495407 461.629652 268.528053 466.79097 265.654491 C 471.952288 262.780929 473.696959 257.299427 475.708177 261.332074 C 477.719395 265.36472 480.578716 266.789427 480.578716 266.789427 " stroke="#313f51" stroke-width="1.98" stroke-opacity="1" stroke-miterlimit="4"></path><path stroke-linecap="round" transform="matrix(0.161205, 0, 0, 0.161766, 4.086812, 17.94419)" fill="none" stroke-linejoin="round" d="M 439.482024 213.036909 C 433.617991 215.451667 427.705495 226.559555 438.924698 227.114949 C 450.143902 227.694491 469.383745 226.269784 475.417398 225.400471 C 481.451052 224.531158 481.74183 210.163347 473.115402 210.163347 C 464.488974 210.163347 445.806456 210.453118 439.482024 213.036909 Z M 439.482024 213.036909 " stroke="#313f51" stroke-width="1.98" stroke-opacity="1" stroke-miterlimit="4"></path><path stroke-linecap="round" transform="matrix(0.161205, 0, 0, 0.161766, 4.086812, 17.94419)" fill="none" stroke-linejoin="round" d="M 424.240385 180.55841 C 422.980345 182.128003 423.68306 198.089555 425.403499 198.958868 C 427.123938 199.828181 434.878031 198.089555 434.878031 200.117952 C 434.878031 202.122202 434.320706 210.163347 436.598471 209.02841 C 438.900467 207.869326 440.063581 199.248639 442.365577 199.248639 C 444.667574 199.248639 458.746098 200.697494 459.327655 197.24439 C 459.884981 193.791286 460.757316 182.297036 456.734881 179.978868 C 452.712445 177.684848 426.542381 177.684848 424.240385 180.55841 Z M 424.240385 180.55841 " stroke="#313f51" stroke-width="1.98" stroke-opacity="1" stroke-miterlimit="4"></path><path stroke-linecap="round" transform="matrix(0.161205, 0, 0, 0.161766, 4.086812, 17.94419)" fill="none" stroke-linejoin="round" d="M 292.323879 319.093091 C 284.860565 322.835966 281.686233 335.489299 292.614658 337.203778 C 303.518851 338.918256 316.458494 337.493549 321.934822 335.489299 C 327.386918 333.48505 328.840811 317.958155 319.923604 317.958155 C 311.006397 317.958155 295.619369 317.451055 292.323879 319.117238 Z M 292.323879 319.093091 " stroke="#313f51" stroke-width="1.98" stroke-opacity="1" stroke-miterlimit="4"></path><path stroke-linecap="round" transform="matrix(0.161205, 0, 0, 0.161766, 4.086812, 17.94419)" fill="none" stroke-linejoin="round" d="M 279.965794 312.500801 C 279.965794 314.794821 279.965794 322.546195 281.977012 321.411259 C 283.98823 320.252175 292.033101 316.219529 291.160766 315.084592 C 290.312662 313.925508 279.965794 312.500801 279.965794 312.500801 Z M 279.965794 312.500801 " stroke="#313f51" stroke-width="1.98" stroke-opacity="1" stroke-miterlimit="4"></path><path stroke-linecap="round" transform="matrix(0.161205, 0, 0, 0.161766, 4.086812, 17.94419)" fill="none" stroke-linejoin="round" d="M 422.519946 209.004263 C 421.477989 209.535509 422.519946 219.073804 425.11272 218.784033 C 427.705495 218.494262 433.44837 212.457367 431.727931 211.008512 C 430.007492 209.583805 423.101503 208.714492 422.519946 209.004263 Z M 422.519946 209.004263 " stroke="#313f51" stroke-width="1.98" stroke-opacity="1" stroke-miterlimit="4"></path><path stroke-linecap="round" transform="matrix(0.161205, 0, 0, 0.161766, 4.086812, 17.94419)" fill="none" stroke-linejoin="round" d="M 386.318024 413.3894 C 386.318024 413.3894 388.038464 426.308357 389.468125 426.018586 C 390.922017 425.752962 391.479342 419.426296 397.803775 417.422047 Z M 386.318024 413.3894 " stroke="#313f51" stroke-width="1.98" stroke-opacity="1" stroke-miterlimit="4"></path><path stroke-linecap="round" transform="matrix(0.161205, 0, 0, 0.161766, 4.086812, 17.94419)" fill="none" stroke-linejoin="round" d="M 407.01176 419.716067 C 390.34046 419.716067 393.49056 438.96169 403.280103 438.96169 C 413.045413 438.96169 427.681264 438.889247 432.309488 438.406296 C 442.947134 437.247212 442.365577 419.426296 430.29827 419.136525 C 421.041822 418.919197 407.01176 419.716067 407.01176 419.716067 Z M 407.01176 419.716067 " stroke="#313f51" stroke-width="1.98" stroke-opacity="1" stroke-miterlimit="4"></path><path stroke-linecap="round" transform="matrix(0.161205, 0, 0, 0.161766, 4.086812, 17.94419)" fill="none" stroke-linejoin="round" d="M 231.018082 209.390624 C 234.677045 210.839479 235.767464 191.859479 238.311776 197.34098 C 240.880319 202.798334 237.221357 213.399123 242.334212 212.288334 C 247.447067 211.201693 246.356647 194.056909 249.627905 199.152049 C 252.923395 204.271336 252.923395 211.950268 256.218884 209.752838 C 259.490142 207.555408 269.352379 195.505764 269.715852 199.152049 C 270.079325 202.798334 266.420363 209.752838 274.828707 209.02841 C 283.237052 208.279835 285.054417 195.867978 287.598729 198.065408 C 290.167272 200.262838 290.530745 207.555408 299.278332 206.106553 C 308.050149 204.63355 310.230988 196.978767 313.526477 200.987265 C 316.821967 205.019911 320.820171 211.201693 323.752187 205.357978 " stroke="#313f51" stroke-width="1.98" stroke-opacity="1" stroke-miterlimit="4"></path><path stroke-linecap="round" transform="matrix(0.161205, 0, 0, 0.161766, 4.086812, 17.94419)" fill="none" stroke-linejoin="round" d="M 345.294027 220.691692 C 356.246683 220.691692 375.971157 221.078054 372.312194 223.251336 C 368.653232 225.448766 336.909914 233.852125 341.998537 234.214339 C 347.111392 234.576552 375.971157 233.10355 373.03914 237.136196 C 370.131355 241.144695 344.203607 241.869122 344.203607 241.869122 " stroke="#313f51" stroke-width="1.98" stroke-opacity="1" stroke-miterlimit="4"></path><path stroke-linecap="round" transform="matrix(0.161205, 0, 0, 0.161766, 4.086812, 17.94419)" fill="none" stroke-linejoin="round" d="M 348.226043 250.634695 C 352.248479 250.272481 376.33463 252.469911 376.698103 248.461412 " stroke="#313f51" stroke-width="1.98" stroke-opacity="1" stroke-miterlimit="4"></path><path stroke-linecap="round" transform="matrix(0.161205, 0, 0, 0.161766, 4.086812, 17.94419)" fill="none" stroke-linejoin="round" d="M 298.551385 260.511056 C 292.711584 262.322125 277.373019 266.716985 284.690944 267.803626 C 291.984638 268.890267 322.661768 267.441412 316.821967 270.001056 C 310.982166 272.5607 281.758928 276.569198 285.781364 276.931412 C 289.803799 277.293626 317.912386 278.766628 316.095021 279.491056 C 314.253423 280.215483 286.50831 286.059198 289.440326 287.169987 C 292.348111 288.256628 312.799531 286.783626 311.345639 288.256628 " stroke="#313f51" stroke-width="1.98" stroke-opacity="1" stroke-miterlimit="4"></path><path stroke-linecap="round" transform="matrix(0.161205, 0, 0, 0.161766, 4.086812, 17.94419)" fill="none" stroke-linejoin="round" d="M 443.50446 220.691692 C 444.61911 223.999911 446.073003 217.407621 449.731965 220.329479 C 453.366696 223.251336 454.820589 217.769835 458.843025 219.967265 C 462.86546 222.140547 461.048095 214.847978 466.16095 218.132049 C 471.249573 221.41612 474.545063 218.856476 474.545063 218.856476 " stroke="#313f51" stroke-width="1.98" stroke-opacity="1" stroke-miterlimit="4"></path><path stroke-linecap="round" transform="matrix(0.161205, 0, 0, 0.161766, 4.086812, 17.94419)" fill="none" stroke-linejoin="round" d="M 402.60162 426.984489 C 403.328566 430.630774 405.897109 424.424845 408.829125 427.708917 C 411.73691 430.992988 413.190803 433.914845 417.940185 430.992988 C 422.689566 428.07113 424.894637 425.897848 427.438948 428.819705 C 430.007492 431.741563 433.27875 429.906347 433.27875 429.906347 " stroke="#313f51" stroke-width="1.98" stroke-opacity="1" stroke-miterlimit="4"></path><path stroke-linecap="round" transform="matrix(0.161205, 0, 0, 0.161766, 4.086812, 17.94419)" fill="none" stroke-linejoin="round" d="M 587.342883 464.220061 C 587.003641 462.843649 587.027873 437.633573 593.74001 435.218815 C 600.476378 432.804057 616.590352 431.765711 622.308996 432.441843 C 628.027639 433.142123 630.378099 434.180469 630.038857 436.957441 C 629.699615 439.710265 612.907158 436.957441 612.228675 441.110825 C 611.550192 445.240062 618.940812 450.093726 614.579134 452.170418 C 610.217457 454.24711 603.82033 451.808204 603.141847 453.909044 C 602.487596 455.985736 602.681448 463.857848 602.681448 463.857848 " stroke="#313f51" stroke-width="1.98" stroke-opacity="1" stroke-miterlimit="4"></path><path stroke-linecap="round" transform="matrix(0.161205, 0, 0, 0.161766, 4.086812, 17.94419)" fill="none" stroke-linejoin="round" d="M 634.764007 432.900647 C 629.723847 433.359451 628.875743 436.571079 632.75279 438.913395 C 635.418259 440.555431 639.368 440.289807 643.511593 439.975889 C 647.679418 439.66197 650.902213 441.666219 652.380337 443.791207 C 654.536944 446.906245 660.400977 444.080978 660.400977 444.080978 C 660.400977 444.080978 663.648003 448.669018 668.106607 445.626423 C 672.56521 442.55968 672.201737 437.971639 673.389083 431.838153 C 674.576428 425.728815 680.58585 408.29426 677.629602 408.004489 C 674.649123 407.690571 670.772076 419.812657 670.772076 419.812657 C 670.772076 419.812657 676.442257 397.30711 671.983653 397.30711 C 667.52505 397.30711 664.423413 416.963242 664.423413 416.963242 C 664.423413 416.963242 669.899741 393.926449 665.756148 393.926449 C 661.588323 393.926449 658.413991 416.118077 658.413991 416.118077 C 658.413991 416.118077 661.297544 398.828408 657.129719 399.118179 C 652.986126 399.432098 651.508002 415.949044 650.611435 421.140774 C 649.690636 426.356652 652.380337 431.862301 649.109079 433.383599 C 645.837821 434.904896 637.429477 432.659171 634.764007 432.900647 Z M 634.764007 432.900647 " stroke="#313f51" stroke-width="1.98" stroke-opacity="1" stroke-miterlimit="4"></path><path stroke-linecap="round" transform="matrix(0.161205, 0, 0, 0.161766, 4.086812, 17.94419)" fill="none" stroke-linejoin="round" d="M 670.238982 444.129273 C 672.056348 449.972988 672.419821 455.454489 673.51024 462.384845 " stroke="#313f51" stroke-width="1.98" stroke-opacity="1" stroke-miterlimit="4"></path><path stroke-linecap="round" transform="matrix(0.161205, 0, 0, 0.161766, 4.086812, 17.94419)" fill="none" stroke-linejoin="round" d="M 652.331874 444.129273 C 650.199499 448.958789 651.241455 456.178916 651.604928 462.384845 " stroke="#313f51" stroke-width="1.98" stroke-opacity="1" stroke-miterlimit="4"></path><path stroke-linecap="round" transform="matrix(0.161205, 0, 0, 0.161766, 4.086812, 17.94419)" fill="none" stroke-linejoin="round" d="M 608.085082 417.856703 C 607.74584 416.118077 607.43083 420.971741 603.723404 422.010087 C 600.015979 423.048433 597.011268 414.041385 597.350509 409.888001 C 597.689751 405.758764 599.579811 405.348255 603.723404 406.79711 C 605.734622 407.473243 607.091588 411.626627 608.424323 408.873802 C 609.757058 406.120978 607.406598 398.490342 611.114024 395.71337 C 614.82145 392.960546 622.793626 397.162225 628.173028 390.932149 C 633.55243 384.702072 638.859138 383.470546 642.081933 387.068535 C 645.740895 391.173624 649.2787 391.753166 650.417582 393.998892 C 652.4288 397.9108 652.549958 406.893701 652.549958 406.893701 " stroke="#313f51" stroke-width="1.98" stroke-opacity="1" stroke-miterlimit="4"></path><path stroke-linecap="round" transform="matrix(0.161205, 0, 0, 0.161766, 4.086812, 17.94419)" fill="none" stroke-linejoin="round" d="M 656.330078 399.069884 C 655.651595 394.21622 654.997344 385.281614 648.915227 380.548688 C 641.694228 374.970597 634.376303 373.980546 627.155304 376.177976 C 618.771191 378.761767 619.473905 386.078485 613.634104 384.991843 C 605.661927 383.470546 603.723404 385.667976 599.700969 390.52164 C 595.654301 395.351156 599.700969 405.034337 599.700969 405.034337 " stroke="#313f51" stroke-width="1.98" stroke-opacity="1" stroke-miterlimit="4"></path><path stroke-linecap="round" transform="matrix(0.161205, 0, 0, 0.161766, 4.086812, 17.94419)" fill="none" stroke-linejoin="round" d="M 631.34736 415.224617 C 631.34736 415.224617 638.398738 417.639375 638.73798 415.924896 C 639.077222 414.186271 635.394027 400.373853 635.369796 398.273014 " stroke="#313f51" stroke-width="1.98" stroke-opacity="1" stroke-miterlimit="4"></path><path stroke-linecap="round" transform="matrix(0.161205, 0, 0, 0.161766, 4.086812, 17.94419)" fill="none" stroke-linejoin="round" d="M 618.504644 399.528688 C 620.855103 401.60538 628.584965 399.528688 628.584965 399.528688 " stroke="#313f51" stroke-width="1.98" stroke-opacity="1" stroke-miterlimit="4"></path><path stroke-linecap="round" transform="matrix(0.161205, 0, 0, 0.161766, 4.086812, 17.94419)" fill="none" stroke-linejoin="round" d="M 639.99802 399.166474 C 642.03347 399.866754 646.734388 398.490342 646.734388 398.490342 " stroke="#313f51" stroke-width="1.98" stroke-opacity="1" stroke-miterlimit="4"></path><path stroke-linecap="round" transform="matrix(0.161205, 0, 0, 0.161766, 4.086812, 17.94419)" fill="none" stroke-linejoin="round" d="M 624.538297 420.609527 C 625.216781 423.724566 633.285883 428.916296 637.671792 423.048433 " stroke="#313f51" stroke-width="1.98" stroke-opacity="1" stroke-miterlimit="4"></path><path stroke-linecap="round" transform="matrix(0.161205, 0, 0, 0.161766, 4.086812, 17.94419)" fill="none" stroke-linejoin="round" d="M 608.085082 417.856703 C 608.085082 417.856703 614.991071 434.349502 633.164726 432.900647 C 637.526403 432.562581 647.509798 430.799807 650.53874 421.116627 " stroke="#313f51" stroke-width="1.98" stroke-opacity="1" stroke-miterlimit="4"></path><path stroke-linecap="round" transform="matrix(0.161205, 0, 0, 0.161766, 4.086812, 17.94419)" fill="none" stroke-linejoin="round" d="M 573.482442 464.582275 C 573.1432 458.014133 580.194579 443.791207 589.620648 441.038382 " stroke="#313f51" stroke-width="1.98" stroke-opacity="1" stroke-miterlimit="4"></path><path stroke-linecap="round" transform="matrix(0.161205, 0, 0, 0.161766, 4.086812, 17.94419)" fill="none" stroke-linejoin="round" d="M 671.692875 440.845202 C 677.896149 441.95599 682.645531 455.816703 683.372477 463.109273 " stroke="#313f51" stroke-width="1.98" stroke-opacity="1" stroke-miterlimit="4"></path><path stroke-linecap="round" transform="matrix(0.161205, 0, 0, 0.161766, 4.086812, 17.94419)" fill="none" stroke-linejoin="round" d="M 613.634104 439.75856 C 618.698496 449.272708 640.458419 450.021283 646.152831 440.193217 " stroke="#313f51" stroke-width="1.98" stroke-opacity="1" stroke-miterlimit="4"></path><path stroke-linecap="round" transform="matrix(0.161205, 0, 0, 0.161766, 4.086812, 17.94419)" fill="none" stroke-linejoin="round" d="M 612.374064 424.787059 C 612.277138 426.260062 612.277138 431.427644 612.180212 432.176219 " stroke="#313f51" stroke-width="1.98" stroke-opacity="1" stroke-miterlimit="4"></path><path stroke-linecap="round" transform="matrix(0.161205, 0, 0, 0.161766, 4.086812, 17.94419)" fill="none" stroke-linejoin="round" d="M 647.219019 433.528484 C 647.219019 432.055482 646.904009 427.419146 646.904009 427.419146 " stroke="#313f51" stroke-width="1.98" stroke-opacity="1" stroke-miterlimit="4"></path><path stroke-linecap="round" transform="matrix(0.161205, 0, 0, 0.161766, 4.086812, 17.94419)" fill="none" stroke-linejoin="round" d="M 617.97155 301.175585 C 611.84097 300.740928 607.74584 306.898562 607.74584 310.858765 C 607.74584 314.794821 610.072068 318.89991 618.674265 318.561844 C 627.276461 318.19963 628.173028 312.452506 628.173028 308.70963 C 628.173028 304.942608 625.652948 301.706832 617.97155 301.175585 Z M 617.97155 301.175585 " stroke="#313f51" stroke-width="1.98" stroke-opacity="1" stroke-miterlimit="4"></path><path stroke-linecap="round" transform="matrix(0.161205, 0, 0, 0.161766, 4.086812, 17.94419)" fill="none" stroke-linejoin="round" d="M 643.92353 300.282124 C 639.101453 300.137239 633.722051 303.5179 633.891672 307.622989 C 634.085524 311.752226 635.321333 316.943956 643.220815 316.774923 C 651.096066 316.581742 652.8892 310.689732 652.8892 307.453956 C 652.8892 304.21818 649.836026 300.451157 643.92353 300.282124 Z M 643.92353 300.282124 " stroke="#313f51" stroke-width="1.98" stroke-opacity="1" stroke-miterlimit="4"></path><path stroke-linecap="round" transform="matrix(0.161205, 0, 0, 0.161766, 4.086812, 17.94419)" fill="none" stroke-linejoin="round" d="M 628.173028 308.70963 C 628.899975 306.198282 632.29239 304.411361 633.891672 307.647137 C 633.891672 307.647137 635.466722 317.837417 635.878658 319.648485 C 636.726762 323.463803 628.924206 323.850165 628.148797 322.304719 " stroke="#313f51" stroke-width="1.98" stroke-opacity="1" stroke-miterlimit="4"></path><path stroke-linecap="round" transform="matrix(0.161205, 0, 0, 0.161766, 4.086812, 17.94419)" fill="none" stroke-linejoin="round" d="M 624.41714 329.838765 C 624.41714 329.838765 628.536502 333.605788 633.55243 329.838765 " stroke="#313f51" stroke-width="1.98" stroke-opacity="1" stroke-miterlimit="4"></path><path stroke-linecap="round" transform="matrix(0.161205, 0, 0, 0.161766, 4.086812, 17.94419)" fill="none" stroke-linejoin="round" d="M 608.06085 313.321819 C 607.697377 315.470954 612.761769 336.841564 613.827957 337.904058 C 614.894144 338.990699 624.029435 345.438103 631.395823 345.438103 C 638.73798 345.438103 646.976704 337.735025 648.042892 334.137035 C 649.109079 330.563193 648.600217 316.219529 648.600217 315.688282 " stroke="#313f51" stroke-width="1.98" stroke-opacity="1" stroke-miterlimit="4"></path><path stroke-linecap="round" transform="matrix(0.161205, 0, 0, 0.161766, 4.086812, 17.94419)" fill="none" stroke-linejoin="round" d="M 615.984564 310.134338 C 616.881131 309.965305 622.793626 309.40991 622.793626 309.40991 " stroke="#313f51" stroke-width="1.98" stroke-opacity="1" stroke-miterlimit="4"></path><path stroke-linecap="round" transform="matrix(0.161205, 0, 0, 0.161766, 4.086812, 17.94419)" fill="none" stroke-linejoin="round" d="M 639.101453 308.347417 L 645.18357 308.178384 " stroke="#313f51" stroke-width="1.98" stroke-opacity="1" stroke-miterlimit="4"></path><path stroke-linecap="round" transform="matrix(0.161205, 0, 0, 0.161766, 4.086812, 17.94419)" fill="none" stroke-linejoin="round" d="M 621.170113 301.175585 C 626.549515 298.302022 628.875743 290.260877 631.759296 290.598944 C 634.618618 290.961157 640.700735 295.452608 642.857342 300.088944 " stroke="#313f51" stroke-width="1.98" stroke-opacity="1" stroke-miterlimit="4"></path><path stroke-linecap="round" transform="matrix(0.161205, 0, 0, 0.161766, 4.086812, 17.94419)" fill="none" stroke-linejoin="round" d="M 648.042892 334.137035 C 649.109079 336.117137 655.045807 339.860012 659.698262 336.648383 C 664.350718 333.436755 666.870798 325.709528 665.247285 319.986551 C 663.623772 314.263574 660.76445 309.603091 663.623772 303.32472 C 666.507325 297.070496 663.454151 283.789325 658.268602 280.770878 C 653.05882 277.704135 647.873271 279.853269 644.117382 276.110394 C 640.918819 272.898766 632.995105 272.874618 629.069595 273.236832 C 621.170113 273.961259 615.621091 282.195585 610.241689 282.726832 C 604.886518 283.258079 594.127714 291.685585 592.698053 296.877315 C 591.268393 302.069045 595.920848 306.729529 594.297335 312.621539 C 592.698053 318.537696 590.177973 323.560394 592.698053 328.220877 C 595.193902 332.857213 597.52013 341.284719 602.002965 341.284719 C 606.4858 341.284719 612.398296 339.860012 612.93139 336.455203 " stroke="#313f51" stroke-width="1.98" stroke-opacity="1" stroke-miterlimit="4"></path><path stroke-linecap="round" transform="matrix(0.161205, 0, 0, 0.161766, 4.086812, 17.94419)" fill="none" stroke-linejoin="round" d="M 577.69873 361.182327 C 577.69873 361.182327 584.45933 341.308867 589.475259 339.328765 C 594.491187 337.372811 597.011268 337.010597 597.011268 337.010597 " stroke="#313f51" stroke-width="1.98" stroke-opacity="1" stroke-miterlimit="4"></path><path stroke-linecap="round" transform="matrix(0.161205, 0, 0, 0.161766, 4.086812, 17.94419)" fill="none" stroke-linejoin="round" d="M 659.698262 336.648383 C 665.441137 338.266271 667.040419 338.797518 669.73012 341.308867 C 672.419821 343.820215 675.618384 359.347111 675.618384 359.347111 " stroke="#313f51" stroke-width="1.98" stroke-opacity="1" stroke-miterlimit="4"></path><path stroke-linecap="round" transform="matrix(0.161205, 0, 0, 0.161766, 4.086812, 17.94419)" fill="none" stroke-linejoin="round" d="M 617.050751 340.222226 C 615.621091 345.07589 622.090912 357.970699 631.928917 357.077238 C 641.791154 356.15963 642.324248 343.095788 642.493869 341.139834 " stroke="#313f51" stroke-width="1.98" stroke-opacity="1" stroke-miterlimit="4"></path><path stroke-linecap="round" transform="matrix(0.161205, 0, 0, 0.161766, 4.086812, 17.94419)" fill="none" stroke-linejoin="round" d="M 389.298504 540.816193 C 389.298504 540.816193 516.707943 539.777847 523.759321 539.777847 " stroke="#f5f5f5" stroke-width="1.58" stroke-opacity="1" stroke-miterlimit="4"></path><path stroke-linecap="round" transform="matrix(0.161205, 0, 0, 0.161766, 4.086812, 17.94419)" fill="none" stroke-linejoin="round" d="M 345.221332 629.775886 C 348.056422 629.558558 560.882041 629.123902 566.116054 629.34123 " stroke="#f5f5f5" stroke-width="1.58" stroke-opacity="1" stroke-miterlimit="4"></path><path stroke-linecap="round" transform="matrix(0.161205, 0, 0, 0.161766, 4.086812, 17.94419)" fill="none" stroke-linejoin="round" d="M 427.729727 186.619454 C 428.771683 190.145001 430.031723 194.757189 433.206055 192.439021 C 436.380387 190.145001 435.16881 184.494466 437.810048 186.088207 C 440.451286 187.681947 437.470806 192.439021 441.711326 191.400675 C 445.951845 190.338181 445.588372 185.725993 447.720748 188.020013 C 449.853123 190.338181 451.428173 193.694695 453.390928 192.632202 " stroke="#313f51" stroke-width="1.98" stroke-opacity="1" stroke-miterlimit="4"></path><path stroke-linecap="round" transform="matrix(0.161205, 0, 0, 0.161766, 4.086812, 17.94419)" fill="none" stroke-linejoin="round" d="M 290.869987 330.514897 C 293.462762 330.68393 292.420806 322.208129 295.183201 323.415508 C 297.969828 324.622887 296.927872 330.852964 299.690268 329.476551 C 302.476895 328.100139 304.391187 322.377162 304.900049 325.323167 C 305.408911 328.269172 305.942005 333.629936 308.704401 331.38421 C 311.491028 329.138485 314.083803 324.622887 311.321407 324.622887 C 308.53478 324.622887 307.832065 331.553243 316.87043 331.215177 " stroke="#313f51" stroke-width="1.98" stroke-opacity="1" stroke-miterlimit="4"></path></svg>