<svg xmlns="http://www.w3.org/2000/svg" xmlns:xlink="http://www.w3.org/1999/xlink" width="200" viewBox="0 0 150 149.999998" height="200" preserveAspectRatio="xMidYMid meet"><path fill="#f29caa" d="M 4.9375 77.125 C 2.261719 89.921875 6.835938 103.605469 15.3125 113.53125 C 23.792969 123.453125 35.796875 129.875 48.335938 133.398438 C 72.023438 140.058594 98.84375 136.425781 118.710938 121.867188 C 155.179688 95.144531 158.753906 25.957031 108.570312 10.710938 C 88.738281 4.683594 69.21875 19.378906 53.273438 29.246094 C 34.675781 40.761719 9.863281 53.589844 4.9375 77.125 " fill-opacity="1" fill-rule="nonzero"></path><path fill="#ffffff" d="M 11.246094 77.289062 C 8.789062 88.972656 12.980469 101.46875 20.753906 110.53125 C 28.527344 119.589844 39.53125 125.453125 51.027344 128.671875 C 72.738281 134.75 97.324219 131.4375 115.535156 118.144531 C 148.964844 93.742188 152.242188 30.574219 106.238281 16.652344 C 88.058594 11.148438 70.167969 24.566406 55.554688 33.578125 C 38.503906 44.089844 15.757812 55.804688 11.246094 77.289062 " fill-opacity="1" fill-rule="nonzero"></path><path fill="#f29caa" d="M 68.375 80.203125 C 68.160156 80.304688 70.820312 74.425781 70.5 74.5 C 70.183594 74.574219 68.304688 74.742188 68.238281 74.515625 C 68.171875 74.292969 71.542969 66.992188 71.863281 66.917969 C 72.179688 66.84375 75.527344 66.542969 75.375 66.929688 C 75.222656 67.3125 71.515625 72.878906 71.796875 72.945312 C 72.078125 73.011719 73.886719 72.527344 73.746094 73.050781 C 73.609375 73.574219 68.863281 79.972656 68.375 80.203125 Z M 68.375 80.203125 " fill-opacity="1" fill-rule="nonzero"></path><path fill="#f29caa" d="M 92.957031 67.613281 C 91.78125 67.488281 90.742188 68.019531 90.527344 69.246094 C 90.3125 70.46875 91.246094 70.890625 91.414062 70.898438 C 91.578125 70.90625 91.066406 72.171875 91.265625 72.324219 C 91.265625 72.324219 91.601562 72.554688 92.050781 72.625 C 92.496094 72.695312 92.671875 72.6875 92.820312 72.636719 C 92.867188 72.621094 92.894531 72.597656 92.902344 72.570312 C 92.960938 72.371094 93.066406 71.292969 93.253906 71.304688 C 93.75 71.335938 94.789062 71.15625 95.054688 69.773438 C 95.242188 68.792969 94.132812 67.738281 92.957031 67.613281 Z M 92.957031 67.613281 " fill-opacity="1" fill-rule="nonzero"></path><path fill="#f29caa" d="M 83.925781 67.261719 C 85.101562 67.375 86.011719 68.105469 85.980469 69.347656 C 85.949219 70.589844 84.949219 70.8125 84.785156 70.789062 C 84.621094 70.765625 84.871094 72.109375 84.644531 72.214844 C 84.644531 72.214844 84.273438 72.375 83.816406 72.355469 C 83.367188 72.332031 83.195312 72.292969 83.058594 72.214844 C 83.019531 72.1875 82.996094 72.160156 82.992188 72.132812 C 82.976562 71.925781 83.085938 70.847656 82.902344 70.824219 C 82.410156 70.753906 81.425781 70.371094 81.4375 68.960938 C 81.449219 67.964844 82.746094 67.148438 83.925781 67.261719 Z M 83.925781 67.261719 " fill-opacity="1" fill-rule="nonzero"></path><path fill="#f29caa" d="M 87.898438 74.152344 C 89.074219 74.292969 89.96875 75.039062 89.910156 76.28125 C 89.851562 77.523438 88.847656 77.726562 88.683594 77.695312 C 88.519531 77.667969 88.738281 79.019531 88.511719 79.121094 C 88.511719 79.121094 88.132812 79.269531 87.679688 79.242188 C 87.230469 79.210938 87.058594 79.164062 86.925781 79.085938 C 86.886719 79.058594 86.859375 79.03125 86.859375 79 C 86.847656 78.792969 86.984375 77.71875 86.796875 77.691406 C 86.308594 77.613281 85.332031 77.203125 85.378906 75.796875 C 85.410156 74.800781 86.726562 74.011719 87.898438 74.152344 Z M 87.898438 74.152344 " fill-opacity="1" fill-rule="nonzero"></path><path fill="#f29caa" d="M 84.097656 85.0625 C 84.214844 84.964844 85.042969 85.46875 85.292969 85.523438 C 85.542969 85.582031 86.3125 84.808594 86.371094 84.695312 C 86.429688 84.578125 85.964844 83.4375 86.003906 83.34375 C 86.042969 83.246094 87.46875 82.976562 87.621094 82.976562 C 87.777344 82.976562 87.894531 84.152344 88.027344 84.328125 C 88.164062 84.5 89.085938 84.480469 89.144531 84.367188 C 89.203125 84.25 89.992188 82.976562 90.167969 82.957031 C 90.339844 82.9375 91.785156 83.902344 91.863281 83.921875 C 91.9375 83.941406 91.574219 84.945312 91.476562 85.082031 C 91.378906 85.214844 91.785156 85.699219 91.824219 85.871094 C 91.863281 86.046875 92.996094 85.699219 93.25 85.699219 C 93.5 85.699219 93.597656 87.128906 93.578125 87.457031 C 93.558594 87.78125 93.132812 87.570312 92.902344 87.648438 C 92.671875 87.726562 92.789062 88.941406 92.824219 89.269531 C 92.863281 89.601562 93.558594 89.675781 93.652344 89.753906 C 93.75 89.832031 93.324219 91.261719 93.152344 91.375 C 92.980469 91.492188 92.132812 90.988281 91.726562 90.855469 C 91.320312 90.71875 90.996094 91.570312 90.898438 91.609375 C 90.800781 91.644531 91.359375 92.804688 91.359375 92.941406 C 91.359375 93.074219 89.625 93.460938 89.300781 93.460938 C 88.972656 93.460938 88.914062 92.246094 88.742188 92.070312 C 88.566406 91.898438 88.355469 91.878906 88.105469 91.859375 C 87.855469 91.839844 87.335938 93.152344 87.082031 93.269531 C 86.832031 93.382812 85.984375 92.691406 85.753906 92.363281 C 85.523438 92.035156 86.023438 91.550781 86.082031 91.398438 C 86.140625 91.242188 85.601562 90.816406 85.367188 90.585938 C 85.136719 90.351562 84.519531 90.855469 84.097656 90.605469 C 83.675781 90.355469 83.523438 89.222656 83.523438 88.914062 C 83.523438 88.605469 84.347656 88.460938 84.445312 88.386719 C 84.542969 88.308594 84.425781 87.246094 84.386719 87.148438 C 84.347656 87.050781 83.542969 86.886719 83.519531 86.667969 C 83.5 86.492188 83.980469 85.160156 84.097656 85.0625 Z M 88.703125 85.261719 C 86.640625 85.289062 85.679688 87.125 85.699219 88.457031 C 85.71875 89.789062 86.484375 91.144531 88.855469 91.140625 C 90.777344 91.136719 91.960938 88.972656 91.457031 87.101562 C 91.199219 86.144531 90.167969 85.242188 88.703125 85.261719 Z M 88.703125 85.261719 " fill-opacity="1" fill-rule="nonzero"></path><path fill="#f29caa" d="M 70.21875 85.75 C 70.203125 85.882812 70.269531 89.101562 70.367188 89.117188 C 70.464844 89.132812 73.121094 89.152344 73.21875 89.101562 C 73.316406 89.054688 74.625 88.496094 74.671875 88.367188 C 74.722656 88.234375 74.703125 85.097656 74.574219 85.046875 C 74.445312 85 72.257812 84.917969 72.144531 84.949219 C 72.03125 84.980469 70.21875 85.75 70.21875 85.75 Z M 70.21875 85.75 " fill-opacity="1" fill-rule="nonzero"></path><path fill="#f29caa" d="M 79.023438 36.601562 C 78.777344 36.59375 73.855469 44.28125 73.953125 44.511719 C 74.011719 44.648438 83.726562 44.734375 83.882812 44.519531 C 84.042969 44.304688 79.359375 36.617188 79.023438 36.601562 Z M 79.023438 36.601562 " fill-opacity="1" fill-rule="nonzero"></path><path fill="#f29caa" d="M 118.890625 62.984375 C 114.230469 62.792969 113.1875 70.160156 118.546875 69.996094 C 123.421875 69.84375 123.109375 63.15625 118.890625 62.984375 Z M 118.890625 62.984375 " fill-opacity="1" fill-rule="nonzero"></path><path fill="#f29caa" d="M 40.667969 63.304688 C 40.324219 63.296875 37.101562 65.429688 36.890625 65.726562 C 36.730469 65.953125 36.644531 69.015625 36.679688 69.210938 C 36.753906 69.644531 40.003906 71.808594 40.390625 71.84375 C 40.804688 71.878906 43.773438 69.832031 43.972656 69.566406 C 44.179688 69.292969 44.226562 65.933594 44.152344 65.855469 C 43.925781 65.617188 41.089844 63.316406 40.667969 63.304688 Z M 40.667969 63.304688 " fill-opacity="1" fill-rule="nonzero"></path><path fill="#f29caa" d="M 54.875 101.496094 C 54.652344 101.492188 50.484375 107.820312 50.511719 108.023438 C 50.539062 108.199219 54.050781 114.65625 54.3125 114.664062 C 54.574219 114.671875 58.621094 108.367188 58.628906 108.132812 C 58.636719 107.84375 55.148438 101.503906 54.875 101.496094 Z M 54.875 101.496094 " fill-opacity="1" fill-rule="nonzero"></path><path fill="#f29caa" d="M 105.90625 101.953125 C 105.90625 101.953125 105.78125 108.941406 105.824219 109.011719 C 105.992188 109.28125 112.890625 109.070312 112.980469 108.996094 C 113.152344 108.859375 113.175781 102.121094 113.015625 102.019531 C 112.835938 101.90625 106.117188 101.675781 105.90625 101.949219 Z M 105.90625 101.953125 " fill-opacity="1" fill-rule="nonzero"></path><path stroke-linecap="round" transform="matrix(0.116319, 0, 0, 0.116601, 15.004661, 23.50421)" fill="none" stroke-linejoin="round" d="M 1034.1537 341.974132 C 1029.653701 337.518519 991.2358 315.407954 935.187306 299.796555 C 888.642542 286.831724 852.508222 271.722838 747.194816 292.325864 C 728.422432 295.977458 710.388855 301.404596 693.295575 307.970764 C 695.713485 292.962381 696.75453 280.165054 696.620201 270.952319 C 695.377664 187.736193 658.269464 151.454767 631.235889 118.389422 C 614.512013 97.920399 566.086651 56.982354 562.661279 55.139807 C 559.202325 53.330761 555.306803 51.119704 547.885163 53.665769 C 541.504568 55.843325 515.679947 80.968966 475.448614 117.216892 C 437.030713 151.856777 399.150126 182.175051 391.594157 255.206916 C 389.915053 271.354329 390.855351 287.46824 393.172515 303.180142 C 376.885206 296.47997 362.679985 291.555345 352.202376 288.741273 C 257.467325 263.213621 196.818086 292.52687 157.325558 304.989188 C 129.620341 313.69941 84.519606 336.312488 81.430055 338.456543 C 78.306921 340.634098 74.680057 343.04616 75.318116 349.746331 C 75.889011 355.541979 83.61289 370.985873 119.982284 409.947368 C 156.351678 448.875363 184.762119 486.563825 285.004631 521.940729 C 302.903881 528.238889 321.374025 532.795006 339.877752 535.944086 C 327.4188 546.798363 317.545668 556.580613 311.232237 564.051304 C 253.941206 631.488526 261.832995 677.987714 260.691205 717.853732 C 259.952399 742.543863 264.418816 794.269184 265.930009 797.451765 C 267.474785 800.600845 269.120307 804.28594 276.91135 805.893981 C 283.661348 807.301017 321.105369 807.770029 376.95237 793.934175 C 431.590416 780.39983 479.444882 761.572349 549.59785 692.895595 C 562.123966 680.634282 572.83665 667.334442 581.937394 653.56559 C 590.500824 666.965933 608.970969 685.558907 616.325445 692.225578 C 688.123935 757.183737 713.008257 766.798482 757.873917 780.43333 C 785.679881 788.875546 844.280612 798.05478 848.310462 797.853775 C 852.373894 797.65277 857.041803 797.518767 861.205981 791.79012 C 864.799264 786.865495 870.172397 769.009539 872.15374 719.763281 C 873.93359 676.178668 881.455976 642.309303 824.567931 564.453314 C 814.426142 550.58396 802.538085 537.820134 789.676148 526.161836 C 807.441069 523.582271 822.317931 520.600694 832.694794 517.719621 C 926.657458 491.789959 954.026854 456.111547 982.907444 424.654244 C 1000.806693 405.190247 1036.235789 357.451528 1037.209669 354.168444 C 1038.18355 350.88536 1039.426087 347.099763 1034.187282 341.974132 Z M 1034.1537 341.974132 " stroke="#313f51" stroke-width="1.98" stroke-opacity="1" stroke-miterlimit="4"></path><path stroke-linecap="round" transform="matrix(0.116319, 0, 0, 0.116601, 15.004661, 23.50421)" fill="none" stroke-linejoin="round" d="M 550.370237 112.325767 C 548.254566 112.258766 505.941144 178.188449 506.780696 180.165 C 507.284427 181.33753 590.803063 182.074549 592.146346 180.232002 C 593.523212 178.389455 553.258296 112.459771 550.370237 112.325767 Z M 550.370237 112.325767 " stroke="#313f51" stroke-width="1.98" stroke-opacity="1" stroke-miterlimit="4"></path><path stroke-linecap="round" transform="matrix(0.116319, 0, 0, 0.116601, 15.004661, 23.50421)" fill="none" stroke-linejoin="round" d="M 893.108959 338.590546 C 853.045536 336.949004 844.07912 400.131618 890.153735 398.724582 C 932.064173 397.418048 929.377606 340.064584 893.108959 338.590546 Z M 893.108959 338.590546 " stroke="#313f51" stroke-width="1.98" stroke-opacity="1" stroke-miterlimit="4"></path><path stroke-linecap="round" transform="matrix(0.116319, 0, 0, 0.116601, 15.004661, 23.50421)" fill="none" stroke-linejoin="round" d="M 220.627782 341.337616 C 217.672558 341.270614 189.967341 359.562082 188.153909 362.108147 C 186.777044 364.051196 186.038238 390.315867 186.340477 391.99091 C 186.978536 395.709505 214.918828 414.268979 218.243454 414.570486 C 221.803154 414.871994 247.325536 397.317546 249.038222 395.039488 C 250.818073 392.694428 251.221058 363.883692 250.582998 363.213675 C 248.635237 361.170123 224.254646 341.438119 220.627782 341.337616 Z M 220.627782 341.337616 " stroke="#313f51" stroke-width="1.98" stroke-opacity="1" stroke-miterlimit="4"></path><path stroke-linecap="round" transform="matrix(0.116319, 0, 0, 0.116601, 15.004661, 23.50421)" fill="none" stroke-linejoin="round" d="M 342.765811 668.875481 C 340.851632 668.84198 305.019552 723.113366 305.254626 724.855411 C 305.489701 726.362949 335.679992 781.739864 337.929991 781.806865 C 340.179991 781.873867 374.971027 727.803486 375.038191 725.793435 C 375.105355 723.314372 345.116557 668.942483 342.765811 668.875481 Z M 342.765811 668.875481 " stroke="#313f51" stroke-width="1.98" stroke-opacity="1" stroke-miterlimit="4"></path><path stroke-linecap="round" transform="matrix(0.116319, 0, 0, 0.116601, 15.004661, 23.50421)" fill="none" stroke-linejoin="round" d="M 781.482121 672.795081 C 781.482121 672.795081 780.407494 732.728112 780.776897 733.331127 C 782.220926 735.642686 841.526882 733.83364 842.29927 733.197124 C 843.776881 732.024594 843.978374 674.235618 842.601508 673.364596 C 841.056733 672.393071 783.295553 670.416521 781.482121 672.761581 Z M 781.482121 672.795081 " stroke="#313f51" stroke-width="1.98" stroke-opacity="1" stroke-miterlimit="4"></path><path stroke-linecap="round" transform="matrix(0.116319, 0, 0, 0.116601, 15.004661, 23.50421)" fill="none" stroke-linejoin="round" d="M 405.933706 365.491733 C 405.161318 368.272304 402.60908 618.858704 405.362811 621.43827 C 408.116541 624.051336 699.273186 623.41482 701.456021 620.768253 C 704.209752 617.485169 704.209752 366.128249 701.993334 361.538632 C 700.650051 358.691059 407.041915 361.538632 405.933706 365.491733 Z M 405.933706 365.491733 " stroke="#313f51" stroke-width="1.98" stroke-opacity="1" stroke-miterlimit="4"></path><path stroke-linecap="round" transform="matrix(0.116319, 0, 0, 0.116601, 15.004661, 23.50421)" fill="none" stroke-linejoin="round" d="M 458.825484 486.262317 C 456.978469 487.13334 479.847867 436.714552 477.094136 437.351068 C 474.373988 437.987585 458.221006 439.428121 457.650111 437.485072 C 457.079216 435.575523 486.060552 372.962424 488.814282 372.325908 C 491.534431 371.689391 520.314275 369.109825 519.004573 372.42641 C 517.694872 375.709494 485.825477 423.448213 488.243387 424.017728 C 490.661297 424.587242 506.209801 420.433136 505.000846 424.922251 C 503.825473 429.411365 463.023244 484.285767 458.825484 486.262317 Z M 458.825484 486.262317 " stroke="#313f51" stroke-width="1.98" stroke-opacity="1" stroke-miterlimit="4"></path><path stroke-linecap="round" transform="matrix(0.116319, 0, 0, 0.116601, 15.004661, 23.50421)" fill="none" stroke-linejoin="round" d="M 655.61648 418.691092 C 653.903794 417.384558 658.336629 406.530281 656.892599 406.463279 C 655.44857 406.396278 647.422452 402.811686 649.269467 392.292417 C 651.116481 381.80665 660.049315 377.217032 670.157521 378.28906 C 680.265728 379.327586 689.803039 388.406318 688.191099 396.815033 C 685.907517 408.674336 676.941102 410.215375 672.676177 409.947368 C 671.064237 409.846866 670.157521 419.059601 669.687372 420.801646 C 669.183641 422.510189 659.747076 421.73967 655.61648 418.657591 Z M 655.61648 418.691092 " stroke="#313f51" stroke-width="1.98" stroke-opacity="1" stroke-miterlimit="4"></path><path stroke-linecap="round" transform="matrix(0.116319, 0, 0, 0.116601, 15.004661, 23.50421)" fill="none" stroke-linejoin="round" d="M 660.351553 420.734644 C 660.687374 419.39461 663.978418 404.654233 663.978418 402.141669 C 663.944836 395.441498 662.567971 391.789905 663.776926 390.885382 C 664.985881 389.947358 676.974684 391.454896 676.773191 392.861932 C 676.605281 394.268968 669.788118 399.05959 667.672447 407.401303 C 665.556776 415.743016 664.414985 421.538664 664.414985 421.538664 " stroke="#313f51" stroke-width="1.98" stroke-opacity="1" stroke-miterlimit="4"></path><path stroke-linecap="round" transform="matrix(0.116319, 0, 0, 0.116601, 15.004661, 23.50421)" fill="none" stroke-linejoin="round" d="M 646.616482 405.123245 C 646.079169 405.022743 638.489619 407.535307 638.489619 407.535307 " stroke="#313f51" stroke-width="1.98" stroke-opacity="1" stroke-miterlimit="4"></path><path stroke-linecap="round" transform="matrix(0.116319, 0, 0, 0.116601, 15.004661, 23.50421)" fill="none" stroke-linejoin="round" d="M 646.448572 386.429768 C 644.702304 385.558746 636.877679 382.007655 636.877679 382.007655 " stroke="#313f51" stroke-width="1.98" stroke-opacity="1" stroke-miterlimit="4"></path><path stroke-linecap="round" transform="matrix(0.116319, 0, 0, 0.116601, 15.004661, 23.50421)" fill="none" stroke-linejoin="round" d="M 657.564241 375.17348 C 656.489614 371.890396 654.81051 369.042824 654.81051 369.042824 " stroke="#313f51" stroke-width="1.98" stroke-opacity="1" stroke-miterlimit="4"></path><path stroke-linecap="round" transform="matrix(0.116319, 0, 0, 0.116601, 15.004661, 23.50421)" fill="none" stroke-linejoin="round" d="M 682.179906 377.753046 L 686.176174 372.761419 " stroke="#313f51" stroke-width="1.98" stroke-opacity="1" stroke-miterlimit="4"></path><path stroke-linecap="round" transform="matrix(0.116319, 0, 0, 0.116601, 15.004661, 23.50421)" fill="none" stroke-linejoin="round" d="M 691.985874 391.052886 L 698.400052 388.908831 " stroke="#313f51" stroke-width="1.98" stroke-opacity="1" stroke-miterlimit="4"></path><path stroke-linecap="round" transform="matrix(0.116319, 0, 0, 0.116601, 15.004661, 23.50421)" fill="none" stroke-linejoin="round" d="M 689.601546 404.821737 L 696.956022 406.664285 " stroke="#313f51" stroke-width="1.98" stroke-opacity="1" stroke-miterlimit="4"></path><path stroke-linecap="round" transform="matrix(0.116319, 0, 0, 0.116601, 15.004661, 23.50421)" fill="none" stroke-linejoin="round" d="M 680.735877 412.191926 C 682.381399 414.067974 686.243338 419.0261 686.243338 419.0261 " stroke="#313f51" stroke-width="1.98" stroke-opacity="1" stroke-miterlimit="4"></path><path stroke-linecap="round" transform="matrix(0.116319, 0, 0, 0.116601, 15.004661, 23.50421)" fill="none" stroke-linejoin="round" d="M 655.045585 422.108179 C 655.650062 423.850223 666.866477 426.295786 668.444835 424.687745 " stroke="#313f51" stroke-width="1.98" stroke-opacity="1" stroke-miterlimit="4"></path><path stroke-linecap="round" transform="matrix(0.116319, 0, 0, 0.116601, 15.004661, 23.50421)" fill="none" stroke-linejoin="round" d="M 654.575435 425.793273 C 656.623942 428.305837 666.295582 429.411365 667.638865 428.104832 " stroke="#313f51" stroke-width="1.98" stroke-opacity="1" stroke-miterlimit="4"></path><path stroke-linecap="round" transform="matrix(0.116319, 0, 0, 0.116601, 15.004661, 23.50421)" fill="none" stroke-linejoin="round" d="M 655.61648 418.691092 C 655.213495 420.667642 653.567973 428.339338 654.038122 428.975854 C 655.61648 431.119909 664.81797 432.895454 666.933641 431.488419 C 667.370208 431.15341 668.814238 422.275683 668.982148 421.37116 " stroke="#313f51" stroke-width="1.98" stroke-opacity="1" stroke-miterlimit="4"></path><path stroke-linecap="round" transform="matrix(0.116319, 0, 0, 0.116601, 15.004661, 23.50421)" fill="none" stroke-linejoin="round" d="M 654.676182 429.880377 C 654.575435 431.722925 654.676182 433.12996 656.25454 433.397967 C 657.832897 433.632473 658.84036 431.55542 658.84036 431.55542 " stroke="#313f51" stroke-width="1.98" stroke-opacity="1" stroke-miterlimit="4"></path><path stroke-linecap="round" transform="matrix(0.116319, 0, 0, 0.116601, 15.004661, 23.50421)" fill="none" stroke-linejoin="round" d="M 661.191105 432.091434 C 660.855285 434.067984 661.526926 435.106511 662.937374 435.106511 C 664.549314 435.106511 665.220955 432.426442 665.220955 432.426442 " stroke="#313f51" stroke-width="1.98" stroke-opacity="1" stroke-miterlimit="4"></path><path stroke-linecap="round" transform="matrix(0.116319, 0, 0, 0.116601, 15.004661, 23.50421)" fill="none" stroke-linejoin="round" d="M 598.694852 417.753068 C 600.642613 416.848545 598.49336 405.32425 599.903807 405.525255 C 601.314255 405.726261 609.877685 403.816712 610.179924 393.16344 C 610.448581 382.510168 602.590374 376.245508 592.482167 375.273983 C 582.373961 374.302458 571.22471 381.304137 571.123964 389.846855 C 570.989635 401.940664 579.485902 405.223748 583.683662 405.826763 C 585.295602 406.027768 584.355304 415.240504 584.489632 417.016049 C 584.62396 418.825095 593.993361 419.930623 598.694852 417.753068 Z M 598.694852 417.753068 " stroke="#313f51" stroke-width="1.98" stroke-opacity="1" stroke-miterlimit="4"></path><path stroke-linecap="round" transform="matrix(0.116319, 0, 0, 0.116601, 15.004661, 23.50421)" fill="none" stroke-linejoin="round" d="M 593.65754 418.825095 C 593.556794 417.45156 593.288137 402.342674 593.791868 399.863611 C 595.168734 393.330944 597.217241 390.014359 596.24336 388.87533 C 595.26948 387.736301 583.213513 386.831778 583.112767 388.238814 C 583.01202 389.64585 588.720974 395.709505 589.123959 404.319225 C 589.560526 412.895444 589.526944 418.791594 589.526944 418.791594 " stroke="#313f51" stroke-width="1.98" stroke-opacity="1" stroke-miterlimit="4"></path><path stroke-linecap="round" transform="matrix(0.116319, 0, 0, 0.116601, 15.004661, 23.50421)" fill="none" stroke-linejoin="round" d="M 609.273208 405.659259 C 609.810521 405.69276 616.72843 409.645861 616.72843 409.645861 " stroke="#313f51" stroke-width="1.98" stroke-opacity="1" stroke-miterlimit="4"></path><path stroke-linecap="round" transform="matrix(0.116319, 0, 0, 0.116601, 15.004661, 23.50421)" fill="none" stroke-linejoin="round" d="M 613.974699 391.253891 C 615.855296 390.717877 624.250816 388.841829 624.250816 388.841829 " stroke="#313f51" stroke-width="1.98" stroke-opacity="1" stroke-miterlimit="4"></path><path stroke-linecap="round" transform="matrix(0.116319, 0, 0, 0.116601, 15.004661, 23.50421)" fill="none" stroke-linejoin="round" d="M 607.023208 373.531938 C 608.735895 370.516861 610.952312 368.037798 610.952312 368.037798 " stroke="#313f51" stroke-width="1.98" stroke-opacity="1" stroke-miterlimit="4"></path><path stroke-linecap="round" transform="matrix(0.116319, 0, 0, 0.116601, 15.004661, 23.50421)" fill="none" stroke-linejoin="round" d="M 580.627693 371.119877 L 577.135156 365.022721 " stroke="#313f51" stroke-width="1.98" stroke-opacity="1" stroke-miterlimit="4"></path><path stroke-linecap="round" transform="matrix(0.116319, 0, 0, 0.116601, 15.004661, 23.50421)" fill="none" stroke-linejoin="round" d="M 568.202323 382.141658 L 560.847847 379.46159 " stroke="#313f51" stroke-width="1.98" stroke-opacity="1" stroke-miterlimit="4"></path><path stroke-linecap="round" transform="matrix(0.116319, 0, 0, 0.116601, 15.004661, 23.50421)" fill="none" stroke-linejoin="round" d="M 566.556801 397.753057 L 558.96725 398.088066 " stroke="#313f51" stroke-width="1.98" stroke-opacity="1" stroke-miterlimit="4"></path><path stroke-linecap="round" transform="matrix(0.116319, 0, 0, 0.116601, 15.004661, 23.50421)" fill="none" stroke-linejoin="round" d="M 575.456052 408.205324 C 573.474709 409.712862 568.706054 413.799967 568.706054 413.799967 " stroke="#313f51" stroke-width="1.98" stroke-opacity="1" stroke-miterlimit="4"></path><path stroke-linecap="round" transform="matrix(0.116319, 0, 0, 0.116601, 15.004661, 23.50421)" fill="none" stroke-linejoin="round" d="M 598.560524 421.237157 C 597.620226 422.845198 586.135154 422.979201 584.926199 421.103153 " stroke="#313f51" stroke-width="1.98" stroke-opacity="1" stroke-miterlimit="4"></path><path stroke-linecap="round" transform="matrix(0.116319, 0, 0, 0.116601, 15.004661, 23.50421)" fill="none" stroke-linejoin="round" d="M 598.325449 424.922251 C 595.773211 426.965803 586.06799 426.161783 585.026945 424.587242 " stroke="#313f51" stroke-width="1.98" stroke-opacity="1" stroke-miterlimit="4"></path><path stroke-linecap="round" transform="matrix(0.116319, 0, 0, 0.116601, 15.004661, 23.50421)" fill="none" stroke-linejoin="round" d="M 598.694852 417.753068 C 598.694852 419.79662 598.795599 427.63582 598.224703 428.171834 C 596.24336 429.947379 586.840378 429.880377 585.094109 428.071331 C 584.691124 427.669321 585.026945 418.657591 585.060527 417.753068 " stroke="#313f51" stroke-width="1.98" stroke-opacity="1" stroke-miterlimit="4"></path><path stroke-linecap="round" transform="matrix(0.116319, 0, 0, 0.116601, 15.004661, 23.50421)" fill="none" stroke-linejoin="round" d="M 597.418733 428.942354 C 597.116494 430.7514 596.747092 432.124935 595.168734 432.057933 C 593.556794 431.990931 592.985898 429.746374 592.985898 429.746374 " stroke="#313f51" stroke-width="1.98" stroke-opacity="1" stroke-miterlimit="4"></path><path stroke-linecap="round" transform="matrix(0.116319, 0, 0, 0.116601, 15.004661, 23.50421)" fill="none" stroke-linejoin="round" d="M 590.567989 429.779875 C 590.500824 431.823427 589.62769 432.660948 588.250825 432.392942 C 586.672467 432.057933 586.571721 429.310863 586.571721 429.310863 " stroke="#313f51" stroke-width="1.98" stroke-opacity="1" stroke-miterlimit="4"></path><path stroke-linecap="round" transform="matrix(0.116319, 0, 0, 0.116601, 15.004661, 23.50421)" fill="none" stroke-linejoin="round" d="M 631.941113 476.98258 C 633.888873 476.111558 632.008277 464.520262 633.418724 464.754768 C 634.829172 465.022775 643.459767 463.28073 643.963498 452.627458 C 644.467229 441.974186 636.776932 435.575523 626.702308 434.369492 C 616.594102 433.163461 605.310522 439.930634 605.008284 448.473352 C 604.605299 460.53366 613.000819 464.017749 617.232161 464.721267 C 618.810519 464.955773 617.668728 474.168509 617.735892 475.944054 C 617.836639 477.7531 627.206039 479.059633 631.941113 476.98258 Z M 631.941113 476.98258 " stroke="#313f51" stroke-width="1.98" stroke-opacity="1" stroke-miterlimit="4"></path><path stroke-linecap="round" transform="matrix(0.116319, 0, 0, 0.116601, 15.004661, 23.50421)" fill="none" stroke-linejoin="round" d="M 626.870218 477.920604 C 626.836636 476.547069 626.870218 461.438183 627.441114 458.992621 C 628.952307 452.459954 631.101561 449.210371 630.12768 448.037841 C 629.1538 446.865311 617.131415 445.692781 616.997087 447.133318 C 616.862758 448.540354 622.437384 454.704511 622.672458 463.314231 C 622.907533 471.923951 622.739622 477.820102 622.739622 477.820102 " stroke="#313f51" stroke-width="1.98" stroke-opacity="1" stroke-miterlimit="4"></path><path stroke-linecap="round" transform="matrix(0.116319, 0, 0, 0.116601, 15.004661, 23.50421)" fill="none" stroke-linejoin="round" d="M 642.788125 465.123278 C 643.325438 465.156778 650.176183 469.243883 650.176183 469.243883 " stroke="#313f51" stroke-width="1.98" stroke-opacity="1" stroke-miterlimit="4"></path><path stroke-linecap="round" transform="matrix(0.116319, 0, 0, 0.116601, 15.004661, 23.50421)" fill="none" stroke-linejoin="round" d="M 647.791855 450.784911 C 649.706034 450.315899 658.135136 448.607356 658.135136 448.607356 " stroke="#313f51" stroke-width="1.98" stroke-opacity="1" stroke-miterlimit="4"></path><path stroke-linecap="round" transform="matrix(0.116319, 0, 0, 0.116601, 15.004661, 23.50421)" fill="none" stroke-linejoin="round" d="M 640.370215 435.006008 C 642.116483 432.024432 644.400065 429.612371 644.400065 429.612371 " stroke="#313f51" stroke-width="1.98" stroke-opacity="1" stroke-miterlimit="4"></path><path stroke-linecap="round" transform="matrix(0.116319, 0, 0, 0.116601, 15.004661, 23.50421)" fill="none" stroke-linejoin="round" d="M 617.265743 430.081383 L 613.907535 423.883724 " stroke="#313f51" stroke-width="1.98" stroke-opacity="1" stroke-miterlimit="4"></path><path stroke-linecap="round" transform="matrix(0.116319, 0, 0, 0.116601, 15.004661, 23.50421)" fill="none" stroke-linejoin="round" d="M 601.112762 444.252245 L 593.825451 441.404672 " stroke="#313f51" stroke-width="1.98" stroke-opacity="1" stroke-miterlimit="4"></path><path stroke-linecap="round" transform="matrix(0.116319, 0, 0, 0.116601, 15.004661, 23.50421)" fill="none" stroke-linejoin="round" d="M 600.239628 456.245551 L 592.650078 456.446556 " stroke="#313f51" stroke-width="1.98" stroke-opacity="1" stroke-miterlimit="4"></path><path stroke-linecap="round" transform="matrix(0.116319, 0, 0, 0.116601, 15.004661, 23.50421)" fill="none" stroke-linejoin="round" d="M 608.937387 466.898823 C 606.88888 468.33936 602.05306 472.325962 602.05306 472.325962 " stroke="#313f51" stroke-width="1.98" stroke-opacity="1" stroke-miterlimit="4"></path><path stroke-linecap="round" transform="matrix(0.116319, 0, 0, 0.116601, 15.004661, 23.50421)" fill="none" stroke-linejoin="round" d="M 631.73962 480.466669 C 630.76574 482.007709 619.280668 481.940707 618.105295 479.997657 " stroke="#313f51" stroke-width="1.98" stroke-opacity="1" stroke-miterlimit="4"></path><path stroke-linecap="round" transform="matrix(0.116319, 0, 0, 0.116601, 15.004661, 23.50421)" fill="none" stroke-linejoin="round" d="M 631.403799 484.118263 C 628.817979 486.128314 619.14634 485.089787 618.138877 483.515247 " stroke="#313f51" stroke-width="1.98" stroke-opacity="1" stroke-miterlimit="4"></path><path stroke-linecap="round" transform="matrix(0.116319, 0, 0, 0.116601, 15.004661, 23.50421)" fill="none" stroke-linejoin="round" d="M 631.941113 476.98258 C 631.907531 479.026133 631.840366 486.865333 631.235889 487.367846 C 629.220964 489.10989 619.851563 488.808382 618.105295 486.965835 C 617.735892 486.563825 618.273206 477.585596 618.306788 476.647572 " stroke="#313f51" stroke-width="1.98" stroke-opacity="1" stroke-miterlimit="4"></path><path stroke-linecap="round" transform="matrix(0.116319, 0, 0, 0.116601, 15.004661, 23.50421)" fill="none" stroke-linejoin="round" d="M 630.396337 488.104864 C 630.094098 489.913911 629.691113 491.287446 628.079173 491.186943 C 626.467233 491.086441 625.963502 488.841883 625.963502 488.841883 " stroke="#313f51" stroke-width="1.98" stroke-opacity="1" stroke-miterlimit="4"></path><path stroke-linecap="round" transform="matrix(0.116319, 0, 0, 0.116601, 15.004661, 23.50421)" fill="none" stroke-linejoin="round" d="M 623.545592 488.808382 C 623.444846 490.851935 622.571712 491.655955 621.194847 491.354447 C 619.616489 491.019439 619.582907 488.272369 619.582907 488.272369 " stroke="#313f51" stroke-width="1.98" stroke-opacity="1" stroke-miterlimit="4"></path><path stroke-linecap="round" transform="matrix(0.116319, 0, 0, 0.116601, 15.004661, 23.50421)" fill="none" stroke-linejoin="round" d="M 589.023213 541.672733 C 589.224705 543.54878 596.142614 544.989317 596.478435 545.826839 C 596.814256 546.66436 597.788136 555.776593 596.982166 556.413109 C 596.176196 557.083126 589.056795 558.322658 589.056795 560.969225 C 589.056795 563.615793 590.366496 573.29754 593.993361 575.475096 C 597.620226 577.619151 602.926195 573.29754 604.907537 575.274091 C 606.922462 577.284142 611.556789 580.935735 611.053058 582.242269 C 610.549327 583.582303 606.250821 587.736409 608.232163 590.51698 C 610.213506 593.364553 617.500818 599.294204 619.650071 598.322679 C 621.832906 597.317654 626.265741 586.061366 628.448576 586.228871 C 630.597829 586.396375 632.411262 586.563879 633.922456 588.037917 C 635.400067 589.545455 635.903798 599.964221 638.724693 599.964221 C 641.512006 599.964221 656.42245 596.647637 656.42245 595.475107 C 656.42245 594.336078 651.620212 584.386323 652.459764 584.051315 C 653.299316 583.716306 656.086629 576.446621 659.579166 577.58565 C 663.071702 578.75818 670.359014 583.07979 671.836625 582.074764 C 673.314237 581.069739 676.974684 568.808426 676.135132 568.171909 C 675.329162 567.501892 669.351551 566.831875 669.01573 564.017803 C 668.713492 561.203731 667.706029 550.784965 669.687372 550.114948 C 671.668715 549.444931 675.329162 551.253977 675.497072 548.439905 C 675.664983 545.625834 674.82543 533.36452 672.676177 533.36452 C 670.493342 533.36452 660.754538 536.346097 660.418718 534.872059 C 660.082897 533.36452 656.59036 529.243915 657.429912 528.071385 C 658.269464 526.932356 661.392598 518.322636 660.754538 518.155132 C 660.082897 517.954127 647.657527 509.679415 646.179915 509.84692 C 644.668722 510.014424 637.885141 520.969204 637.38141 521.940729 C 636.877679 522.945754 628.952307 523.113259 627.776935 521.60572 C 626.635144 520.131682 625.627681 510.014424 624.284398 510.014424 C 622.974697 510.014424 610.717237 512.359484 610.381417 513.163504 C 610.045596 514.001026 614.041863 523.783276 613.538132 524.754801 C 613.034401 525.759826 606.418731 532.392996 604.269478 531.890483 C 602.120225 531.38797 595.000823 527.09986 593.993361 527.903881 C 592.985898 528.741402 588.855302 540.165194 589.023213 541.672733 Z M 589.023213 541.672733 " stroke="#313f51" stroke-width="1.98" stroke-opacity="1" stroke-miterlimit="4"></path><path stroke-linecap="round" transform="matrix(0.116319, 0, 0, 0.116601, 15.004661, 23.50421)" fill="none" stroke-linejoin="round" d="M 633.586635 529.645925 C 615.855296 529.880431 607.594104 545.625834 607.762014 557.049625 C 607.929925 568.473417 614.512013 580.098214 634.896336 580.064713 C 651.41872 580.031212 661.59409 561.471738 657.262002 545.424828 C 655.045585 537.217119 646.179915 529.478421 633.586635 529.645925 Z M 633.586635 529.645925 " stroke="#313f51" stroke-width="1.98" stroke-opacity="1" stroke-miterlimit="4"></path><path stroke-linecap="round" transform="matrix(0.116319, 0, 0, 0.116601, 15.004661, 23.50421)" fill="none" stroke-linejoin="round" d="M 664.347821 507.066349 C 664.347821 507.066349 693.194829 518.121631 689.635128 559.428186 " stroke="#313f51" stroke-width="1.98" stroke-opacity="1" stroke-miterlimit="4"></path><path stroke-linecap="round" transform="matrix(0.116319, 0, 0, 0.116601, 15.004661, 23.50421)" fill="none" stroke-linejoin="round" d="M 680.131399 549.913943 C 681.541847 550.98597 688.325427 561.672743 690.105277 560.935725 C 691.885128 560.232207 698.265723 549.545434 698.265723 549.545434 " stroke="#313f51" stroke-width="1.98" stroke-opacity="1" stroke-miterlimit="4"></path><path stroke-linecap="round" transform="matrix(0.116319, 0, 0, 0.116601, 15.004661, 23.50421)" fill="none" stroke-linejoin="round" d="M 572.937396 557.786644 C 571.762023 580.031212 587.915004 599.394707 606.049328 607.635917 " stroke="#313f51" stroke-width="1.98" stroke-opacity="1" stroke-miterlimit="4"></path><path stroke-linecap="round" transform="matrix(0.116319, 0, 0, 0.116601, 15.004661, 23.50421)" fill="none" stroke-linejoin="round" d="M 562.526951 571.655998 C 563.16501 570.818477 571.526949 555.67609 573.441127 556.714617 C 575.355306 557.719642 583.482169 567.03288 583.482169 567.03288 " stroke="#313f51" stroke-width="1.98" stroke-opacity="1" stroke-miterlimit="4"></path><path stroke-linecap="round" transform="matrix(0.116319, 0, 0, 0.116601, 15.004661, 23.50421)" fill="none" stroke-linejoin="round" d="M 429.743402 571.153486 C 417.586688 570.885479 418.359076 590.181971 429.23967 590.684484 C 440.153847 591.220498 441.66504 571.421492 429.743402 571.153486 Z M 429.743402 571.153486 " stroke="#313f51" stroke-width="1.98" stroke-opacity="1" stroke-miterlimit="4"></path><path stroke-linecap="round" transform="matrix(0.116319, 0, 0, 0.116601, 15.004661, 23.50421)" fill="none" stroke-linejoin="round" d="M 499.25831 570.851978 C 487.101596 570.583971 487.873984 589.846963 498.754579 590.382977 C 509.668755 590.885489 511.179949 571.086484 499.25831 570.851978 Z M 499.25831 570.851978 " stroke="#313f51" stroke-width="1.98" stroke-opacity="1" stroke-miterlimit="4"></path><path stroke-linecap="round" transform="matrix(0.116319, 0, 0, 0.116601, 15.004661, 23.50421)" fill="none" stroke-linejoin="round" d="M 507.65383 578.490173 C 508.929949 580.031212 510.743382 581.10324 513.094127 581.203742 C 518.970991 581.50525 521.85905 575.307592 520.985916 570.14846 " stroke="#313f51" stroke-width="1.98" stroke-opacity="1" stroke-miterlimit="4"></path><path stroke-linecap="round" transform="matrix(0.116319, 0, 0, 0.116601, 15.004661, 23.50421)" fill="none" stroke-linejoin="round" d="M 432.900117 530.717953 C 432.900117 530.717953 442.806831 530.751454 442.806831 531.186965 C 442.806831 531.890483 443.041906 550.98597 441.967279 551.655988 C 440.892653 552.326005 425.176238 551.655988 424.101612 551.655988 C 424.101612 551.655988 432.194893 531.052961 432.900117 530.717953 Z M 432.900117 530.717953 " stroke="#313f51" stroke-width="1.98" stroke-opacity="1" stroke-miterlimit="4"></path><path stroke-linecap="round" transform="matrix(0.116319, 0, 0, 0.116601, 15.004661, 23.50421)" fill="none" stroke-linejoin="round" d="M 421.146389 584.620829 C 421.146389 584.620829 413.825495 585.290847 413.42251 584.386323 C 412.985943 583.515301 413.42251 580.366221 413.153853 575.006084 C 413.019525 572.460019 413.724749 552.895519 414.933704 551.957495 C 416.176241 551.019471 425.209821 547.032869 425.814298 545.89384 C 426.687432 544.352801 433.303102 528.975908 434.209818 527.903881 C 435.485937 526.362842 447.642651 519.495166 450.69862 519.160158 C 453.75459 518.85865 466.280706 519.729672 466.280706 519.729672 C 467.556825 519.729672 467.556825 555.475085 467.556825 556.145102 C 467.556825 556.145102 451.471008 565.05633 449.355337 566.195359 " stroke="#313f51" stroke-width="1.98" stroke-opacity="1" stroke-miterlimit="4"></path><path stroke-linecap="round" transform="matrix(0.116319, 0, 0, 0.116601, 15.004661, 23.50421)" fill="none" stroke-linejoin="round" d="M 413.624003 577.016135 C 417.687434 577.21714 421.347881 577.016135 421.347881 577.016135 " stroke="#313f51" stroke-width="1.98" stroke-opacity="1" stroke-miterlimit="4"></path><path stroke-linecap="round" transform="matrix(0.116319, 0, 0, 0.116601, 15.004661, 23.50421)" fill="none" stroke-linejoin="round" d="M 436.997131 585.491852 C 436.997131 585.491852 449.120262 585.625855 449.355337 584.486826 C 449.556829 583.381298 449.556829 530.014435 448.91877 527.09986 C 448.91877 527.09986 437.433698 525.223812 434.209818 527.903881 " stroke="#313f51" stroke-width="1.98" stroke-opacity="1" stroke-miterlimit="4"></path><path stroke-linecap="round" transform="matrix(0.116319, 0, 0, 0.116601, 15.004661, 23.50421)" fill="none" stroke-linejoin="round" d="M 474.944883 556.0446 C 469.504586 556.111601 467.590407 556.111601 467.590407 556.111601 " stroke="#313f51" stroke-width="1.98" stroke-opacity="1" stroke-miterlimit="4"></path><path stroke-linecap="round" transform="matrix(0.116319, 0, 0, 0.116601, 15.004661, 23.50421)" fill="none" stroke-linejoin="round" d="M 506.344129 574.604074 C 511.68368 574.436569 515.176216 574.269065 515.310545 574.001058 C 515.948604 572.89553 529.91875 563.716296 529.91875 563.046278 C 529.91875 562.945776 529.91875 555.67609 529.045616 555.67609 C 525.150094 555.67609 519.441141 555.709591 512.993381 555.776593 " stroke="#313f51" stroke-width="1.98" stroke-opacity="1" stroke-miterlimit="4"></path><path stroke-linecap="round" transform="matrix(0.116319, 0, 0, 0.116601, 15.004661, 23.50421)" fill="none" stroke-linejoin="round" d="M 449.758322 574.671075 C 451.168769 574.905581 472.694883 575.039585 491.433685 574.83858 " stroke="#313f51" stroke-width="1.98" stroke-opacity="1" stroke-miterlimit="4"></path><path stroke-linecap="round" transform="matrix(0.116319, 0, 0, 0.116601, 15.004661, 23.50421)" fill="none" stroke-linejoin="round" d="M 449.355337 566.195359 C 450.194889 566.396364 513.597858 565.525342 514.470993 565.290836 C 515.310545 565.089831 529.482183 555.709591 529.482183 555.709591 " stroke="#313f51" stroke-width="1.98" stroke-opacity="1" stroke-miterlimit="4"></path><path stroke-linecap="round" transform="matrix(0.116319, 0, 0, 0.116601, 15.004661, 23.50421)" fill="none" stroke-linejoin="round" d="M 448.91877 527.09986 C 448.91877 527.09986 464.366527 519.964178 466.280706 519.729672 " stroke="#313f51" stroke-width="1.98" stroke-opacity="1" stroke-miterlimit="4"></path><path stroke-linecap="round" transform="matrix(0.116319, 0, 0, 0.116601, 15.004661, 23.50421)" fill="none" stroke-linejoin="round" d="M 414.933704 551.957495 C 415.84042 551.186976 424.101612 551.655988 424.101612 551.655988 " stroke="#313f51" stroke-width="1.98" stroke-opacity="1" stroke-miterlimit="4"></path><path stroke-linecap="round" transform="matrix(0.116319, 0, 0, 0.116601, 15.004661, 23.50421)" fill="none" stroke-linejoin="round" d="M 449.825486 584.352823 C 450.866531 583.883811 466.515781 575.039585 466.515781 575.039585 " stroke="#313f51" stroke-width="1.98" stroke-opacity="1" stroke-miterlimit="4"></path><path stroke-linecap="round" transform="matrix(0.116319, 0, 0, 0.116601, 15.004661, 23.50421)" fill="none" stroke-linejoin="round" d="M 468.463541 575.173588 C 468.463541 575.173588 468.329213 584.486826 468.93369 585.123342 C 469.538168 585.726358 486.094134 585.42485 486.665029 585.123342 C 487.269507 584.821835 487.135178 575.039585 487.135178 575.039585 " stroke="#313f51" stroke-width="1.98" stroke-opacity="1" stroke-miterlimit="4"></path><path stroke-linecap="round" transform="matrix(0.116319, 0, 0, 0.116601, 15.004661, 23.50421)" fill="none" stroke-linejoin="round" d="M 486.665029 585.123342 C 487.672492 584.587329 490.39264 582.945787 490.39264 582.945787 " stroke="#313f51" stroke-width="1.98" stroke-opacity="1" stroke-miterlimit="4"></path><path stroke-linecap="round" transform="matrix(0.116319, 0, 0, 0.116601, 15.004661, 23.50421)" fill="none" stroke-linejoin="round" d="M 475.280704 562.71127 L 474.74339 534.034538 C 474.74339 534.034538 499.762041 533.632527 499.896369 534.068038 C 500.06428 534.503549 500.165026 562.71127 500.165026 562.71127 Z M 475.280704 562.71127 " stroke="#313f51" stroke-width="1.98" stroke-opacity="1" stroke-miterlimit="4"></path><path stroke-linecap="round" transform="matrix(0.116319, 0, 0, 0.116601, 15.004661, 23.50421)" fill="none" stroke-linejoin="round" d="M 500.165026 562.71127 C 502.146369 561.974251 512.959799 556.44661 512.959799 556.44661 C 512.959799 556.44661 512.758306 528.205389 512.623978 527.736377 C 512.48965 527.300866 499.896369 534.068038 499.896369 534.068038 " stroke="#313f51" stroke-width="1.98" stroke-opacity="1" stroke-miterlimit="4"></path><path stroke-linecap="round" transform="matrix(0.116319, 0, 0, 0.116601, 15.004661, 23.50421)" fill="none" stroke-linejoin="round" d="M 474.74339 534.034538 L 491.702341 527.434869 C 491.702341 527.434869 512.422486 527.501871 512.590396 527.669375 " stroke="#313f51" stroke-width="1.98" stroke-opacity="1" stroke-miterlimit="4"></path><path stroke-linecap="round" transform="matrix(0.116319, 0, 0, 0.116601, 15.004661, 23.50421)" fill="none" stroke-linejoin="round" d="M 530.623974 580.600727 C 533.377704 580.835233 548.120238 580.366221 548.120238 580.366221 " stroke="#313f51" stroke-width="1.98" stroke-opacity="1" stroke-miterlimit="4"></path><path stroke-linecap="round" transform="matrix(0.116319, 0, 0, 0.116601, 15.004661, 23.50421)" fill="none" stroke-linejoin="round" d="M 535.56054 566.697872 C 539.691136 566.463366 550.303073 566.697872 550.303073 566.697872 " stroke="#313f51" stroke-width="1.98" stroke-opacity="1" stroke-miterlimit="4"></path><path stroke-linecap="round" transform="matrix(0.116319, 0, 0, 0.116601, 15.004661, 23.50421)" fill="none" stroke-linejoin="round" d="M 536.131435 551.622487 C 542.646359 552.091499 549.698596 551.622487 549.698596 551.622487 " stroke="#313f51" stroke-width="1.98" stroke-opacity="1" stroke-miterlimit="4"></path><path stroke-linecap="round" transform="matrix(0.116319, 0, 0, 0.116601, 15.004661, 23.50421)" fill="none" stroke-linejoin="round" d="M 807.373905 671.254042 C 807.373905 671.254042 772.011974 351.320871 579.653812 181.940545 " stroke="#313f51" stroke-width="1.98" stroke-opacity="1" stroke-miterlimit="4"></path><path stroke-linecap="round" transform="matrix(0.116319, 0, 0, 0.116601, 15.004661, 23.50421)" fill="none" stroke-linejoin="round" d="M 522.262035 181.940545 C 522.262035 181.940545 345.116557 315.474956 343.571781 669.511998 " stroke="#313f51" stroke-width="1.98" stroke-opacity="1" stroke-miterlimit="4"></path><path stroke-linecap="round" transform="matrix(0.116319, 0, 0, 0.116601, 15.004661, 23.50421)" fill="none" stroke-linejoin="round" d="M 235.336733 351.186868 C 235.336733 351.186868 360.429986 243.046106 506.780696 180.165 " stroke="#313f51" stroke-width="1.98" stroke-opacity="1" stroke-miterlimit="4"></path><path stroke-linecap="round" transform="matrix(0.116319, 0, 0, 0.116601, 15.004661, 23.50421)" fill="none" stroke-linejoin="round" d="M 592.146346 180.232002 C 625.459771 182.443058 782.590329 263.682633 867.385084 346.731254 " stroke="#313f51" stroke-width="1.98" stroke-opacity="1" stroke-miterlimit="4"></path><path stroke-linecap="round" transform="matrix(0.116319, 0, 0, 0.116601, 15.004661, 23.50421)" fill="none" stroke-linejoin="round" d="M 813.821665 670.78503 C 813.821665 670.78503 871.851501 542.677758 890.153735 398.724582 " stroke="#313f51" stroke-width="1.98" stroke-opacity="1" stroke-miterlimit="4"></path><path stroke-linecap="round" transform="matrix(0.116319, 0, 0, 0.116601, 15.004661, 23.50421)" fill="none" stroke-linejoin="round" d="M 375.038191 725.793435 C 375.038191 725.793435 595.974704 656.513666 780.776897 687.769964 " stroke="#313f51" stroke-width="1.98" stroke-opacity="1" stroke-miterlimit="4"></path><path stroke-linecap="round" transform="matrix(0.116319, 0, 0, 0.116601, 15.004661, 23.50421)" fill="none" stroke-linejoin="round" d="M 364.762074 703.816874 C 398.176245 677.4517 447.47474 645.860393 495.429952 623.381319 " stroke="#313f51" stroke-width="1.98" stroke-opacity="1" stroke-miterlimit="4"></path><path stroke-linecap="round" transform="matrix(0.116319, 0, 0, 0.116601, 15.004661, 23.50421)" fill="none" stroke-linejoin="round" d="M 781.482121 672.795081 C 735.273177 645.793392 625.459771 623.481822 625.459771 623.481822 " stroke="#313f51" stroke-width="1.98" stroke-opacity="1" stroke-miterlimit="4"></path><path stroke-linecap="round" transform="matrix(0.116319, 0, 0, 0.116601, 15.004661, 23.50421)" fill="none" stroke-linejoin="round" d="M 860.265683 361.002618 C 803.108981 336.01098 427.258328 331.555366 251.388968 376.178506 " stroke="#313f51" stroke-width="1.98" stroke-opacity="1" stroke-miterlimit="4"></path><path stroke-linecap="round" transform="matrix(0.116319, 0, 0, 0.116601, 15.004661, 23.50421)" fill="none" stroke-linejoin="round" d="M 249.038222 395.072989 C 279.060603 399.394599 377.254609 427.066306 404.053109 439.562125 " stroke="#313f51" stroke-width="1.98" stroke-opacity="1" stroke-miterlimit="4"></path><path stroke-linecap="round" transform="matrix(0.116319, 0, 0, 0.116601, 15.004661, 23.50421)" fill="none" stroke-linejoin="round" d="M 219.250916 415.47501 C 271.90762 487.769856 309.418804 612.761548 320.131488 700.265783 " stroke="#313f51" stroke-width="1.98" stroke-opacity="1" stroke-miterlimit="4"></path><path stroke-linecap="round" transform="matrix(0.116319, 0, 0, 0.116601, 15.004661, 23.50421)" fill="none" stroke-linejoin="round" d="M 556.952325 182.376056 C 569.276949 202.242064 607.963507 303.615653 613.638878 359.49508 " stroke="#313f51" stroke-width="1.98" stroke-opacity="1" stroke-miterlimit="4"></path><path stroke-linecap="round" transform="matrix(0.116319, 0, 0, 0.116601, 15.004661, 23.50421)" fill="none" stroke-linejoin="round" d="M 535.191137 180.466508 C 521.926215 205.089636 503.153831 325.190204 503.153831 361.170123 " stroke="#313f51" stroke-width="1.98" stroke-opacity="1" stroke-miterlimit="4"></path><path stroke-linecap="round" transform="matrix(0.116319, 0, 0, 0.116601, 15.004661, 23.50421)" fill="none" stroke-linejoin="round" d="M 406.471019 498.054619 C 419.265792 498.054619 680.937369 497.049593 704.914975 494.939039 C 731.344073 492.593979 824.534349 433.330966 865.605234 389.578848 " stroke="#313f51" stroke-width="1.98" stroke-opacity="1" stroke-miterlimit="4"></path><path stroke-linecap="round" transform="matrix(0.116319, 0, 0, 0.116601, 15.004661, 23.50421)" fill="none" stroke-linejoin="round" d="M 553.359043 361.974143 C 551.847849 372.526913 555.609042 494.57053 555.609042 497.585607 " stroke="#313f51" stroke-width="1.98" stroke-opacity="1" stroke-miterlimit="4"></path><path stroke-linecap="round" transform="matrix(0.116319, 0, 0, 0.116601, 15.004661, 23.50421)" fill="none" stroke-linejoin="round" d="M 555.609042 498.054619 C 554.870236 507.09985 559.403817 612.594044 560.142623 622.376294 " stroke="#313f51" stroke-width="1.98" stroke-opacity="1" stroke-miterlimit="4"></path><path stroke-linecap="round" transform="matrix(0.116319, 0, 0, 0.116601, 15.004661, 23.50421)" fill="none" stroke-linejoin="round" d="M 436.224743 468.272358 C 437.769519 469.779896 446.400114 482.510222 446.400114 482.510222 " stroke="#313f51" stroke-width="1.98" stroke-opacity="1" stroke-miterlimit="4"></path><path stroke-linecap="round" transform="matrix(0.116319, 0, 0, 0.116601, 15.004661, 23.50421)" fill="none" stroke-linejoin="round" d="M 481.560553 484.051261 C 483.575478 481.505196 492.743386 470.282409 492.743386 470.282409 " stroke="#313f51" stroke-width="1.98" stroke-opacity="1" stroke-miterlimit="4"></path><path stroke-linecap="round" transform="matrix(0.116319, 0, 0, 0.116601, 15.004661, 23.50421)" fill="none" stroke-linejoin="round" d="M 422.489672 483.012734 C 425.545641 484.051261 433.672505 488.104864 433.672505 488.104864 " stroke="#313f51" stroke-width="1.98" stroke-opacity="1" stroke-miterlimit="4"></path><path stroke-linecap="round" transform="matrix(0.116319, 0, 0, 0.116601, 15.004661, 23.50421)" fill="none" stroke-linejoin="round" d="M 493.247117 487.602352 C 495.295624 487.099839 504.463532 483.046235 504.463532 483.046235 " stroke="#313f51" stroke-width="1.98" stroke-opacity="1" stroke-miterlimit="4"></path></svg>