<svg xmlns="http://www.w3.org/2000/svg" xmlns:xlink="http://www.w3.org/1999/xlink" width="768" viewBox="0 0 576 579.750005" height="773" preserveAspectRatio="xMidYMid meet"><defs><clipPath id="16cd652f4c"><path d="M 0.125 0 L 575.875 0 L 575.875 579.5 L 0.125 579.5 Z M 0.125 0 " clip-rule="nonzero"></path></clipPath><clipPath id="5265b8fbb8"><path d="M 255 52.855469 L 329 52.855469 L 329 159 L 255 159 Z M 255 52.855469 " clip-rule="nonzero"></path></clipPath><clipPath id="0c57dcbaf3"><path d="M 162.464844 159 L 254 159 L 254 338 L 162.464844 338 Z M 162.464844 159 " clip-rule="nonzero"></path></clipPath><clipPath id="fba2d7dd72"><path d="M 325 153 L 413.605469 153 L 413.605469 360 L 325 360 Z M 325 153 " clip-rule="nonzero"></path></clipPath><clipPath id="1928f891fc"><path d="M 211 481 L 228 481 L 228 526.652344 L 211 526.652344 Z M 211 481 " clip-rule="nonzero"></path></clipPath><clipPath id="06f06f12e0"><path d="M 373 481 L 390 481 L 390 526.652344 L 373 526.652344 Z M 373 481 " clip-rule="nonzero"></path></clipPath></defs><g clip-path="url(#16cd652f4c)"><path fill="#ffffff" d="M 0.125 0 L 575.875 0 L 575.875 579.5 L 0.125 579.5 Z M 0.125 0 " fill-opacity="1" fill-rule="nonzero"></path><path fill="#f5f5f5" d="M 0.125 0 L 575.875 0 L 575.875 579.5 L 0.125 579.5 Z M 0.125 0 " fill-opacity="1" fill-rule="nonzero"></path></g><path fill="#ffffff" d="M 460.242188 513.949219 C 407.5625 559.59375 331.695312 576.921875 264.425781 558.675781 C 232.832031 550.109375 203.511719 534.332031 176.949219 515.1875 C 110.964844 467.632812 60.417969 396.800781 44.550781 317.023438 C 12.308594 154.914062 181.539062 -62.382812 352.667969 40.203125 C 497.242188 126.878906 607.253906 386.582031 460.242188 513.949219 " fill-opacity="1" fill-rule="nonzero"></path><path fill="#f6d578" d="M 257.753906 85.535156 C 254.136719 81.664062 258.527344 78.566406 262.398438 77.019531 C 266.273438 75.472656 265.753906 69.277344 263.691406 66.953125 C 261.632812 64.632812 266.789062 65.40625 272.730469 65.152344 C 278.667969 64.894531 279.957031 61.535156 284.347656 56.378906 C 288.734375 51.214844 291.316406 54.3125 295.441406 58.445312 C 299.570312 62.578125 300.34375 55.09375 303.441406 54.832031 C 306.539062 54.566406 306.023438 58.445312 307.570312 60.769531 C 309.117188 63.089844 312.734375 58.191406 315.3125 57.925781 C 317.894531 57.664062 317.117188 62.574219 317.636719 65.925781 C 318.15625 69.277344 325.382812 63.085938 326.929688 63.601562 C 328.480469 64.121094 324.863281 67.992188 324.863281 73.410156 C 324.863281 78.832031 325.894531 79.605469 322.285156 85.023438 C 318.675781 90.441406 324.089844 90.1875 322.800781 95.605469 C 321.515625 101.027344 321.773438 103.347656 323.058594 110.570312 C 324.34375 117.796875 322.734375 124.265625 317.894531 130.4375 C 315.453125 133.554688 313.253906 138.3125 313.441406 142.527344 C 313.695312 148.480469 308.578125 151.976562 305.019531 153.878906 C 302.273438 155.34375 297.066406 157.617188 291.648438 157.355469 C 286.226562 157.097656 278.792969 152.917969 278.273438 148.015625 C 277.910156 144.539062 275.308594 142.5625 270.398438 139.464844 C 265.492188 136.367188 265.753906 127.078125 267.300781 122.433594 C 268.851562 117.789062 263.6875 108.242188 262.136719 105.664062 C 260.589844 103.085938 262.1875 101 262.910156 94.824219 C 263.429688 90.4375 261.363281 89.40625 257.746094 85.535156 Z M 270.144531 118.308594 C 271.175781 121.921875 274.535156 125.019531 278.144531 124.757812 C 281.753906 124.492188 290.007812 121.363281 290.824219 121.363281 C 290.921875 121.363281 292.601562 123.207031 294.40625 123.726562 C 296.210938 124.246094 298.070312 121.742188 298.535156 121.402344 C 299.660156 120.589844 309.628906 126.304688 313.246094 126.566406 C 316.863281 126.828125 318.921875 119.082031 319.960938 114.953125 C 320.996094 110.828125 319.441406 99.472656 319.703125 96.890625 C 319.96875 94.3125 318.410156 89.40625 318.410156 87.082031 C 318.410156 84.761719 315.058594 81.144531 312.734375 79.859375 C 310.410156 78.574219 313.253906 85.796875 310.929688 85.535156 C 308.605469 85.273438 304.480469 76.761719 302.929688 75.988281 C 301.382812 75.214844 300.351562 84.25 297.511719 84.503906 C 294.667969 84.761719 296.992188 78.3125 294.667969 76.246094 C 292.34375 74.179688 291.050781 79.597656 288.472656 80.890625 C 285.894531 82.183594 286.925781 78.050781 285.375 74.953125 C 283.828125 71.855469 280.472656 76.757812 274.015625 79.078125 C 267.566406 81.402344 267.566406 87.078125 268.851562 92.496094 C 270.136719 97.914062 268.171875 102.582031 267.558594 105.65625 C 266.785156 109.527344 269.105469 114.691406 270.136719 118.300781 Z M 270.144531 118.308594 " fill-opacity="1" fill-rule="nonzero"></path><path fill="#313f51" d="M 185.011719 337.195312 C 185.011719 337.195312 181.699219 336.15625 174.5625 334.207031 C 167.429688 332.257812 162.566406 333.054688 163.21875 330.027344 C 163.867188 326.996094 173.242188 302.230469 178.441406 290.921875 C 185.308594 276 185.101562 267.152344 187.699219 259.582031 C 190.300781 252.011719 195.3125 237.738281 197.691406 211.574219 C 200.070312 185.414062 207.203125 181.734375 207.203125 181.734375 C 210.019531 170.058594 219.746094 165.945312 225.804688 167.03125 L 226.300781 167.238281 C 226.597656 166.832031 226.867188 166.542969 227.105469 166.382812 C 229.695312 164.652344 243.070312 160.195312 253.140625 160.527344 L 253.203125 160.671875 C 262.730469 153.980469 273.054688 147.890625 277.714844 147.097656 C 277.714844 147.097656 278.46875 149.09375 279.097656 150.226562 C 279.726562 151.363281 281.367188 153.375 281.367188 153.375 C 281.367188 153.375 281.070312 155.855469 279.984375 157.273438 C 278.722656 158.910156 278.476562 160.796875 276.207031 162.179688 C 273.941406 163.5625 269.660156 166.335938 269.03125 167.085938 C 268.402344 167.839844 268.019531 170.984375 268.019531 170.984375 L 267.515625 180.800781 L 267.765625 201.566406 C 267.765625 201.566406 267.890625 226.867188 267.640625 230.011719 C 267.390625 233.15625 268.144531 241.589844 265.628906 246.753906 C 263.113281 251.914062 251.90625 262.988281 253.039062 271.421875 C 254.171875 279.855469 261.597656 284.886719 264.867188 286.527344 C 268.140625 288.164062 274.160156 291.335938 272.921875 299.363281 C 271.914062 305.910156 266.820312 304.125 266.820312 304.125 C 266.820312 304.125 265.046875 297.847656 261.023438 291.808594 C 257 285.765625 248.378906 278.972656 239.820312 276.082031 C 231.257812 273.191406 224.96875 274.070312 223.578125 274.574219 C 222.1875 275.078125 218.289062 276.71875 216.90625 277.347656 C 215.523438 277.976562 210.359375 281.121094 206.832031 285.523438 C 203.304688 289.925781 201.542969 297.101562 201.542969 297.101562 C 201.542969 297.101562 198.769531 295.96875 197.890625 296.222656 C 197.011719 296.480469 193.105469 298.492188 191.972656 301.636719 C 190.839844 304.78125 188.828125 308.429688 189.332031 314.097656 C 189.332031 314.097656 187.1875 316.871094 187.0625 317.367188 C 186.941406 317.867188 185.425781 328.945312 185.425781 328.945312 L 184.984375 337.195312 Z M 185.011719 337.195312 " fill-opacity="1" fill-rule="nonzero"></path><path fill="#313f51" d="M 312.519531 147.835938 C 315.050781 148.390625 320.511719 150.980469 326.273438 154.246094 L 326.496094 154.140625 C 333.960938 155.386719 364.050781 169.265625 369.652344 175.175781 C 375.253906 181.085938 392.996094 218.738281 396.417969 234.605469 C 399.839844 250.476562 410.425781 283.457031 411.359375 291.863281 C 412.292969 300.269531 412.914062 333.246094 412.914062 337.601562 C 412.914062 341.957031 409.800781 355.339844 409.800781 355.339844 C 409.800781 355.339844 400.558594 354.710938 390.289062 358.449219 L 390.042969 356.714844 L 388.722656 344.347656 L 385.996094 326.949219 L 383.105469 316.976562 L 379.558594 309.058594 L 380.570312 304.671875 C 380.570312 304.671875 381.578125 298.25 381.703125 293.339844 C 381.828125 288.433594 380.445312 282.390625 377.804688 278.238281 C 375.164062 274.082031 371.132812 271.320312 371.132812 271.320312 L 369.996094 270.566406 C 369.996094 270.566406 369.875 264.648438 368.863281 260.121094 C 367.855469 255.59375 365.089844 247.027344 365.089844 246.65625 C 365.089844 246.28125 362.800781 241.464844 362.800781 241.464844 C 358.753906 248.308594 354.089844 256.402344 360.933594 264.488281 L 362.808594 266.707031 C 362.808594 266.707031 358.664062 265.027344 354.128906 264.65625 C 349.601562 264.273438 346.703125 264.152344 344.816406 264.78125 C 342.929688 265.410156 333.109375 269.5625 333.109375 269.5625 L 323.292969 275.101562 C 323.292969 275.101562 322.035156 265.789062 323.042969 261.378906 C 324.054688 256.976562 324.425781 253.832031 324.808594 249.800781 C 325.1875 245.769531 323.671875 233.191406 323.671875 232.5625 C 323.671875 231.933594 321.785156 226.898438 322.164062 225.136719 C 322.546875 223.375 322.164062 198.332031 322.164062 198.332031 C 322.164062 198.332031 323.300781 180.460938 321.785156 175.929688 C 320.273438 171.394531 318.886719 167.496094 318.886719 167.496094 C 318.886719 167.496094 315.238281 162.585938 313.730469 161.074219 C 312.222656 159.558594 309.699219 158.683594 309.574219 156.792969 C 309.449219 154.90625 308.566406 151.257812 308.566406 151.257812 L 310.710938 149.621094 L 312.519531 147.851562 Z M 312.519531 147.835938 " fill-opacity="1" fill-rule="nonzero"></path><path stroke-linecap="round" transform="matrix(0.691412, 0, 0, 0.691236, 162.463578, 52.985137)" fill="none" stroke-linejoin="round" d="M 11.097779 404.940498 C 12.979119 400.250076 28.018536 353.362815 29.577845 358.047586 C 31.142803 362.738007 26.617419 409.037553 26.617419 409.037553 " stroke="#e6eaef" stroke-width="2" stroke-opacity="1" stroke-miterlimit="4"></path><path stroke-linecap="round" transform="matrix(0.691412, 0, 0, 0.691236, 162.463578, 52.985137)" fill="none" stroke-linejoin="round" d="M 331.620418 440.101705 C 332.518715 436.049859 337.467825 376.628436 339.270069 377.532613 C 341.072313 378.43114 355.930941 436.501948 355.930941 436.501948 " stroke="#e6eaef" stroke-width="2" stroke-opacity="1" stroke-miterlimit="4"></path><path stroke-linecap="round" transform="matrix(0.691412, 0, 0, 0.691236, 162.463578, 52.985137)" fill="none" stroke-linejoin="round" d="M 187.310937 566.358808 C 187.412631 566.432273 187.497377 566.511388 187.587771 566.579201 C 199.779756 576.361273 197.49729 590.110424 198.118753 596.29839 C 198.740217 602.492007 197.469041 613.172605 197.469041 613.172605 C 197.469041 613.172605 194.971888 622.090057 158.491979 621.677525 C 143.362167 621.507992 136.480871 619.688335 130.379229 617.450495 C 126.260621 615.930346 120.887786 613.992016 120.740894 609.601103 L 120.718296 596.920012 C 120.718296 596.920012 121.757835 573.739158 130.842502 568.240628 C 133.322706 566.737433 136.367877 565.477235 136.339629 565.488537 " stroke="#313f51" stroke-width="2" stroke-opacity="1" stroke-miterlimit="4"></path><g clip-path="url(#5265b8fbb8)"><path stroke-linecap="round" transform="matrix(0.691412, 0, 0, 0.691236, 162.463578, 52.985137)" fill="none" stroke-linejoin="round" d="M 145.277404 60.527938 C 144.232216 69.462343 141.921501 72.480036 144.15877 76.209769 C 146.401688 79.939502 153.87055 93.762117 151.627632 100.469985 C 149.390363 107.177853 149.017485 120.627495 156.107819 125.108825 C 163.198153 129.590155 166.972131 132.438315 167.49755 137.479105 C 168.248956 144.571248 179.000275 150.617936 186.842015 150.99091 C 194.678105 151.358232 202.197814 148.080588 206.18083 145.961422 C 211.338977 143.209331 218.740043 138.151587 218.361515 129.539295 C 218.10163 123.447399 221.271094 116.558695 224.802137 112.04911 C 231.802076 103.109053 234.12974 93.762117 232.270999 83.307563 C 230.412258 72.858661 230.02808 69.501901 231.898121 61.65816 C 233.768161 53.82007 225.932071 54.187393 231.152364 46.349303 C 236.372658 38.511213 234.881146 37.392293 234.881146 29.548552 C 234.881146 21.710463 240.112739 16.110212 237.86982 15.358615 C 235.632551 14.612668 225.180665 23.569678 224.429259 18.721025 C 223.677853 13.872373 224.802137 6.768927 221.067706 7.147552 C 217.338925 7.531827 212.107332 14.618319 209.870063 11.26156 C 207.632795 7.899149 208.378551 2.298899 203.898364 2.671872 C 199.418177 3.039195 198.299543 13.872373 192.327843 7.899149 C 186.361793 1.931577 182.621713 -2.549753 176.282785 4.909712 C 169.932557 12.38048 168.068167 17.229132 159.480671 17.602105 C 150.887525 17.969428 143.429963 16.850508 146.407338 20.207267 C 149.390363 23.569678 150.141769 32.532339 144.537298 34.770178 C 138.938476 37.008018 132.588249 41.489348 137.819842 47.089598 C 143.051435 52.689848 146.02881 54.181742 145.288704 60.527938 Z M 145.277404 60.527938 " stroke="#313f51" stroke-width="2" stroke-opacity="1" stroke-miterlimit="4"></path></g><path stroke-linecap="round" transform="matrix(0.691412, 0, 0, 0.691236, 162.463578, 52.985137)" fill="none" stroke-linejoin="round" d="M 152.00051 76.209769 C 152.887508 71.762345 155.729291 65.009269 153.87055 57.171179 C 152.011809 49.327438 152.00051 41.122026 161.339412 37.759615 C 170.672664 34.397205 175.531379 27.310713 177.768648 31.792043 C 180.011566 36.267722 178.520053 42.240946 182.248835 40.381731 C 185.977616 38.522515 187.847656 30.667472 191.209209 33.662561 C 194.570761 36.651998 191.209209 45.981981 195.322167 45.609007 C 199.429476 45.241685 200.920989 32.170667 203.158257 33.289587 C 205.401176 34.408507 211.367226 46.727927 214.728778 47.100901 C 218.090331 47.468223 213.977372 37.01932 217.338925 38.889837 C 220.700478 40.760355 225.547893 45.981981 225.547893 49.33874 C 225.547893 52.701151 227.790812 59.787643 227.417934 63.528678 C 227.050705 67.269713 229.287974 83.691839 227.790812 89.659411 C 226.288 95.632635 223.310625 106.827484 218.079032 106.460162 C 212.847439 106.087188 198.429485 97.808312 196.80238 98.989394 C 196.13007 99.481041 193.440828 103.097751 190.830681 102.351804 C 188.220534 101.600207 185.791177 98.927232 185.649935 98.927232 C 184.469154 98.927232 172.542704 103.470724 167.311111 103.838046 C 162.079518 104.21102 157.232103 99.729689 155.74059 94.508064 C 154.249078 89.292089 150.887525 81.821321 152.011809 76.221071 Z M 152.00051 76.209769 " stroke="#313f51" stroke-width="2" stroke-opacity="1" stroke-miterlimit="4"></path><path stroke-linecap="round" transform="matrix(0.691412, 0, 0, 0.691236, 162.463578, 52.985137)" fill="none" stroke-linejoin="round" d="M 178.819486 114.428227 C 180.689526 115.179825 186.661226 119.661155 192.627275 118.909557 C 198.598975 118.15796 203.45769 114.428227 203.45769 114.428227 " stroke="#313f51" stroke-width="2" stroke-opacity="1" stroke-miterlimit="4"></path><path stroke-linecap="round" transform="matrix(0.691412, 0, 0, 0.691236, 162.463578, 52.985137)" fill="none" stroke-linejoin="round" d="M 180.740373 94.711504 C 182.231886 95.830423 188.367425 102.340502 192.180952 102.340502 C 194.508615 102.340502 201.028332 94.581528 201.028332 94.581528 " stroke="#313f51" stroke-width="2" stroke-opacity="1" stroke-miterlimit="4"></path><path stroke-linecap="round" transform="matrix(0.691412, 0, 0, 0.691236, 162.463578, 52.985137)" fill="none" stroke-linejoin="round" d="M 142.887595 73.542445 C 139.198361 69.85227 135.791611 73.542445 134.938511 79.221811 C 134.091061 84.901176 138.350911 95.400939 138.910228 99.93878 C 139.469545 104.482273 142.881945 107.31913 145.441245 105.32994 C 148.000545 103.340749 150.548545 103.340749 150.548545 103.340749 " stroke="#313f51" stroke-width="2" stroke-opacity="1" stroke-miterlimit="4"></path><path stroke-linecap="round" transform="matrix(0.691412, 0, 0, 0.691236, 162.463578, 52.985137)" fill="none" stroke-linejoin="round" d="M 232.59868 98.237796 C 234.29923 99.93878 236.85853 100.232638 239.982796 96.248606 C 243.101413 92.270224 243.67203 74.960874 241.400863 71.270699 C 239.129696 67.580524 232.881163 69.569714 231.751229 72.412223 " stroke="#313f51" stroke-width="2" stroke-opacity="1" stroke-miterlimit="4"></path><path stroke-linecap="round" transform="matrix(0.691412, 0, 0, 0.691236, 162.463578, 52.985137)" fill="none" stroke-linejoin="round" d="M 162.480645 76.102398 C 166.452362 75.819842 178.661295 72.129667 180.079362 72.129667 " stroke="#313f51" stroke-width="2" stroke-opacity="1" stroke-miterlimit="4"></path><path stroke-linecap="round" transform="matrix(0.691412, 0, 0, 0.691236, 162.463578, 52.985137)" fill="none" stroke-linejoin="round" d="M 200.802346 70.417381 C 203.920963 70.988143 216.129896 73.542445 217.830446 73.830652 " stroke="#313f51" stroke-width="2" stroke-opacity="1" stroke-miterlimit="4"></path><path stroke-linecap="round" transform="matrix(0.691412, 0, 0, 0.691236, 162.463578, 52.985137)" fill="none" stroke-linejoin="round" d="M 166.700947 136.162397 C 159.960893 137.309572 145.028819 146.119653 131.249278 155.800004 " stroke="#313f51" stroke-width="2" stroke-opacity="1" stroke-miterlimit="4"></path><path stroke-linecap="round" transform="matrix(0.691412, 0, 0, 0.691236, 162.463578, 52.985137)" fill="none" stroke-linejoin="round" d="M 171.729152 144.899013 C 168.819573 159.467575 159.169939 160.20787 154.718 164.660945 C 150.271711 169.108369 153.130444 212.717986 152.808412 224.822664 C 152.492031 236.921691 153.452475 271.608205 149.627649 280.197892 C 145.808473 288.78758 124.480975 307.57187 132.757739 322.530358 C 141.040153 337.488847 150.311259 336.669436 156.311207 343.541186 C 162.757479 350.921536 161.232068 361.681249 151.537237 363.777811 " stroke="#313f51" stroke-width="2" stroke-opacity="1" stroke-miterlimit="4"></path><path stroke-linecap="round" transform="matrix(0.691412, 0, 0, 0.691236, 162.463578, 52.985137)" fill="none" stroke-linejoin="round" d="M 232.819017 321.179743 C 231.632586 312.369662 232.530883 302.101595 233.649518 296.122721 C 235.559106 285.928118 234.920693 262.379942 232.061961 253.790254 C 229.197579 245.200567 231.417899 191.401998 231.417899 186.310348 C 231.417899 181.218698 228.321881 162.762172 215.350242 153.228749 C 212.581904 151.200001 211.192086 144.102206 211.988689 142.248642 " stroke="#313f51" stroke-width="2" stroke-opacity="1" stroke-miterlimit="4"></path><path stroke-linecap="round" transform="matrix(0.691412, 0, 0, 0.691236, 162.463578, 52.985137)" fill="none" stroke-linejoin="round" d="M 217.028193 137.219154 C 220.689178 138.021612 228.587415 141.768298 236.920676 146.492626 " stroke="#313f51" stroke-width="2" stroke-opacity="1" stroke-miterlimit="4"></path><path stroke-linecap="round" transform="matrix(0.691412, 0, 0, 0.691236, 162.463578, 52.985137)" fill="none" stroke-linejoin="round" d="M 138.797235 211.768599 C 134.322697 211.299557 130.520471 219.731014 137.209678 220.358287 C 143.898885 220.991211 144.84803 212.401524 138.797235 211.768599 Z M 138.797235 211.768599 " stroke="#e6eaef" stroke-width="2" stroke-opacity="1" stroke-miterlimit="4"></path><path stroke-linecap="round" transform="matrix(0.691412, 0, 0, 0.691236, 162.463578, 52.985137)" fill="none" stroke-linejoin="round" d="M 127.661738 225.139126 C 123.232398 225.139126 122.887768 233.728813 129.571326 232.779427 C 136.249234 231.83004 133.712533 225.139126 127.661738 225.139126 Z M 127.661738 225.139126 " stroke="#e6eaef" stroke-width="2" stroke-opacity="1" stroke-miterlimit="4"></path><path stroke-linecap="round" transform="matrix(0.691412, 0, 0, 0.691236, 162.463578, 52.985137)" fill="none" stroke-linejoin="round" d="M 109.198622 193.628536 C 95.791959 192.910845 92.972774 211.141326 106.017859 212.407175 C 119.068593 213.678675 120.978181 194.272762 109.198622 193.628536 Z M 109.198622 193.628536 " stroke="#e6eaef" stroke-width="2" stroke-opacity="1" stroke-miterlimit="4"></path><path stroke-linecap="round" transform="matrix(0.691412, 0, 0, 0.691236, 162.463578, 52.985137)" fill="none" stroke-linejoin="round" d="M 284.581279 200.308148 C 275.027689 199.081857 271.530545 213.678675 283.310103 214.000788 C 295.089662 214.31725 294.451249 201.59095 284.581279 200.308148 Z M 284.581279 200.308148 " stroke="#e6eaef" stroke-width="2" stroke-opacity="1" stroke-miterlimit="4"></path><path stroke-linecap="round" transform="matrix(0.691412, 0, 0, 0.691236, 162.463578, 52.985137)" fill="none" stroke-linejoin="round" d="M 250.547676 211.011351 C 242.259613 209.830269 242.570344 219.719711 249.259552 219.719711 C 255.948759 219.719711 257.242533 211.960737 250.547676 211.011351 Z M 250.547676 211.011351 " stroke="#e6eaef" stroke-width="2" stroke-opacity="1" stroke-miterlimit="4"></path><path stroke-linecap="round" transform="matrix(0.691412, 0, 0, 0.691236, 162.463578, 52.985137)" fill="none" stroke-linejoin="round" d="M 243.197457 233.728813 C 237.751177 233.728813 236.197518 244.228576 243.197457 243.917765 C 250.197397 243.612605 250.197397 233.728813 243.197457 233.728813 Z M 243.197457 233.728813 " stroke="#e6eaef" stroke-width="2" stroke-opacity="1" stroke-miterlimit="4"></path><path stroke-linecap="round" transform="matrix(0.691412, 0, 0, 0.691236, 162.463578, 52.985137)" fill="none" stroke-linejoin="round" d="M 153.130444 169.758246 C 156.949619 178.670047 182.367478 210.321915 187.457829 216.052141 C 192.54818 221.782366 197.949263 219.35804 201.960528 213.927323 C 207.299464 206.722158 227.361437 172.821148 227.067654 169.447435 " stroke="#313f51" stroke-width="2" stroke-opacity="1" stroke-miterlimit="4"></path><g clip-path="url(#0c57dcbaf3)"><path stroke-linecap="round" transform="matrix(0.691412, 0, 0, 0.691236, 162.463578, 52.985137)" fill="none" stroke-linejoin="round" d="M 32.611717 411.16237 C 32.611717 411.16237 27.820798 409.659175 17.498854 406.839271 C 7.182559 404.019367 0.148722 405.172193 1.092217 400.792583 C 2.030062 396.407321 15.589266 360.579283 23.108974 344.219319 C 33.041092 322.632078 32.741659 309.832314 36.498689 298.880462 C 40.261368 287.928611 47.509892 267.279454 50.95054 229.428319 C 54.391189 191.582834 64.707483 186.259488 64.707483 186.259488 C 68.780894 169.36832 82.848568 163.417701 91.611204 164.988709 L 93.492544 164.050625 C 97.238274 161.547183 116.582739 155.099267 131.147584 155.579611 " stroke="#313f51" stroke-width="2" stroke-opacity="1" stroke-miterlimit="4"></path></g><g clip-path="url(#fba2d7dd72)"><path stroke-linecap="round" transform="matrix(0.691412, 0, 0, 0.691236, 162.463578, 52.985137)" fill="none" stroke-linejoin="round" d="M 237.242707 146.340046 C 248.039223 148.14275 291.558619 168.221144 299.660244 176.771274 C 307.761868 185.321404 333.422662 239.792455 338.371772 262.747264 C 343.320881 285.707725 358.631483 333.420048 359.981753 345.581237 C 361.332024 357.742426 362.230321 405.449098 362.230321 411.750085 C 362.230321 418.051073 357.727536 437.411777 357.727536 437.411777 C 357.727536 437.411777 344.597706 436.501948 329.750378 441.91006 " stroke="#313f51" stroke-width="2" stroke-opacity="1" stroke-miterlimit="4"></path></g><path stroke-linecap="round" transform="matrix(0.691412, 0, 0, 0.691236, 162.463578, 52.985137)" fill="none" stroke-linejoin="round" d="M 111.029114 322.191292 C 111.029114 322.191292 98.441653 310.459587 106.548927 291.550972 C 114.661851 272.642358 124.458376 266.149232 124.91035 244.0986 " stroke="#e6eaef" stroke-width="2" stroke-opacity="1" stroke-miterlimit="4"></path><path stroke-linecap="round" transform="matrix(0.691412, 0, 0, 0.691236, 162.463578, 52.985137)" fill="none" stroke-linejoin="round" d="M 267.700069 280.751701 C 258.050436 276.891993 256.897903 293.348025 265.897825 294.252203 C 274.897747 295.15073 276.699991 284.351458 267.700069 280.751701 Z M 267.700069 280.751701 " stroke="#e6eaef" stroke-width="2" stroke-opacity="1" stroke-miterlimit="4"></path><path stroke-linecap="round" transform="matrix(0.691412, 0, 0, 0.691236, 162.463578, 52.985137)" fill="none" stroke-linejoin="round" d="M 278.948559 234.842082 C 280.29883 250.139637 287.050184 263.651442 292.897591 280.299612 C 297.598115 293.670139 299.682842 306.741157 299.857982 314.409713 " stroke="#313f51" stroke-width="2" stroke-opacity="1" stroke-miterlimit="4"></path><path stroke-linecap="round" transform="matrix(0.691412, 0, 0, 0.691236, 162.463578, 52.985137)" fill="none" stroke-linejoin="round" d="M 289.762025 272.648009 C 283.908968 282.548754 277.157614 294.257854 287.061483 305.961303 L 289.767674 309.171134 " stroke="#313f51" stroke-width="2" stroke-opacity="1" stroke-miterlimit="4"></path><path stroke-linecap="round" transform="matrix(0.691412, 0, 0, 0.691236, 162.463578, 52.985137)" fill="none" stroke-linejoin="round" d="M 301.061361 243.070098 C 292.129236 244.652409 294.168766 256.169372 302.439881 255.129568 C 310.710995 254.089763 306.920068 242.030294 301.061361 243.070098 Z M 301.061361 243.070098 " stroke="#e6eaef" stroke-width="2" stroke-opacity="1" stroke-miterlimit="4"></path><path stroke-linecap="round" transform="matrix(0.691412, 0, 0, 0.691236, 162.463578, 52.985137)" fill="none" stroke-linejoin="round" d="M 119.481018 361.008767 C 118.859555 380.82156 133.102369 383.918368 152.299942 403.109538 C 171.497516 422.300708 173.350607 444.599989 172.10768 453.879112 C 170.870402 463.158235 180.779921 468.119909 189.452162 485.457515 C 198.118753 502.800772 196.881476 510.847953 197.49729 523.851158 C 198.118753 536.848711 198.841911 552.010639 194.401271 559.758312 C 192.051009 563.87232 187.559523 566.121462 187.559523 566.121462 C 187.559523 566.121462 181.1302 570.721465 158.209495 569.992472 C 153.932696 569.851194 138.232268 568.212372 135.582573 564.098364 C 135.582573 564.098364 134.339646 564.098364 132.480905 557.910398 C 129.757765 548.85732 131.237978 523.86246 128.757774 505.28161 C 126.27757 486.700759 93.469945 421.068766 86.040631 408.071213 C 78.611317 395.068008 63.752689 388.258421 57.560653 364.111227 C 51.368616 339.958382 74.899485 321.388834 94.707222 320.151241 C 114.52061 318.907997 144.130522 333.657394 152.141752 366.72204 " stroke="#313f51" stroke-width="2" stroke-opacity="1" stroke-miterlimit="4"></path><path stroke-linecap="round" transform="matrix(0.691412, 0, 0, 0.691236, 162.463578, 52.985137)" fill="none" stroke-linejoin="round" d="M 207.412458 338.099167 C 207.412458 338.099167 249.508137 307.758356 266.852619 305.899141 C 284.191452 304.039926 308.948299 313.330351 315.151634 334.380736 C 321.349321 355.431122 309.581061 384.528688 301.530284 409.297504 C 293.479506 434.071971 282.33836 502.800772 280.479619 516.419948 C 278.620878 530.039123 279.242342 571.529574 268.722659 580.198377 " stroke="#313f51" stroke-width="2" stroke-opacity="1" stroke-miterlimit="4"></path><path stroke-linecap="round" transform="matrix(0.691412, 0, 0, 0.691236, 162.463578, 52.985137)" fill="none" stroke-linejoin="round" d="M 213.598845 565.341608 C 201.220421 561.007207 196.881476 555.429561 202.452049 541.188764 C 208.022622 526.947966 211.11864 496.612807 209.881363 479.891172 C 208.638436 463.169537 228.457473 435.309564 229.067637 425.397516 C 229.677801 415.49112 217.920841 409.297504 226.587432 397.537543 C 235.259673 385.777583 250.739765 358.52793 243.310451 361.630389 C 240.42912 362.828425 236.711638 367.010246 232.728622 371.847597 " stroke="#313f51" stroke-width="2" stroke-opacity="1" stroke-miterlimit="4"></path><path stroke-linecap="round" transform="matrix(0.691412, 0, 0, 0.691236, 162.463578, 52.985137)" fill="none" stroke-linejoin="round" d="M 136.66731 329.181715 C 152.379038 327.299895 162.847873 326.938224 178.757339 326.751738 C 194.672455 326.5596 214.107315 328.170166 220.028167 329.181715 " stroke="#313f51" stroke-width="2" stroke-opacity="1" stroke-miterlimit="4"></path><path stroke-linecap="round" transform="matrix(0.691412, 0, 0, 0.691236, 162.463578, 52.985137)" fill="none" stroke-linejoin="round" d="M 347.388642 438.372465 C 348.247392 445.278122 347.818017 462.11843 345.659844 469.029738 C 343.501671 475.941046 334.349208 488.288721 332.620409 489.288968 " stroke="#313f51" stroke-width="2" stroke-opacity="1" stroke-miterlimit="4"></path><path stroke-linecap="round" transform="matrix(0.691412, 0, 0, 0.691236, 162.463578, 52.985137)" fill="none" stroke-linejoin="round" d="M 6.267313 405.121333 C 4.967889 409.009297 1.950966 431.461158 3.25039 436.637575 C 4.549814 441.819643 9.301185 455.212774 11.448059 459.089435 C 13.600583 462.971748 28.719095 472.912051 28.719095 472.912051 " stroke="#313f51" stroke-width="2" stroke-opacity="1" stroke-miterlimit="4"></path><path stroke-linecap="round" transform="matrix(0.691412, 0, 0, 0.691236, 162.463578, 52.985137)" fill="none" stroke-linejoin="round" d="M 314.468025 370.802141 C 323.388851 384.720826 332.620409 443.362396 332.620409 509.378664 C 332.620409 533.881878 330.987655 552.530542 329.061118 568.822692 " stroke="#313f51" stroke-width="2" stroke-opacity="1" stroke-miterlimit="4"></path><path stroke-linecap="round" transform="matrix(0.691412, 0, 0, 0.691236, 162.463578, 52.985137)" fill="none" stroke-linejoin="round" d="M 303.711056 597.089545 C 302.247792 609.810194 295.818469 631.917337 290.649023 638.772134 " stroke="#313f51" stroke-width="2" stroke-opacity="1" stroke-miterlimit="4"></path><path stroke-linecap="round" transform="matrix(0.691412, 0, 0, 0.691236, 162.463578, 52.985137)" fill="none" stroke-linejoin="round" d="M 303.462471 403.697253 C 308.270338 429.240271 311.30986 466.458483 311.30986 508.971785 C 311.30986 539.979426 309.112139 564.058806 306.36075 582.102801 " stroke="#313f51" stroke-width="2" stroke-opacity="1" stroke-miterlimit="4"></path><path stroke-linecap="round" transform="matrix(0.691412, 0, 0, 0.691236, 162.463578, 52.985137)" fill="none" stroke-linejoin="round" d="M 121.102473 611.748525 C 122.531839 604.611173 151.791472 601.757362 168.921267 603.192744 C 186.051061 604.622475 196.401254 609.968425 197.469041 613.178256 " stroke="#313f51" stroke-width="2" stroke-opacity="1" stroke-miterlimit="4"></path><path stroke-linecap="round" transform="matrix(0.691412, 0, 0, 0.691236, 162.463578, 52.985137)" fill="none" stroke-linejoin="round" d="M 120.718296 596.920012 C 130.740808 587.120987 180.339247 583.911156 197.107463 598.8979 " stroke="#313f51" stroke-width="2" stroke-opacity="1" stroke-miterlimit="4"></path><path stroke-linecap="round" transform="matrix(0.691412, 0, 0, 0.691236, 162.463578, 52.985137)" fill="none" stroke-linejoin="round" d="M 201.559401 609.78759 C 199.180891 596.688316 200.751499 573.400091 218.898234 565.75979 C 229.36142 561.357576 259.897877 569.060039 265.677488 575.93744 C 271.462749 582.820492 273.112452 602.910189 273.112452 606.48169 C 273.112452 610.047541 273.389286 616.111182 271.180265 618.592019 C 268.971245 621.067206 246.688953 624.09055 229.35012 623.271139 C 212.011288 622.451728 202.661087 615.839929 201.559401 609.78759 Z M 201.559401 609.78759 " stroke="#313f51" stroke-width="2" stroke-opacity="1" stroke-miterlimit="4"></path><path stroke-linecap="round" transform="matrix(0.691412, 0, 0, 0.691236, 162.463578, 52.985137)" fill="none" stroke-linejoin="round" d="M 203.209104 613.918551 C 202.661087 607.871863 221.920806 604.837217 241.728544 607.318055 C 261.541931 609.798892 271.168966 616.128135 271.168966 618.59767 " stroke="#313f51" stroke-width="2" stroke-opacity="1" stroke-miterlimit="4"></path><path stroke-linecap="round" transform="matrix(0.691412, 0, 0, 0.691236, 162.463578, 52.985137)" fill="none" stroke-linejoin="round" d="M 201.282567 600.440654 C 202.378603 594.942123 222.468824 589.432291 234.581713 591.082415 C 246.688953 592.732539 265.677488 599.60994 272.547485 605.391026 " stroke="#313f51" stroke-width="2" stroke-opacity="1" stroke-miterlimit="4"></path><path stroke-linecap="round" transform="matrix(0.691412, 0, 0, 0.691236, 162.463578, 52.985137)" fill="none" stroke-linejoin="round" d="M 123.102456 577.937933 C 123.102456 572.450705 124.102447 514.509873 124.599618 504.021412 L 128.102412 503.518463 " stroke="#313f51" stroke-width="2" stroke-opacity="1" stroke-miterlimit="4"></path><path stroke-linecap="round" transform="matrix(0.691412, 0, 0, 0.691236, 162.463578, 52.985137)" fill="none" stroke-linejoin="round" d="M 162.147314 414.428712 C 183.638653 420.548864 213.152521 418.079329 225.672186 414.411758 " stroke="#313f51" stroke-width="2" stroke-opacity="1" stroke-miterlimit="4"></path><path stroke-linecap="round" transform="matrix(0.691412, 0, 0, 0.691236, 162.463578, 52.985137)" fill="none" stroke-linejoin="round" d="M 279.530475 528.468115 C 278.858165 546.370832 278.920311 571.778223 278.728222 582.899608 C 278.541783 594.427872 280.417473 610.912161 271.931671 616.410691 " stroke="#313f51" stroke-width="2" stroke-opacity="1" stroke-miterlimit="4"></path><path stroke-linecap="round" transform="matrix(0.691412, 0, 0, 0.691236, 162.463578, 52.985137)" fill="none" stroke-linejoin="round" d="M 81.142369 503.518463 L 112.611022 501.51797 C 113.611013 504.021412 112.611022 564.951682 111.61103 569.449965 C 110.611039 573.948249 96.62811 587.929096 92.628144 587.431798 C 88.628179 586.928849 90.628162 570.450212 90.628162 568.449719 C 90.628162 566.449226 76.097215 565.821953 76.097215 567.901561 C 76.097215 570.811883 73.809099 621.061554 75.797782 621.061554 C 77.792115 621.061554 88.95021 622.672121 90.628162 620.400375 C 91.650752 619.021504 89.131 606.419528 92.130974 604.419035 C 95.130948 602.418542 111.61103 584.939658 111.10821 586.940151 C 110.611039 588.940644 104.62239 626.401854 120.599653 629.888589 C 136.582565 633.380975 279.931602 636.879012 287.417412 620.897672 C 294.908873 604.921984 292.411719 590.432537 292.411719 590.432537 C 292.411719 590.432537 310.891784 598.920505 310.388964 600.920998 C 309.891793 602.921491 307.592378 620.338212 311.259013 621.338459 C 313.377639 621.920523 325.309738 622.112661 325.891654 619.032806 C 326.761703 614.398896 331.298387 569.958565 328.01028 568.800088 C 324.739122 567.652912 315.891741 566.957826 314.897399 570.450212 C 313.908707 573.942598 315.40022 586.928849 312.400246 585.928603 C 309.400272 584.928356 294.920172 574.439896 293.920181 566.449226 C 292.920189 558.458556 293.920181 511.509133 292.417369 511.509133 C 291.298734 511.509133 285.117997 508.141071 282.101074 508.768345 " stroke="#313f51" stroke-width="2" stroke-opacity="1" stroke-miterlimit="4"></path><path stroke-linecap="round" transform="matrix(0.691412, 0, 0, 0.691236, 162.463578, 52.985137)" fill="none" stroke-linejoin="round" d="M 88.142308 413.620603 C 90.14229 425.10931 89.142299 484.542035 91.639452 488.040073 C 94.142256 491.53811 124.599618 489.537617 124.599618 489.537617 " stroke="#313f51" stroke-width="2" stroke-opacity="1" stroke-miterlimit="4"></path><path stroke-linecap="round" transform="matrix(0.691412, 0, 0, 0.691236, 162.463578, 52.985137)" fill="none" stroke-linejoin="round" d="M 47.967516 375.758165 C 56.108688 409.139273 57.170825 483.54744 56.668005 522.500542 C 56.170834 561.447993 56.108688 614.850984 50.679356 636.828152 " stroke="#313f51" stroke-width="2" stroke-opacity="1" stroke-miterlimit="4"></path><path stroke-linecap="round" transform="matrix(0.691412, 0, 0, 0.691236, 162.463578, 52.985137)" fill="none" stroke-linejoin="round" d="M 71.278047 649.627916 C 70.758278 651.910965 70.278056 653.589345 69.837382 654.877798 C 66.701816 664.077805 54.730169 665.208027 49.882753 657.132591 C 46.798034 651.99008 43.888455 644.440197 43.617271 634.392523 " stroke="#313f51" stroke-width="2" stroke-opacity="1" stroke-miterlimit="4"></path><path stroke-linecap="round" transform="matrix(0.691412, 0, 0, 0.691236, 162.463578, 52.985137)" fill="none" stroke-linejoin="round" d="M 71.221551 390.230658 C 75.001179 410.851559 79.368373 445.707606 79.650856 497.528286 C 79.792098 522.732238 79.351424 545.590978 78.571769 565.720233 " stroke="#313f51" stroke-width="2" stroke-opacity="1" stroke-miterlimit="4"></path><path stroke-linecap="round" transform="matrix(0.691412, 0, 0, 0.691236, 162.463578, 52.985137)" fill="none" stroke-linejoin="round" d="M 55.668014 353.187631 C 49.679365 349.192296 38.741607 357.30729 38.741607 377.928191 " stroke="#313f51" stroke-width="2" stroke-opacity="1" stroke-miterlimit="4"></path><path stroke-linecap="round" transform="matrix(0.691412, 0, 0, 0.691236, 162.463578, 52.985137)" fill="none" stroke-linejoin="round" d="M 46.340411 627.882444 C 54.662373 583.990272 54.402488 429.822336 45.250025 385.528934 C 42.707674 373.23777 36.961961 377.470451 35.481748 383.630161 C 31.950706 398.277839 29.080674 454.201225 28.967681 500.331237 C 28.849038 551.632015 30.329251 609.968425 35.368755 628.430602 C 37.922405 637.777538 44.470371 637.721027 46.340411 627.882444 Z M 46.340411 627.882444 " stroke="#313f51" stroke-width="2" stroke-opacity="1" stroke-miterlimit="4"></path><path stroke-linecap="round" transform="matrix(0.691412, 0, 0, 0.691236, 162.463578, 52.985137)" fill="none" stroke-linejoin="round" d="M 37.628622 393.587417 C 38.628614 397.588403 44.131391 452.579356 43.187896 508.011096 C 42.187905 566.952175 40.928029 611.748525 37.928055 616.738455 " stroke="#313f51" stroke-width="2" stroke-opacity="1" stroke-miterlimit="4"></path><path stroke-linecap="round" transform="matrix(0.691412, 0, 0, 0.691236, 162.463578, 52.985137)" fill="none" stroke-linejoin="round" d="M 40.041031 417.768518 C 38.18794 438.988436 37.617323 560.391236 40.639896 595.139912 " stroke="#313f51" stroke-width="2" stroke-opacity="1" stroke-miterlimit="4"></path><path stroke-linecap="round" transform="matrix(0.691412, 0, 0, 0.691236, 162.463578, 52.985137)" fill="none" stroke-linejoin="round" d="M 275.852541 627.102591 C 276.067228 642.558378 278.728222 654.27878 283.649083 657.731608 C 288.569945 661.178785 297.072696 661.517852 300.462497 657.618586 C 301.648927 656.251017 303.869247 653.962318 305.869229 650.091307 " stroke="#313f51" stroke-width="2" stroke-opacity="1" stroke-miterlimit="4"></path><path stroke-linecap="round" transform="matrix(0.691412, 0, 0, 0.691236, 162.463578, 52.985137)" fill="none" stroke-linejoin="round" d="M 29.510049 423.012748 C 27.27278 420.209797 24.470545 428.047887 23.35191 431.398995 C 22.227626 434.750104 22.227626 453.788694 24.470545 458.258722 C 26.707813 462.72875 28.950732 463.858972 28.950732 463.858972 " stroke="#313f51" stroke-width="2" stroke-opacity="1" stroke-miterlimit="4"></path><g clip-path="url(#1928f891fc)"><path stroke-linecap="round" transform="matrix(0.691412, 0, 0, 0.691236, 162.463578, 52.985137)" fill="none" stroke-linejoin="round" d="M 87.277908 622.677772 C 94.560331 626.040183 94.871063 669.881495 89.831559 678.279045 C 84.792054 686.682246 77.221499 685.139493 74.407964 678.652018 C 70.198961 668.932109 71.142455 637.777538 74.407964 629.962053 C 76.871219 624.067945 80.012435 619.332315 87.277908 622.677772 Z M 87.277908 622.677772 " stroke="#313f51" stroke-width="2" stroke-opacity="1" stroke-miterlimit="4"></path></g><g clip-path="url(#06f06f12e0)"><path stroke-linecap="round" transform="matrix(0.691412, 0, 0, 0.691236, 162.463578, 52.985137)" fill="none" stroke-linejoin="round" d="M 321.750447 622.677772 C 329.02722 626.040183 329.337952 669.881495 324.298448 678.279045 C 319.258943 686.670943 311.688388 685.139493 308.880503 678.652018 C 304.6715 668.932109 305.609345 637.777538 308.880503 629.962053 C 311.338108 624.067945 314.479324 619.332315 321.750447 622.677772 Z M 321.750447 622.677772 " stroke="#313f51" stroke-width="2" stroke-opacity="1" stroke-miterlimit="4"></path></g><path stroke-linecap="round" transform="matrix(0.691412, 0, 0, 0.691236, 162.463578, 52.985137)" fill="none" stroke-linejoin="round" d="M 293.841085 505.468096 C 293.349564 525.687768 293.942779 548.162233 296.191347 571.840385 " stroke="#313f51" stroke-width="2" stroke-opacity="1" stroke-miterlimit="4"></path><path stroke-linecap="round" transform="matrix(0.691412, 0, 0, 0.691236, 162.463578, 52.985137)" fill="none" stroke-linejoin="round" d="M 305.761886 417.921098 C 301.400342 428.952065 296.558576 453.449627 294.569892 487.587984 " stroke="#313f51" stroke-width="2" stroke-opacity="1" stroke-miterlimit="4"></path><path stroke-linecap="round" transform="matrix(0.691412, 0, 0, 0.691236, 162.463578, 52.985137)" fill="none" stroke-linejoin="round" d="M 296.072704 592.438682 C 296.072704 596.609201 297.569866 613.308231 298.908838 616.981453 " stroke="#313f51" stroke-width="2" stroke-opacity="1" stroke-miterlimit="4"></path><path stroke-linecap="round" transform="matrix(0.691412, 0, 0, 0.691236, 162.463578, 52.985137)" fill="none" stroke-linejoin="round" d="M 285.688614 489.390688 C 293.100979 490.277912 310.637549 481.038347 310.637549 481.038347 " stroke="#313f51" stroke-width="2" stroke-opacity="1" stroke-miterlimit="4"></path><path stroke-linecap="round" transform="matrix(0.691412, 0, 0, 0.691236, 162.463578, 52.985137)" fill="none" stroke-linejoin="round" d="M 283.038919 502.28087 C 289.32135 502.28087 308.767509 511.430017 311.078224 513.091444 " stroke="#313f51" stroke-width="2" stroke-opacity="1" stroke-miterlimit="4"></path><path stroke-linecap="round" transform="matrix(0.691412, 0, 0, 0.691236, 162.463578, 52.985137)" fill="none" stroke-linejoin="round" d="M 133.147566 151.680345 C 116.351102 163.491165 99.33995 180.710098 102.842745 182.801009 C 109.209921 186.621159 141.989297 186.621159 139.130565 196.171535 C 136.271833 205.721911 107.622364 216.86025 113.66751 228.637163 C 119.718304 240.419728 146.977955 267.200339 144.232216 277.54187 " stroke="#e6eaef" stroke-width="2" stroke-opacity="1" stroke-miterlimit="4"></path><path stroke-linecap="round" transform="matrix(0.691412, 0, 0, 0.691236, 162.463578, 52.985137)" fill="none" stroke-linejoin="round" d="M 235.48001 143.181075 C 243.807622 147.88845 254.022222 156.862413 259.428955 161.47937 C 270.24807 170.707633 278.852515 179.619434 276.937277 182.812311 C 275.027689 185.999537 251.15784 186.310348 251.790603 195.538611 C 252.417716 204.772525 275.281924 210.259753 275.637854 221.720204 C 275.801694 226.73839 260.039119 251.049466 249.242603 272.648009 C 244.01101 283.102563 236.451753 309.792756 237.090166 313.607255 " stroke="#e6eaef" stroke-width="2" stroke-opacity="1" stroke-miterlimit="4"></path><path stroke-linecap="round" transform="matrix(0.691412, 0, 0, 0.691236, 162.463578, 52.985137)" fill="none" stroke-linejoin="round" d="M 93.430397 162.440059 C 89.272241 166.079374 79.729951 193.159494 80.040683 205.049429 C 80.351415 216.939365 88.797669 246.342091 86.611248 258.8593 C 84.419176 271.38216 66.588823 301.090046 75.967272 312.979982 C 85.351371 324.869918 83.797713 322.519056 83.797713 322.519056 " stroke="#e6eaef" stroke-width="2" stroke-opacity="1" stroke-miterlimit="4"></path><path stroke-linecap="round" transform="matrix(0.691412, 0, 0, 0.691236, 162.463578, 52.985137)" fill="none" stroke-linejoin="round" d="M 144.582495 395.610515 C 156.192564 399.690616 217.802198 399.70757 228.468772 394.062111 " stroke="#313f51" stroke-width="2" stroke-opacity="1" stroke-miterlimit="4"></path></svg>