<svg xmlns="http://www.w3.org/2000/svg" id="Layer_2" viewBox="0 0 1626.7 354.3"><defs><style>.cls-1,.cls-2{fill:#e6eaef;}.cls-3{fill:#f6d578;}.cls-4{fill:#313f51;}.cls-2,.cls-5,.cls-6{stroke-linecap:round;stroke-linejoin:round;stroke-width:2px;}.cls-2,.cls-6{stroke:#313f51;}.cls-5{stroke:#e6eaef;}.cls-5,.cls-6{fill:none;}</style></defs><g id="fills_mask"><path class="cls-3" d="M323.58,203.77c6.53-4.75-10.1-27.33-11.88-39.8s1.78-25.54,6.53-41.58-1.78-24.95-10.1-38.61c-8.32-13.66-21.98-23.17-34.46-23.76-17.84-.85-42.18,17.23-43.96,41.58s1.78,42.18-1.78,57.03c-3.56,14.85-15.45,16.04-15.45,25.54s4.75,12.48,8.91,12.48l.47,1.33s25.49-2.64,25.87-2.74,22.75-.09,27.85,0c5.1,.09,25.78,2.45,30.02,3.59s12.84,3.21,13.12,3.3,4.84,1.65,4.84,1.65Z"></path><path class="cls-1" d="M797.64,151.49c-.26-.39-1.41-.64-3.1-.94l-1.06,18.77c2.97-5.35,5.35-16.04,4.16-17.82Z"></path><path class="cls-3" d="M723.01,157.34c10.1-.59,12.85-16.55,5.13-23.08-7.72-6.53-1.19-11.29,2.97-19.6s-1.78-16.63-8.32-20.79,0-25.54,0-33.27-19.01-27.92-44.56-20.2-33.27,34.46-30.3,54.65c2.97,20.2-11.88,19.6-21.39,30.89-9.51,11.29,2.38,22.57,7.13,27.92l1.45,2.09s18.32-6.93,44.94-6.93c20.93,0,42.94,8.31,42.94,8.31Z"></path><path class="cls-4" d="M393.08,39.21c-21.98-.59-32.67,19.01-33.86,25.54-1.19,6.53-1.19,29.11,1.19,39.21,2.38,10.1,6.53,32.08,14.26,35.64s28.52,3.56,35.05-1.78,16.04-23.76,20.2-42.18c4.16-18.42,0-43.96-10.69-51.68-10.69-7.72-26.14-4.75-26.14-4.75Z"></path><path class="cls-4" d="M1003.97,152.74c2.04-5.24-6.13-13.54,1.01-19.66,8.32-7.13,7.72-27.33,.59-34.46-7.13-7.13-15.45-16.63-7.13-29.7,8.32-13.07-1.19-45.15-34.46-48.71-24.87-2.66-49.9,12.48-50.5,24.36s11.88,16.63,18.42,23.17c6.53,6.53,7.72,16.04,2.38,20.79s-11.88,11.88-8.91,19.01c2.97,7.13-14.85,12.48-17.23,23.76-2.38,11.29,2.38,17.82,4.75,19.6,0,0,21.7-6.39,45.12-6.23s45.95,8.07,45.95,8.07Z"></path><path class="cls-4" d="M137.99,51.68l-.03-.27c-6.09-7.72-14.62-13.89-24.15-15.14-13.91-1.81-21.51,.57-23.26,1.23-1.35-3.55-3.52-6.82-6.67-9.58-19.64-17.26-58.46,35.49-32.01,51.5,4.5,2.72,9.06,3.61,13.42,3.11l-.19,1.06c-2.7,7.41,7.01,37.01,18.36,40.78-.5,4.21-1.3,7.99-1.95,9.71-.88,2.35-3.52,7.64-3.52,7.64,0,0,6.76-2.35,18.8-2.06,12.04,.29,16.16,.29,20.27,.88,4.11,.59,9.69,2.06,9.4,1.17-.29-.88-10.57-13.51-5.58-15.86,4.99-2.35,7.34,1.76,12.92,0,5.58-1.76,12.34-8.81,13.22-24.38,.86-15.15,5.6-33.91-9.03-49.8Z"></path><path class="cls-4" d="M804.18,32.08c-5.55,2.77-5.94,14.85-2.38,20.2,3.56,5.35,7.57,9.94,2.81,17.07-4.75,7.13-12.32,17.98-8.75,20.36,3.56,2.38,11.29-16.04,16.04-11.29,4.75,4.75,6.53,11.88,5.94,20.2s-.54,16.42-5.29,18.8c-4.75,2.38-8.97,1.4-8.97,1.4,0,0,3.56,20.79,14.85,26.14s21.98,5.94,27.92,2.38,13.07-22.57,19.6-37.43c6.53-14.85,8.32-26.73,7.13-38.02s-18.42-29.11-29.11-35.64c-10.69-6.53-31.49-8.32-39.8-4.16Z"></path><path class="cls-4" d="M1228.01,66.64s-7.49,12.64-15.92,16.62c-8.43,3.98-10.3,6.32-15.68,5.38,0,0-12.47,20.89,.23,33.01,10.07,9.6,26.92,10.3,26.92,10.3,0,0,3.04-13.58,3.51-16.62s1.17-20.83,1.17-24.11,.47-10.07,1.17-14.04,1.17-6.32,1.17-6.32l-2.57-4.21Z"></path><path class="cls-4" d="M1249.78,93.32s-3.51,8.19-3.75,10.53c-.23,2.34,.23,13.11,1.4,13.81s3.51,1.17,5.85,1.4,4.21,.47,6.79,.94,3.51,.47,4.68,1.17,3.51,1.87,3.51,1.87c0,0,.94-5.85,1.64-8.66s2.57-7.49,4.21-9.13c1.64-1.64,4.92-7.72,4.92-7.72,0,0-5.38,1.4-11.94,.23s-13.11-3.28-13.11-3.28l-4.21-1.17Z"></path><path class="cls-4" d="M1321.46,70.48c-1,4.35-.33,9.53-.33,13.55s1.17,12.38,2.01,15.05,1.34,6.36,2.68,5.69,2.68-3.01,4.35-4.68c1.67-1.67,5.02-7.69,8.2-7.53s5.69,2.51,5.69,3.01,2.68,6.19,2.68,7.19,1.17,7.02,0,12.54-3.68,11.04-5.69,12.71-3.85,5.52-4.52,6.86-2.17,9.37-2.51,14.22-1.17,17.56-1.17,17.56l-1.51,18.73s9.03-1.34,9.7-1.67,13.71-2.17,15.55-2.34,25.42-1.51,27.76-1.34,18.73,.67,23.75,1.67,14.05,3.01,15.05,2.84,3.34-2.34,3.85-3.18,2.17-7.69,2.84-10.7,.67-19.74-2.34-38.97c-3.01-19.23-2.84-30.44-13.88-54.86-11.04-24.42-26.93-27.76-32.78-29.6s-19.4-4.35-25.76-4.18-16.22,1.67-23.92,10.37c-7.69,8.7-9.7,17.06-9.7,17.06Z"></path><path class="cls-3" d="M1512.03,141.31c7.57-2.24,31.07-5.29,50.8-5.82,5.93-4.15,11.22-10.11,15.5-18.44,5.08-9.86-.63-22.87-6.85-27.54s1.04-19.2,2.59-29.06c1.56-9.86-4.15-42.04-28.54-53.97s-56.05-3.11-65.91,14.53c-9.86,17.64,12.97,22.83,22.83,31.14,9.86,8.3,.52,21.28-8.3,28.02-8.82,6.75-14.92,26.27-11.49,36.13,4.24,12.21,3.99,19.68,28.9,24.91,.16,.03,.31,.06,.47,.09Z"></path><path class="cls-4" d="M509.86,179.39s2.47-1.94,2.47-5.64,.7-10.22,.7-10.22l-.35-3.88s4.91,1.93,6.68,2.46,8.04,1.1,11.98,.95c3.54-.14,6.63-.49,14.03-3.31s11.67-8.83,12.3-18.45c.43-6.51,1.09-14.44-.32-16.56s-.79-4.26-4.1-7.57c-2.52-2.52-3.23-9.64-3.4-14.93-.18-5.29,.01-13.97,3.36-15.74s7.75-2.82,12.69,.88,5.46,11.81,7.58,14.1,3,2.29,3.17-1.06c.18-3.35,.7-15.33,.88-16.04s4.23-15.33,4.23-15.33l.46-1.95,1.26,7.8s2.58,22.31,2.64,23.45,1.5,16.01,1.38,18.23,.3,14.1-.84,17.21-1.5,8.34-4.98,10.8-9.06,9.3-12.66,10.86-5.7,2.58-6,5.28-.3,6.06,.48,7.44,3.36,6.24,3.36,6.24c0,0-3.78,4.14-7.74,4.92s-16.43,4.8-25.97,4.74-13.2-.48-15.95-1.44-7.35-3.24-7.35-3.24Z"></path><path class="cls-3" d="M1228.23,6.45c-2.16,1.23-5.39,9.24-5.7,9.7s-4.16,16.01-4.16,16.01l-1.85,9.55s2.62,8.47,4.77,11.7,10.32,18.94,11.85,21.4,6.16,10.93,11.39,14.47c5.23,3.54,6.62,5.08,15.86,7.24s16.78,2.93,21.4-.62c4.62-3.54,8.78-7.39,10.93-13.39s9.08-32.48,9.24-33.1,3.69-18.17-.77-25.1c-4.46-6.93-10.78-7.85-12.93-8.01s-4.46-.46-4.46-.46c0,0-4.93-5.39-6-6.16s-6.93-5.7-12.47-6-9.08,2.46-9.08,2.46l-8.78,4.31s-7.54-4.31-11.24-4.46-8.01,.46-8.01,.46Z"></path><path class="cls-3" d="M366,61.33c-1.01,13.37,16.64,19.42,31.52,18.41s27.24-10.09,25.98-22.95c-1.26-12.86-11.1-18.16-28.25-17.91s-28.33,10.21-29.25,22.45Z"></path><path class="cls-4" d="M1209.02,192.75c-.4-7.56-3.58-10.94-10.74-18.89-4.67-5.19-8.43-7.68-14.16-11.82,.33-1.97,.4-4.23-.16-6.68-.99-4.38-9.33-25-10.54-28.64-8.35-25.06-8.48-42.17-9.55-50.72-.2-1.59,3.89-6.77,3.69-22.88-.22-17.74-7.33-22.63-20.2-32.01-9.55-6.96-34.61-13.92-40.17-12.73-13.84,2.97-28.08,14.63-34.41,20.49-10.74,9.94-6.53,17.39-5.57,26.65,.5,4.76,7.9,33.28,8.69,47.4,.16,2.81,0,3.96-3.55,11-2.3,4.56-13.77,29.22-16.88,34.48s-7.87,16.78-10.74,18.7c-2.87,1.91-8.12,3.57-8.12,3.57,0,0-6.6,2.41-11.6,8.92-5.13,6.69-7.14,27.43-7.14,27.43,0,0,40.09-18.79,83.35-19.74,43.26-.96,72.41,13.62,72.41,13.62,0,0,.03-.15,.09-.42,4.77,2.04,10.61,4.88,16.38,8.58,13.33,8.55,16.91,13.52,16.91,13.52,0,0,1.19-9.75,1.39-11.93,.2-2.19,.99-10.34,.6-17.9Z"></path><polygon class="cls-1" points="1549.03 108.48 1547.25 136.08 1557.98 135.56 1559.36 108.26 1549.03 108.48"></polygon><path class="cls-3" d="M1613.44,280.32c-1.08-5.15-3.46-14.13-3.46-14.13-.26-2.59-7.78-46.92-12.44-58.07-4.67-11.15-20.48-29.29-24.63-32.66-4.15-3.37-11.92-3.89-15.29-3.89s-8.3-.78-11.41,.78c-3.11,1.56-13.16,8.58-16.59,15.81-2.33,4.93-6.25,23.35-6.71,35.53-.51,13.46-2.12,28.22-2.9,32.36-.78,4.15-6.3,29.13-6.3,29.13-1.11,4.45-3.24,15.27-4.94,24.35l2.99,20.6c4.09,4.31,9.47,9.85,12.7,13.4,6.23,6.85,23.88,10.46,35.8,9.65,11.92-.81,33.68-4.95,38.29-6.85,4.61-1.9,18.45-9.79,18.99-21.17,.54-11.38-3.02-39.69-4.1-44.84Z"></path><path class="cls-1" d="M1541.27,208.62c.94-1.14,6.48-8.62,6.68-8.69s4.34-1.4,4.61-1.2,2.61,2.54,2.34,2.61-3.07,.87-3.14,1.07-5.28,10.16-5.55,10.09-4.94-3.88-4.94-3.88Z"></path></g><g id="lines_2"><path class="cls-6" d="M1073.25,32.17c-4.59,8.71-11.06,21.52-10.83,25.88,.23,4.36,4.13,11.46,2.75,16.74s-4.13,15.13-2.75,21.55c1.38,6.42,6.99,16.37,6.99,16.37"></path><path class="cls-6" d="M1054.96,71.54c4.59,2.52,9.63,0,10.09-.92"></path><path class="cls-6" d="M120.87,342.3c.46-2.3,7.43-62.55,10.53-89.49,1.05-9.15,5.77-17.49,13.11-23.04,17.61-13.32,55.65-34.91,117.27-34.91,66.92,0,102.68,26.46,116.34,39.65,4.26,4.11,6.8,9.67,7.23,15.57l6.38,88.95"></path><path class="cls-6" d="M408.14,339.68l18.73-90.81c1.25-5.97,4.69-11.26,9.67-14.8,16.68-11.88,58.33-37.43,108.03-37.43,45.06,0,87.53,20.14,109.2,32.39,9.31,5.26,15.34,14.85,16.05,25.53l5.26,79.23"></path><path class="cls-6" d="M694.09,335.75c0-1.34,5.51-56.8,8.22-83.99,1.03-10.29,6.41-19.63,14.8-25.69,18.63-13.45,56.08-34.4,107.86-33.59,54.3,.85,92.25,22.6,109.5,34.97,6.6,4.73,10.77,12.13,11.36,20.24l6.01,82.81"></path><path class="cls-6" d="M969.55,332.47l11.37-86.05c1.05-7.93,4.94-15.23,11-20.46,16.49-14.23,54.43-39.68,114.04-38.82,54.58,.79,85.02,20.52,99.39,33.81,6.65,6.15,10.75,14.56,11.58,23.58l7.74,84.01"></path><path class="cls-6" d="M1241.73,329.84l8.3-74.24c2.51-22.43,15.53-42.45,35.25-53.44,18.01-10.05,45.11-19.33,85.05-21.56,79.7-4.46,115.68,34.82,125.46,48.03,1.86,2.51,3.01,5.49,3.37,8.59l14.03,104.63"></path><path class="cls-6" d="M1,174.17s26.08-33.61,98.62-34.46c82.32-.97,102.62,62.49,102.62,62.49"></path><path class="cls-6" d="M323.71,203.51c6.53-4.75-10.23-27.06-12.01-39.54s1.78-25.54,6.53-41.58-1.78-24.95-10.1-38.61c-8.32-13.66-21.98-23.17-34.46-23.76-17.84-.85-42.18,17.23-43.96,41.58s1.78,42.18-1.78,57.03c-3.56,14.85-15.45,16.04-15.45,25.54s5.24,13.78,9.4,13.78"></path><path class="cls-6" d="M440.02,231.1c0-5.35,3.56-30.89,9.51-33.27,5.94-2.38,56.44-11.88,60.59-19.01,4.16-7.13,2.97-18.42,1.78-21.39s-26.14-46.93-26.73-58.81,13.66-56.44,33.86-60.59,45.74,4.16,49.31,6.53,14.85,13.66,14.26,19.6-4.75,16.63-5.35,24.95,.59,16.04-2.97,13.66c-3.56-2.38-2.97-11.29-8.91-15.45s-12.15-2.57-14.26,2.38c-3.1,7.28-.78,24.15,3.38,28.91s3.71,13.59,3.4,21.93c-.49,13.24-7.1,16.37-11.43,18.84-4.61,2.64-12.54,3.95-19.77,3.71-9.27-.31-13.3-3.53-13.3-3.53"></path><path class="cls-6" d="M582.11,67.03c2.38,10.69,9.39,60.1,2.85,71.98-6.53,11.88-15.45,15.45-20.2,19.01-4.75,3.56,.59,14.26,.59,14.26,.59,3.56,11.88,7.13,25.54,9.51,13.66,2.38,35.05,8.32,41.58,12.48s8.32,21.98,8.32,27.33"></path><path class="cls-6" d="M510.12,178.82s7.13,7.72,29.11,4.75,27.33-8.32,27.33-8.32"></path><path class="cls-6" d="M318.23,180.01s13.07-27.33,70.1-27.33,84.36,31.49,89.7,38.02"></path><path class="cls-6" d="M712.55,229.02c-.45-6.37,3.09-22.36,13.19-25.92,10.1-3.56,58.84-28.44,67.75-33.79,8.91-5.35,21.96-8.62,35.64-9.51,12.56-.81,20.29,3.05,24.95,5.94,2.53,1.56,7.72,6.53,20.79,13.07,13.07,6.53,40.4,19.6,43.96,22.57,3.56,2.97,6.53,19.01,6.53,19.01"></path><path class="cls-6" d="M793.49,169.31c2.97-5.35,5.35-16.04,4.16-17.82s-20.79-.59-26.14-15.45c-5.35-14.85-2.38-29.11-2.38-29.11,0,0-7.13-7.72-6.53-10.1s13.66-12.48,17.23-18.42c3.56-5.94,13.68-28.6,19.62-33.35"></path><path class="cls-6" d="M842.79,149.71c-.59,3.56-.47,8.05,.71,10.42"></path><path class="cls-6" d="M595.66,181.79s24.95-32.67,81.98-32.67,84.47,36.03,84.47,36.03"></path><path class="cls-6" d="M723.39,156.84c10.1-.59,12.48-16.04,4.75-22.57-7.72-6.53-1.19-11.29,2.97-19.6s-1.78-16.63-8.32-20.79,0-25.54,0-33.27-19.01-27.92-44.56-20.2-33.27,34.46-30.3,54.65c2.97,20.2-11.88,19.6-21.39,30.89-9.51,11.29,3.59,24.2,8.35,29.55"></path><path class="cls-6" d="M393.08,39.21c-21.98-.59-32.67,19.01-33.86,25.54-1.19,6.53-1.19,29.11,1.19,39.21,2.38,10.1,6.53,32.08,14.26,35.64s28.52,3.56,35.05-1.78,16.04-23.76,20.2-42.18c4.16-18.42,0-43.96-10.69-51.68-10.69-7.72-26.14-4.75-26.14-4.75Z"></path><path class="cls-6" d="M358.09,78.79c-5.35-4.16-10.39,6.15-9.56,15.08,.74,8.01,5.63,25.09,13.18,18.38"></path><path class="cls-6" d="M431.58,80.87c6.17-2.39,8.76,11.29,5.79,20.8-2.97,9.51-6.53,18.42-14.26,14.85"></path><path class="cls-6" d="M919.17,57.72c-2.38,5.94-11.03,13.58-15.78,16.55-4.75,2.97-13.66,5.35-10.69,7.72,2.97,2.38,8.91,5.94,8.91,5.94,0,0-10.1,15.45-4.16,23.76,5.17,7.24,11.69,10.43,15.65,11.13"></path><path class="cls-6" d="M1003.97,152.74c2.04-5.24-6.13-13.54,1.01-19.66,8.32-7.13,7.72-27.33,.59-34.46-7.13-7.13-15.45-16.63-7.13-29.7,8.32-13.07-1.19-45.15-34.46-48.71-24.87-2.66-49.9,12.48-50.5,24.36s11.88,16.63,18.42,23.17c6.53,6.53,7.72,16.04,2.38,20.79s-11.88,11.88-8.91,19.01c2.97,7.13-14.85,12.48-17.23,23.76-2.38,11.29,2.38,17.82,4.75,19.6"></path><path class="cls-6" d="M867.84,174s31.99-29.8,88.43-29.05c46.86,.62,69.78,18.66,75.28,24.04"></path><path class="cls-6" d="M1188.38,155.26c11.75-5.38,25.72-12.09,58.97-12.09,54.06,0,84.95,30.89,84.95,30.89"></path><path class="cls-6" d="M1223.02,131.82c-2.98-.75-24.31-1.96-30.25-15.63-5.94-13.66,4.09-27.67,4.09-27.67,0,0-8.55-7.51-7.78-10.78,1.1-4.63,17.48-15.7,15.63-18.76-4.3-7.13,1.48-8.76,11.85-16.26"></path><path class="cls-6" d="M1270.67,145.5s-1.4-6.23-1.56-9.86c-.47-10.87-2.39-22.54,10.61-38.72"></path><path class="cls-6" d="M913.95,67.86c2.08,1.56,3.63,6.75,3.63,6.75"></path><path class="cls-6" d="M1204.96,59.33c1.09,1.77,3.35,4.24,3.35,4.24"></path><path class="cls-6" d="M1331.45,185.23c.8-4.52,1.36-47.15,6.8-53.64,5.44-6.5,8.49-10.91,9.01-19.19s-1.9-19.36-8.12-19.75-10.11,11.84-13.25,12.17c-3.14,.32-6.62-26.37-4.19-35.28,1.79-6.59,10.15-22.4,25.61-25.59,11.59-2.39,31.85,2.09,41.5,5.81,9.65,3.73,21.63,17.22,28.35,34.28,6.73,17.06,11.52,52,12.49,63.94,2.93,36.19-5.85,36.19-5.85,36.19"></path><path class="cls-6" d="M1563.49,135.03c5.67-4.13,10.71-9.96,14.84-17.98,5.08-9.86-.63-22.87-6.85-27.54-6.23-4.67,1.04-19.2,2.59-29.06,1.56-9.86-4.15-42.04-28.54-53.97-24.39-11.94-56.05-3.11-65.91,14.53-9.86,17.64,12.97,22.83,22.83,31.14,9.86,8.3,.52,21.28-8.3,28.02s-14.92,26.27-11.49,36.13c4.17,12.01,4.88,19.89,28.58,25.11"></path><path class="cls-6" d="M1482.73,41.24c-5.19,2.08-28.54,20.24-26.47,22.32,2.08,2.08,10.38,6.75,9.34,8.3-1.04,1.56-16.09,21.8-3.63,28.54,12.46,6.75,19.86,3.69,19.86,3.69"></path><line class="cls-6" x1="1477.54" y1="46.43" x2="1481.18" y2="52.66"></line><path class="cls-6" d="M79.03,140.57c1.27-2.54,4.96-13.81,4.32-16.35"></path><path class="cls-6" d="M83.89,27.92c-19.64-17.26-58.46,35.49-32.01,51.5s54.98-31.32,32.01-51.5Z"></path><path class="cls-6" d="M375.43,141.53c.66,3.32-1.33,11.28-1.33,11.28"></path><path class="cls-6" d="M409.72,137.83s-.43,13.66,.89,15.65"></path><path class="cls-6" d="M584.65,78.23c4.54-.5,10.34,1.01,13.11,9.08s-.25,20.93-10.09,21.94"></path><path class="cls-6" d="M570.53,93.1s24.97-5.55,27.24-5.8"></path><path class="cls-6" d="M366,61.33c-1.01,13.37,16.64,19.42,31.52,18.41s27.24-10.09,25.98-22.95c-1.26-12.86-11.1-18.16-28.25-17.91s-28.33,10.21-29.25,22.45Z"></path><path class="cls-6" d="M394.77,40.09c-26.48,0-32.54,29.9,0,29,30.71-.84,29.51-29,0-29Z"></path><path class="cls-6" d="M395.68,42.97c-16.64,.29-15.14,16.3,1.51,15.13,14.38-1.01,13.11-15.38-1.51-15.13Z"></path><path class="cls-6" d="M125.55,141.01c-2.78-5.57-8.95-14.26-4.08-15.65,4.87-1.39,11.83,4.87,18.79-4.18,6.96-9.05,9.74-38.97,6.26-52.89-3.48-13.92-16.7-29.93-32.71-32.01-16.01-2.09-23.66,1.39-23.66,1.39"></path><path class="cls-6" d="M65.1,83.6c-2.67,7.34,6.82,36.45,18.04,40.66"></path><path class="cls-5" d="M139.37,49.81s2.37,2.5-.07,15.3c-1.54,8.07-5.29,18.5-9.46,20.59-4.18,2.09-3.2-11.16-10.16-11.85-6.96-.7-11.11,10.72-8.33,21.16,.08,.29,.17,.57,.23,.85,.64,2.99,2.73,8.26,4.77,9.89,1.66,1.32,3.97-.92,3.66-2.75"></path><path class="cls-5" d="M79.63,124.85c6.49,4.39,27.81,2.72,33.68-23.58"></path><path class="cls-5" d="M89.77,30.75c7.42,8.69-3.18,26.5-3.18,26.5"></path><path class="cls-5" d="M59.48,84.49c7.63,1.27,14.6-4.35,16.09-6.26"></path><path class="cls-6" d="M1283.05,15.26c13.66,2.05,24.13,7.5,19.47,31.76-8.48,44.06-16.75,54.46-38.44,50.43-22.81-4.24-28.24-18.91-35.27-30.76-4.45-7.5-12.01-21.31-12.24-23.85-.21-2.26,5.74-35.25,12.51-36.35,13.86-2.25,27.99,10.29,34.48,18.83s15.65,13.26,22.01,10.61c5.96-2.48,.53-18.56-5.57-24.13-10.82-9.88-15.77-11.14-32.74-1.59"></path><path class="cls-6" d="M1196.86,88.52s16.57,1.77,31.42-22.63"></path><path class="cls-6" d="M1219.14,145.07c3.5-9.75,6.64-16.43,8.6-36.49,1.33-13.53-1.06-20.42,3.18-38.45"></path><path class="cls-6" d="M1245.78,90.75c-1.93,5.15-1.55,20.21,1.24,26.82,1,2.38,12.28-.1,21.62,2.15"></path><path class="cls-6" d="M1231.46,91.35c3.45,6.36,9.02,1.33,9.81-4.77"></path><path class="cls-6" d="M1219.1,29.56c6.24,14.09,26.42,33.4,53.8,38.87,20.1,4.02,26.09-5.19,27.38-10.34"></path><path class="cls-6" d="M1235.17,77.56c11.74,9.87,46.08,20.03,57.24,5.29"></path><path class="cls-6" d="M1321.08,87.89c-4.6,5.31-18.81,15.08-18.12,20.99,.69,5.91,11.47,4.19,10.9,8.95-.57,4.76,1.77,22.78,3.57,32.22,1.8,9.45,12.85,9.47,15.57,8.57"></path><path class="cls-5" d="M817.97,89.07c5.46-3.52,14.45-3.17,13.21,8.28-1.23,11.45-6.52,17.09-14.62,13.74"></path><path class="cls-5" d="M831.19,97.35c8.46,.18,12.97-7.94,10.68-20.1"></path><path class="cls-5" d="M841.58,65.28c-9.34,.17-7.05,12.33,1.06,11.63s8.63-11.8-1.06-11.63Z"></path><path class="cls-6" d="M804.18,32.08c-5.55,2.77-5.94,14.85-2.38,20.2,3.56,5.35,7.57,9.94,2.81,17.07-4.75,7.13-12.32,17.98-8.75,20.36,3.56,2.38,11.29-16.04,16.04-11.29,4.75,4.75,6.53,11.88,5.94,20.2s-.54,16.42-5.29,18.8c-4.75,2.38-8.97,1.4-8.97,1.4,0,0,3.56,20.79,14.85,26.14s21.98,5.94,27.92,2.38,13.07-22.57,19.6-37.43c6.53-14.85,8.32-26.73,7.13-38.02s-18.42-29.11-29.11-35.64c-10.69-6.53-31.49-8.32-39.8-4.16Z"></path><path class="cls-6" d="M1426.89,178.64c7.29-15.04,19.64-39.17,35.59-41.91,15.95-2.74,25.7-5.45,25.7-5.45"></path><path class="cls-6" d="M1571.56,127.2c4.3,2.21,9.06,5.44,13.14,9.06"></path><path class="cls-6" d="M1018.11,207.69c.45-8.7,3.61-22.89,7.58-28.32,3.17-4.34,14.24-12.18,24.04-12.18"></path><path class="cls-6" d="M1046.16,166.73s27.24-51.62,38.1-74.18c9.01-18.73,12.59-27.48,14-31.72"></path><path class="cls-6" d="M1076.56,107.23c.47-18.66-12.83-54.34-10.97-66.94,1.87-12.6,31.35-30.87,42.56-31.7,12.38-.92,52.5,14.2,57.63,35.19s-2.16,34.04-2.16,34.04"></path><path class="cls-6" d="M1162.16,51.03c0,15.4,2.33,56.45,11.66,78.37,9.33,21.93,14.46,32.66,7,40.12"></path><path class="cls-6" d="M1184.5,161.74c9.33,9.8,24.79,18.51,24.79,31.58s-1.87,28.46-1.87,28.46"></path><path class="cls-5" d="M1099.19,153.19c-12.6,12.6-30.63,14.5-46.28,14.01-4.28-.14-11.5-.69-15.76,.79"></path><path class="cls-5" d="M1056.17,166.91c19.62-9.81,45.16-42.38,56.89-83.53"></path><path class="cls-5" d="M1186.37,159.49c.59,6.47-4.38,14.68-9.68,16.74"></path><path class="cls-5" d="M1068.28,119.36c5.65-10.21,23.88-49.54,26.71-67.52"></path><path class="cls-6" d="M1488.58,218.98c7.26-50.42,12.18-73.44,22.25-77.28,9.52-3.63,68.91-10.24,80.21-3.17,10.88,6.8,27.86,126.6,34.66,187.78"></path><path class="cls-2" d="M1521.71,42.01c-3.5,2.8-17.22,59.82-9.52,63.89s72.05,2.27,74.77-2.27c2.72-4.53,1.36-58.46-3.63-62.54s-57.1-2.72-61.63,.91Z"></path><line class="cls-2" x1="1549.27" y1="108.62" x2="1547.46" y2="135.81"></line><line class="cls-2" x1="1559.24" y1="108.17" x2="1557.88" y2="134.91"></line><path class="cls-6" d="M1547.76,171.58s3.63-26.7,6.22-29.29c0,0,2.33-1.3,3.89-.26s5.44,12.44,5.96,17.63c.52,5.18,3.11,12.7,3.11,12.7"></path><path class="cls-6" d="M1555.28,171.58c.52-.78,1.3-27.48,2.33-26.44,1.04,1.04,2.33,26.96,2.33,26.96"></path><path class="cls-6" d="M1511.87,330.25c4.07,4.29,9.39,9.76,12.59,13.28,6.23,6.85,23.88,10.46,35.8,9.65,11.92-.81,33.68-4.95,38.29-6.85,4.61-1.9,18.45-9.79,18.99-21.17,.54-11.38-3.02-39.69-4.1-44.84s-3.46-14.13-3.46-14.13c-.26-2.59-7.78-46.92-12.44-58.07-4.67-11.15-20.48-29.29-24.63-32.66-4.15-3.37-11.92-3.89-15.29-3.89s-8.3-.78-11.41,.78c-3.11,1.56-13.16,8.58-16.59,15.81-2.33,4.93-6.25,23.35-6.71,35.53-.51,13.46-2.12,28.22-2.9,32.36s-6.3,29.13-6.3,29.13c-1.11,4.44-3.22,15.2-4.92,24.26"></path><path class="cls-6" d="M1543.35,210.98c-.78,3.37-5.44,46.4-4.41,58.59l-1.39,18.89c-.08,12.27-6.19,56.95-5.05,59.25"></path><path class="cls-6" d="M1554.22,200.08c6.74-3.11,37.61-3.36,43.31,8.05"></path><path class="cls-6" d="M1548.17,199.95s-7.69,7.94-7.06,8.57,4.79,4.03,5.17,3.91,5.29-10.21,5.29-10.21l-3.4-2.27Z"></path><path class="cls-6" d="M1548.17,199.95c1.13-.25,4.03-1.26,4.03-1.26l2.65,2.65-3.28,.88"></path><line class="cls-6" x1="1544.76" y1="207.9" x2="1545.39" y2="208.4"></line><path class="cls-6" d="M1557.61,145.14c5.6,.6,6.4-3.91,6.13-6.04"></path><path class="cls-6" d="M1539.45,273.82c7.59-4.07,15.18-.81,33.61-1.9s36.05-8.67,36.05-8.67"></path><path class="cls-6" d="M1537.09,298.81c6.78,5.15,43.28,8.07,55.48,5.09,12.2-2.98,21.14-9.21,22.49-10.84"></path></g></svg>