<svg xmlns="http://www.w3.org/2000/svg" xmlns:xlink="http://www.w3.org/1999/xlink" width="250" height="250" viewBox="0 0 250 250"><defs><clipPath id="clip-path"><path id="Path_674" data-name="Path 674" d="M0,239.232H212.01V0H0Z" fill="#28325a"></path></clipPath><clipPath id="clip-path-2"><rect id="Rectangle_100" data-name="Rectangle 100" width="91.081" height="152.975" fill="none"></rect></clipPath><clipPath id="clip-Call"><rect width="250" height="250"></rect></clipPath></defs><g id="Call" clip-path="url(#clip-Call)"><g id="Group_247" data-name="Group 247" transform="translate(-209.227 -12251.273)"><g id="Group_197" data-name="Group 197" transform="translate(222.227 12251.273)"><g id="Group_172" data-name="Group 172" transform="translate(12.52 0) rotate(3)"><g id="Group_99" data-name="Group 99" transform="translate(0 0)" clip-path="url(#clip-path)"><g id="Group_98" data-name="Group 98" transform="translate(0 0)"><path id="Path_673" data-name="Path 673" d="M181.86,216.756c-22.83,19.777-55.7,27.286-84.856,19.38-13.692-3.713-26.4-10.549-37.906-18.844C30.5,196.686,8.6,165.994,1.724,131.426-12.249,61.184,61.089-32.972,135.243,11.479c62.65,37.555,110.323,150.086,46.617,205.277" fill="#28325a"></path></g></g></g></g><g id="Group_228" data-name="Group 228" transform="translate(296.606 12295.957)"><g id="Group_227" data-name="Group 227" clip-path="url(#clip-path-2)"><path id="Path_1401" data-name="Path 1401" d="M73.567,223.785c.117-.974.289-2.252.364-2.831a26.278,26.278,0,0,0-.275-5.664c-.065-.688-.352-4.526-.64-8.536-.271-4.01-.556-8.018-.631-8.9s-.151-2.029-.187-2.553-.124-1.476-.206-2.127c-.127-1.131-.32-3.67-.611-7.811-.065-1.076-.221-3.092-.335-4.454s-.29-3.824-.383-5.466-.242-3.543-.317-4.233c-.284-2.9-.326-3.4-.481-5.342-.085-1.123-.258-2.968-.371-4.1s-.238-2.521-.28-3.074c-.057-.574-.192-1.979-.312-3.152-.105-1.171-.352-4.123-.532-6.575s-.454-5.8-.615-7.452c-.7-7.571-.6-6.616-1.334-12.192a31.493,31.493,0,0,0-.811-3.816c-.308-1.092-.639-2.447-.74-3.012-.89-5.531-1.835-7.471-4.383-8.924a14.24,14.24,0,0,0-5.973-1.2l0,0c-.753.021-2.26.08-3.332.12s-2.2.107-2.47.116c-2.943.12-7.713.454-12.031.858-1.451.129-3.133.287-3.737.352-1.068.1-3.525.4-7.917.963-1.164.15-2.767.411-3.561.583s-2.629.534-4.062.824a70.514,70.514,0,0,0-7.7,1.8,10.229,10.229,0,0,1-2.115.47,7.928,7.928,0,0,0-2.944,1.1q-.174.171-.352.337c-1.457,1.367-3.141,2.714-3.732,4.663a.092.092,0,0,1,.044-.008,8.119,8.119,0,0,1-.255,1.335h0a19.016,19.016,0,0,0-.25,5.627c.092.922.168,1.713.487,5.774.308,3.885.96,11.228,1.23,13.969.1,1.014.3,3.149.426,4.757s.4,4.4.578,6.221c.191,1.821.453,4.936.564,6.941.131,2,.265,4.136.314,4.737.36,4.643.533,6.644.815,9.65.163,1.886.355,3.705.4,4.029s.234,1.972.418,3.676c.183,1.687.386,3.61.456,4.255s.2,2,.294,3.006.323,3.253.488,4.982.369,3.708.43,4.4c.178,1.816,1.19,10.509,1.35,11.545.648,4.234,1.418,8.432,1.74,9.456a7.607,7.607,0,0,0,2.313,2.833c1.164.888,2.173,1.2,5.636,1.72a46.835,46.835,0,0,0,11.762.231c1.011-.091,3.372-.241,5.251-.364,9.033-.518,7.863-.413,12.894-1.251,1.914-.317,5.686-.878,8.357-1.244,8.9-1.207,10.479-1.512,12.518-2.355.392-.158.744-.29.945-.352.692-.437,1.446-.759,2.148-1.177a4.343,4.343,0,0,0,1.295-1.16,13.763,13.763,0,0,0,.364-2m-3.218,1.784c-.781.725-3.237,1.651-6.116,2.3-1.726.383-7.791,1.291-10.047,1.506a93.928,93.928,0,0,0-10.517,1.56,11.387,11.387,0,0,1-1.706.111c-1.891.033-4.229.133-6.41.26-1,.063-2.394.115-3.116.116-1.22,0-4.5.2-6.909.411-4.746.443-9.019-.126-11.532-1.527a4.088,4.088,0,0,1-1.605-1.557,3.5,3.5,0,0,1-.877-2.172c-.151-1.481-.43-3.765-.642-5.3-.3-2.111-.962-8.019-1.04-9.185-.015-.159-.1-1.053-.193-1.975s-.225-2.344-.3-3.149c-.212-2.516-.442-5.077-.576-6.409-.268-2.671-.392-3.9-.561-5.6-.1-.966-.336-3.241-.543-5.066s-.427-3.7-.471-4.187-.162-1.483-.25-2.2c-.069-.732-.2-2.138-.3-3.149-.077-1.007-.273-3.272-.43-5.045s-.375-4.4-.475-5.842-.254-3.315-.344-4.164-.389-4.074-.667-7.177-.564-6.134-.644-6.738c-.063-.6-.171-1.614-.228-2.244-.251-2.767-.3-3.365-.486-5.3-.3-2.993-.507-5.277-.6-6.444-.04-.567-.112-1.543-.166-2.188s-.158-2.086-.215-3.2-.222-2.606-.343-3.3A5.058,5.058,0,0,1,2,126.4a6.689,6.689,0,0,1,2.654-4.272c2.54-1.716,7.529-3.209,14.545-4.352.817-.14,1.962-.338,2.524-.436.924-.164,3.952-.6,5.173-.741.249-.027,1.927-.228,3.748-.434,3.122-.386,8.046-.87,11.14-1.1.761-.066,2.279-.182,3.36-.275,4.411-.343,8.3-.581,9.316-.555.585.019,1.177.023,1.294.016a13.283,13.283,0,0,1,3.265.718l0,0a5.779,5.779,0,0,1,2.386,2.028,12.591,12.591,0,0,1,1.166,4.167c.176.94.369,1.952.462,2.241a5.233,5.233,0,0,1,.133,1.176,26.19,26.19,0,0,0,.589,4.641,129.219,129.219,0,0,1,2.178,17.74c.123,1.723.318,3.989.4,5.04.259,3.041.567,6.378.87,9.8.179,1.889.4,4.606.474,5.845.03.481.122,1.4.194,2.051.141,1.133.727,9.085.806,10.728.021.433.091,1.252.144,1.825.073.559.253,2.837.4,5.04s.354,4.6.421,5.331c.173,1.845.689,7.927.869,10.378.085,1.123.258,3.125.379,4.458s.237,2.6.25,2.851c.078,1.082.255,2.825.327,3.373a25.984,25.984,0,0,1,.345,4.885c-.032.743-.055,2.062-.026,2.947.069,2.084-.239,2.923-1.45,4.057" transform="translate(0 -80.971)" fill="#fff" stroke="#fff" stroke-width="1"></path><path id="Path_1402" data-name="Path 1402" d="M153,133.937a5.908,5.908,0,0,1-.707.088c-.855.02-1.47,1.3-1.087,2.282.312.83.673,1.069,1.814,1.2.958.115,1.046.1,1.5-.275,1.442-1.209,1.111-2.983-.594-3.261a2.883,2.883,0,0,0-.931-.037Z" transform="translate(-108.871 -96.491)" fill="#fff" stroke="#fff" stroke-width="1" fill-rule="evenodd"></path><path id="Path_1403" data-name="Path 1403" d="M92.094,136.493a70.407,70.407,0,0,1-7.487.8c-5.094.395-7.156.973-7.59,2.1a1.512,1.512,0,0,0,.531,1.679c.7.529,1.377.506,5.627-.212,2.224-.363,7.858-1.031,9.75-1.152,1.267-.074,2.075-.964,1.848-2.029-.243-1.051-1.147-1.458-2.679-1.188Z" transform="translate(-55.436 -98.291)" fill="#fff" stroke="#fff" stroke-width="1" fill-rule="evenodd"></path><path id="Path_1404" data-name="Path 1404" d="M71.067,157.726a2.132,2.132,0,0,1-.973-.03,13.563,13.563,0,0,0-4.325.028c-3.313.411-5.129.575-10.705.923-5.912.376-8.386.595-9.649.811-.4.073-2.038.3-3.613.487-6.823.862-11.876,1.577-15.733,2.209-1.766.3-5.834,1.138-6.265,1.293-.95.331-1.406,1.429-1.307,3.1.038.436.168,1.873.294,3.175.224,2.272.392,4.867.522,7.983.131,3.352.2,4.8.426,7.708.13,1.68.29,3.595.359,4.24.335,2.869.551,4.936.617,5.941.048.6.175,1.818.289,2.716s.216,1.91.237,2.274.228,2.086.463,3.829c.369,2.756.753,6.052,1.159,9.636.27,2.338.85,7.049.957,7.8.058.326.264,2.049.464,3.827s.425,3.634.483,4.12c.411,3.153.52,4.065.715,6.1.267,2.6.307,2.934.578,5.431.122,1,.236,1.885.254,1.943s.223,1.163.424,2.453.421,2.609.478,2.939a4.156,4.156,0,0,1,.056.814,1.058,1.058,0,0,0,.185.567c.361.555,1.169.614,3.876.294,1.338-.149,3.983-.363,5.887-.467,4.17-.213,6.709-.406,11.947-.859,1.71-.154,2.44-.208,7.2-.416,1.958-.095,3.891-.194,4.287-.238.408-.025,1.392-.123,2.194-.18.8-.073,1.962-.195,2.568-.272s1.573-.178,2.131-.249c.574-.056,2.056-.222,3.308-.371s3.142-.34,4.185-.457c2.656-.285,3.8-.538,4.671-1.075l.741-.441.065-.926c.034-.5.02-1.868-.042-3.042-.119-1.98-.22-5.181-.332-9.362-.014-.951-.107-2.6-.194-3.633s-.234-3.182-.356-4.745-.306-4.057-.426-5.546-.349-3.995-.469-5.557c-.136-1.565-.375-4.4-.554-6.289s-.342-3.776-.372-4.17c-.121-1.406-.8-8.061-.891-8.656-.073-.544-.213-1.608-.8-6.333-.116-.972-.274-2.4-.354-3.159-.141-1.377-.765-6.315-1.866-14.516-.5-3.848-1.031-8.91-1.049-10.168a2.411,2.411,0,0,0-.291-.946.955.955,0,0,0-.805-.574c-.292-.053-.594-.051-.651.025Zm-.521,3.463c.086.721.245,1.829.36,2.482s.444,2.888.719,4.955.553,4.13.617,4.573c.329,2.262,1.323,10.1,1.855,14.586,1.093,9.194,1.165,9.84,1.57,14.463.1,1.2.206,2.226.238,2.289s.091.851.17,1.76c.163,2.058.257,3.3.659,7.95.4,4.519.557,6.58.845,10.589.12,1.719.254,3.3.288,3.508.093.449.368,5.867.413,8.021.021.851.146,2.719.276,4.152s.233,2.706.244,2.806c0,.131-.3.222-.87.276a10.556,10.556,0,0,0-1.217.2c-1.029.348-9.189,1.384-13.9,1.79-.685.048-1.436.145-1.69.183-.374.078-3.585.249-8.871.507-.87.029-3.894.278-7.671.622-2.677.238-7.688.558-7.952.51-.155-.028-3.124.23-3.319.268A23.7,23.7,0,0,1,30.6,248c-.025-.019-1.576.016-1.576.016l-.2-1.934-.144-1.364s-.228-2.085-.251-2.118c-.032-.063-.4-3.786-.548-5.756-.283-3.635-1.141-11.188-1.893-16.679-.176-1.343-.584-4.669-.885-7.4s-.79-6.577-1.054-8.54c-.472-3.453-.78-5.984-1.021-8.418-.055-.642-.187-1.833-.288-2.643a158.912,158.912,0,0,1-1.409-17.6c-.3-7.784-.314-8.105-.382-8.922a9.954,9.954,0,0,0-.121-1c-.04-.178,0-.244.152-.217.268.048,3.289-.345,5.116-.663,2.9-.5,5.116-.821,7.47-1.1,4.648-.548,6.754-.815,9.94-1.235,4.526-.6,5.331-.669,8.505-.861,8.508-.485,13.1-.825,13.567-1,.047-.02.851-.091,1.8-.166a14.373,14.373,0,0,0,2.29-.322c.3-.087.6-.164.649-.171a6.045,6.045,0,0,1,.214,1.292Z" transform="translate(-13.318 -113.513)" fill="#fff" stroke="#fff" stroke-width="1" fill-rule="evenodd"></path><path id="Path_1405" data-name="Path 1405" d="M134.891,494.708c-5.225-.006-8.685.421-10.06,1.256a2.967,2.967,0,0,0-.255,5.093c1.394,1.057,5.1,1.479,8.919,1,2.006-.26,3.325-.786,4.093-1.625a3.13,3.13,0,0,0,1.038-2.478,2.635,2.635,0,0,0-1.691-2.536A4.763,4.763,0,0,0,134.891,494.708Zm1.443,2.865a1.53,1.53,0,0,1-.157,1.986c-.488.548-1.143.674-4.25.819-4.166.188-5.56-.063-6.348-1.114-.441-.6-.4-.848.275-1.3.56-.39,2.12-.655,4.782-.811,1.6-.1,4.768-.407,4.865-.477.18-.113.48.214.833.9Z" transform="translate(-88.81 -356.461)" fill="#fff" stroke="#fff" stroke-width="1" fill-rule="evenodd"></path><path id="Path_1406" data-name="Path 1406" d="M222.143,87.208c.359-5.816-5.5-10.919-11.21-9.765A1.407,1.407,0,0,0,211.5,80.2c.152-.03.305-.059.46-.08.06-.008.517-.047.217-.031a6.884,6.884,0,0,1,.789.006c.262.017.522.052.781.093q.25.045.016,0c.065.015.129.03.191.048.126.036.254.068.38.108a6.787,6.787,0,0,1,2.725,1.542c-.2-.171.117.114.125.122q.144.139.281.284.3.315.564.656c.1.123.188.247.275.374-.134-.2.062.1.084.146.137.225.262.458.376.7a5.641,5.641,0,0,1,.564,2.857,1.407,1.407,0,0,0,2.807.184" transform="translate(-151.179 -55.683)" fill="#f6d578" stroke="#f6d578" stroke-width="1"></path><path id="Path_1407" data-name="Path 1407" d="M228.4,61.391c.246-9.375-6.183-18.081-14.805-21.437a20.232,20.232,0,0,0-7.565-1.391,1.442,1.442,0,0,0-1.5,1.311,1.418,1.418,0,0,0,1.311,1.5c8.259-.11,15.749,5.657,18.636,13.254a17.344,17.344,0,0,1,1.113,6.582c-.047,1.805,2.759,2,2.807.184" transform="translate(-147.373 -27.786)" fill="#f6d578" stroke="#f6d578" stroke-width="1"></path><path id="Path_1408" data-name="Path 1408" d="M255.051,29.258A26.653,26.653,0,0,0,229.181,0c-1.8-.046-2,2.762-.184,2.807a24.4,24.4,0,0,1,14.284,5.1,23.6,23.6,0,0,1,8.261,12.572,24.248,24.248,0,0,1,.7,8.591c-.176,1.8,2.632,1.986,2.807.184" transform="translate(-164.089 0)" fill="#f6d578" stroke="#f6d578" stroke-width="1"></path></g></g></g></g></svg>