<svg xmlns="http://www.w3.org/2000/svg" xmlns:xlink="http://www.w3.org/1999/xlink" width="250" height="250" viewBox="0 0 250 250"><defs><clipPath id="clip-path"><path id="Path_676" data-name="Path 676" d="M0-51.807H244.248V-295.362H0Z" transform="translate(0 295.362)" fill="#28325a"></path></clipPath><clipPath id="clip-path-2"><rect id="Rectangle_102" data-name="Rectangle 102" width="169.607" height="132.059" fill="none"></rect></clipPath><clipPath id="clip-Captions"><rect width="250" height="250"></rect></clipPath></defs><g id="Captions" clip-path="url(#clip-Captions)"><g id="Group_248" data-name="Group 248" transform="translate(-236.876 -12821.022)"><g id="Group_225" data-name="Group 225" transform="translate(239.876 12824.022)"><g id="Group_102" data-name="Group 102" transform="translate(0 0)" clip-path="url(#clip-path)"><g id="Group_101" data-name="Group 101" transform="translate(0 0)"><path id="Path_675" data-name="Path 675" d="M-8.8-46.356c26.521,21.8,63.507,24.128,97.811,25.485C180-17.273,203.485-82.794,190.982-165.392c-7.19-47.5-37.349-82.292-84.319-94.875-118.355-31.705-215,132.1-115.46,213.911" transform="translate(50.157 264.285)" fill="#28325a"></path></g></g></g><g id="Group_233" data-name="Group 233" transform="translate(279.5 12887.41)"><g id="Group_232" data-name="Group 232" clip-path="url(#clip-path-2)"><path id="Path_1416" data-name="Path 1416" d="M169.265,99.373a4.172,4.172,0,0,1,.053-1.839,26.561,26.561,0,0,0-.055-8.174c-.753-6.26-1.052-9.693-1.693-20.231-.69-11.172-1.092-15.847-1.488-18.236-.133-.76-.544-3.851-.89-6.828-1.577-12.895-2.887-22.442-4.041-29.732C160.6,11,159.071,3.309,158.789,2.493c-.6-1.8-2.607-2.657-5.661-2.468-.795.072-3.414.319-5.789.558-4.142.424-8.873.745-14.555.994-6.112.251-8.757.383-14.052.813-3.064.247-6.554.552-7.732.683-5.23.635-9,1.047-10.83,1.171-1.1.091-3.315.333-4.952.548-1.61.189-3.482.411-4.147.451s-3.8.433-6.98.879c-5.025.7-11.033,1.429-17.568,2.2-4.263.513-12.852,1.613-14.227,1.816-.6.109-3.736.5-6.977.88-3.248.4-6.625.807-7.511.917-5.748.78-7.411.986-11.126,1.357-4.733.508-5.348.584-9.9,1.1-1.823.231-3.436.446-3.543.481-.116.06-2.12.423-4.472.8-2.355.407-4.757.8-5.358.907a7.246,7.246,0,0,1-1.484.107,1.887,1.887,0,0,0-1.033.351c-1.012.684-1.119,2.211-.532,7.325.272,2.528.664,7.527.856,11.126.393,7.881.747,12.679,1.577,22.578.282,3.232.381,4.611.764,13.609.174,3.7.357,7.354.438,8.1.046.772.226,2.63.33,4.146.133,1.517.357,3.707.5,4.853.121,1.135.327,2.972.456,4.027.1,1.084.407,3.887.679,6.251s.622,5.938.837,7.908c.522,5.021.984,7.173,1.964,8.827l.805,1.4,1.687.121c.905.064,3.405.036,5.547-.081,3.61-.228,9.447-.42,17.069-.635,1.734-.027,4.733-.205,6.624-.369,1.917-.165,5.8-.445,8.65-.678,2.845-.207,7.4-.582,10.112-.811,2.721-.257,7.283-.663,10.131-.89,2.854-.259,8.022-.713,11.465-1.053s6.884-.65,7.6-.707c2.563-.23,14.7-1.51,15.782-1.692.993-.138,2.931-.4,11.546-1.521,1.773-.219,4.369-.52,5.76-.672,2.511-.269,11.514-1.451,26.464-3.539,7.016-.954,16.244-1.956,18.537-1.991a4.29,4.29,0,0,0,1.725-.551,1.8,1.8,0,0,0,1.046-1.522c.1-.552.093-1.123-.046-1.231Zm-6.315-.982c-1.314.162-3.334.465-4.524.682-1.2.238-5.266.842-9.034,1.363s-7.53,1.05-8.338,1.17c-4.124.625-18.409,2.51-26.592,3.519-16.762,2.074-17.94,2.211-26.368,2.98-2.187.2-4.057.392-4.173.452-.111.034-1.552.173-3.208.324-3.752.31-6.015.489-14.495,1.252-8.239.754-12,1.059-19.306,1.607-3.133.228-6.014.483-6.4.548-.819.176-10.7.7-14.624.788-1.551.041-4.958.279-7.57.527-2.638.239-4.934.443-5.115.463-.239.006-.405-.568-.5-1.645a20.734,20.734,0,0,0-.364-2.3c-.636-1.944-2.532-17.365-3.276-26.266-.087-1.3-.266-2.714-.335-3.194-.143-.706-.457-6.776-.933-16.766-.053-1.645-.51-7.36-1.14-14.5C6.218,44.34,5.631,34.87,5.717,34.37c.051-.293-.421-5.9-.491-6.273a46.473,46.473,0,0,1-.584-5.114C4.676,22.936,4.611,20,4.611,20l3.526-.371,2.486-.273s3.8-.433,3.862-.476c.116-.06,6.9-.755,10.495-1.041,6.627-.538,20.4-2.166,30.409-3.593,2.448-.335,8.512-1.108,13.495-1.679,4.987-.6,11.992-1.5,15.571-2,6.3-.9,10.91-1.479,15.347-1.937,1.171-.105,3.341-.355,4.818-.546A279.906,279.906,0,0,1,136.711,5.41c14.191-.573,14.778-.6,16.267-.73a17.582,17.582,0,0,0,1.827-.23c.325-.076.445,0,.4.287-.088.505.633,6.215,1.214,9.668.914,5.477,1.5,9.668,2.015,14.116,1,8.784,1.493,12.764,2.26,18.784,1.1,8.554,1.224,10.075,1.577,16.074.893,16.079,1.516,24.766,1.836,25.64.037.088.166,1.609.3,3.406a28.084,28.084,0,0,0,.589,4.327c.159.573.3,1.142.311,1.225a10.647,10.647,0,0,1-2.355.407Z" transform="translate(0 0)" fill="#fff" fill-rule="evenodd"></path><path id="Path_1417" data-name="Path 1417" d="M148.547,44.91c-3.426.046-6.993.163-10.252,1.374a14.454,14.454,0,0,0-7.363,5.751,12.188,12.188,0,0,0-1.155,9.715,15.714,15.714,0,0,0,5.618,8.079,15.481,15.481,0,0,0,17.423.94,15.818,15.818,0,0,0,7.3-16.59c-1.408-6.609-8.69-11.5-15.036-8.982a2.716,2.716,0,0,0-1.779,3.248c.391,1.254,1.8,2.373,3.133,1.845a8.868,8.868,0,0,1,1.5-.432c.494-.1-.167.041-.168.023s.384-.03.427-.032a7.9,7.9,0,0,1,.942.01,2.4,2.4,0,0,0,.342.031c-.475.046-.391-.068-.166-.021.283.059.564.113.844.191q.335.093.663.212c.11.04.217.084.326.125.52.193-.419-.227.032.02a13.267,13.267,0,0,1,1.361.814c.034.024.5.375.166.115-.293-.224.013.016.084.077a9.655,9.655,0,0,1,.7.68c.162.174.311.359.467.539.385.445-.226-.354-.024-.034.08.126.168.246.247.372q.19.3.357.622c.058.112.115.227.169.341s.111.243.164.367l-.109-.259a5.093,5.093,0,0,1,.488,1.729c.032.164.056.329.084.493.07.406-.036-.659-.009-.006.014.335.044.667.045,1q0,.4-.024.806c-.01.168-.032.335-.042.5-.024.416.121-.649,0,0a16.374,16.374,0,0,1-.408,1.777,5.09,5.09,0,0,1-.331.959c.038-.069.229-.514.024-.07-.056.123-.111.246-.169.368a14.754,14.754,0,0,1-1.008,1.741c-.086.129-.176.4.045-.049a2.141,2.141,0,0,1-.251.316c-.212.26-.435.512-.665.755q-.277.291-.571.564c-.122.114-.247.225-.373.334-.075.065-.152.13-.229.194q.345-.273.124-.1c-.463.329-.918.658-1.408.944q-.43.251-.876.47a1.741,1.741,0,0,1-.36.17q.413-.178.153-.07c-.092.038-.183.075-.276.11a13.18,13.18,0,0,1-1.7.528c-.256.061-.516.105-.774.159-.63.133.4-.031-.006.005-.2.017-.392.042-.589.056a12.246,12.246,0,0,1-1.676,0c-.165-.011-.328-.025-.492-.043-.2-.021-.557.053-.008,0a3.4,3.4,0,0,1-.968-.2,13.24,13.24,0,0,1-1.7-.536,2.211,2.211,0,0,1-.367-.15c.433.28.194.088.066.021-.324-.169-.65-.327-.967-.512a16.782,16.782,0,0,1-1.41-.941c-.522-.379.265.248-.031-.025-.122-.114-.253-.218-.377-.33q-.371-.337-.716-.7-.311-.329-.6-.679c-.106-.129-.221-.257-.314-.4.05.074.3.446.04.04a14.634,14.634,0,0,1-.989-1.719c-.075-.158-.146-.318-.215-.479.037.087.183.5.025.044-.1-.3-.2-.6-.288-.9s-.156-.609-.215-.918a1.794,1.794,0,0,1-.07-.412c.038.323.047.384.026.185-.011-.1-.02-.208-.028-.311q-.033-.466-.022-.933c0-.173.02-.345.025-.517.008-.332-.1-.124-.023.086-.062-.17.115-.642.157-.813s.087-.335.138-.5c.024-.077.246-.718.109-.347-.147.4.09-.187.105-.219q.126-.261.27-.513c.045-.08.434-.827.519-.81-.018,0-.311.384-.049.076.125-.147.247-.3.377-.438q.325-.357.68-.682c.119-.109.244-.21.363-.318q.216-.181-.139.109.115-.09.232-.174.431-.316.886-.593.414-.252.846-.472c.115-.059.231-.114.347-.171.584-.289-.508.191.1-.043a17.413,17.413,0,0,1,2.245-.709q.577-.139,1.161-.241c.195-.035.39-.067.585-.1-.458.071.122-.013.265-.029,1.66-.188,3.331-.225,5-.248a2.642,2.642,0,0,0,0-5.281" transform="translate(-63.404 -21.009)" fill="#fff"></path><path id="Path_1418" data-name="Path 1418" d="M124.71,131.877c.009-.56.034-1.119.083-1.676.013-.139.028-.278.041-.417.045-.506-.015,0-.016.079a6.657,6.657,0,0,1,.163-1.032,24.118,24.118,0,0,1,.891-3.431q.134-.4.281-.786a2.444,2.444,0,0,1,.15-.389c-.042.067-.219.511-.02.051.235-.544.48-1.082.748-1.61a27.212,27.212,0,0,1,1.806-3.055c.157-.23.322-.454.48-.683.219-.313-.26.332-.024.033.086-.109.169-.22.255-.33q.546-.7,1.136-1.355a28.2,28.2,0,0,1,2.543-2.5c.218-.189.44-.374.662-.558.375-.31.066-.051-.01.007.114-.088.227-.177.341-.264q.773-.588,1.578-1.127a33.6,33.6,0,0,1,3.146-1.862q.764-.4,1.544-.759c.146-.068.885-.38.374-.171.3-.123.6-.25.9-.37q1.651-.657,3.353-1.165,1.75-.523,3.538-.9c.586-.123,1.174-.236,1.765-.332.152-.025.3-.048.458-.071-.489.076-.087.012.011,0,.383-.043.766-.085,1.151-.113.611-.044,1.226-.063,1.839-.046.3.008.609.024.913.051.152.013.3.032.454.046-.579-.054.151.031.223.045a11.554,11.554,0,0,1,1.764.482c.125.045.248.1.372.143.156.06.4.067-.063-.029a3.3,3.3,0,0,1,.79.406,13.378,13.378,0,0,1,1.329.854c.107.078.21.161.318.238.3.214-.328-.284-.049-.041.252.22.507.434.753.661a25.4,25.4,0,0,1,2.291,2.459c.416.5.813,1.024,1.213,1.542.231.3-.252-.344-.028-.038.1.138.2.277.305.415q.3.415.6.832c.846,1.179,1.691,2.36,2.5,3.565s1.606,2.463,2.31,3.757c.332.61.647,1.231.936,1.863.064.14.128.282.19.423.022.051.3.758.1.226.139.363.275.725.4,1.093a2.589,2.589,0,0,0,3.134,1.844,2.687,2.687,0,0,0,1.779-3.248c-1.885-5.468-5.373-10.2-8.817-14.714a26.268,26.268,0,0,0-5.37-5.438,14.7,14.7,0,0,0-7.9-2.7,29.264,29.264,0,0,0-8.5,1.064,43.873,43.873,0,0,0-7.719,2.711,32.632,32.632,0,0,0-12.3,9.5,28.33,28.33,0,0,0-6.2,16.818,2.549,2.549,0,1,0,5.1,0" transform="translate(-58.67 -48.015)" fill="#fff"></path><path id="Path_1419" data-name="Path 1419" d="M44.425,172.345q8.852-.376,17.647-1.551a2.665,2.665,0,0,0,2.548-2.641c-.055-1.279-1.132-2.83-2.548-2.641q-8.787,1.174-17.647,1.551a2.642,2.642,0,0,0,0,5.281" transform="translate(-20.54 -78.09)" fill="#f6d578"></path><path id="Path_1420" data-name="Path 1420" d="M95.875,165.273q3.347-.566,6.7-1.083,1.615-.249,3.232-.485.87-.128,1.742-.251l.746-.106q.463-.065.07-.01l.373-.052q6.66-.917,13.345-1.629a2.656,2.656,0,0,0,2.548-2.641c-.057-1.309-1.128-2.792-2.548-2.641q-13.832,1.477-27.563,3.8a2.664,2.664,0,0,0-1.78,3.249,2.612,2.612,0,0,0,3.134,1.844" transform="translate(-45.441 -73.782)" fill="#f6d578"></path><path id="Path_1421" data-name="Path 1421" d="M163.666,158.762l13.348-1.048a2.642,2.642,0,0,0,0-5.281l-13.348,1.048a2.642,2.642,0,0,0,0,5.281" transform="translate(-79.026 -71.923)" fill="#f6d578"></path><path id="Path_1422" data-name="Path 1422" d="M206.18,152.743q6.035-1.5,12.183-2.39c.81-.119-.5.066.306-.044l.738-.1q.738-.1,1.478-.183,1.6-.189,3.209-.334,3.09-.28,6.19-.4a2.642,2.642,0,0,0,0-5.281,127.4,127.4,0,0,0-25.458,3.641,2.678,2.678,0,0,0-1.78,3.249,2.592,2.592,0,0,0,3.134,1.844" transform="translate(-99.542 -67.951)" fill="#f6d578"></path><path id="Path_1423" data-name="Path 1423" d="M267.94,146.423q1.071-.2,2.15-.354l-.678.095q2.039-.28,4.094-.369a2.628,2.628,0,0,0,1.8-.774,2.71,2.71,0,0,0,0-3.735,2.524,2.524,0,0,0-1.8-.773,48.656,48.656,0,0,0-6.921.817,2.58,2.58,0,0,0-1.523,1.214,2.786,2.786,0,0,0-.257,2.035,2.662,2.662,0,0,0,1.171,1.578,2.778,2.778,0,0,0,1.963.266" transform="translate(-129.84 -66.301)" fill="#f6d578"></path><path id="Path_1424" data-name="Path 1424" d="M69.361,180.8l40.356-4.418,11.35-1.243a2.657,2.657,0,0,0,2.548-2.641c-.057-1.306-1.128-2.8-2.548-2.641l-40.356,4.418-11.35,1.243a2.657,2.657,0,0,0-2.548,2.641c.057,1.306,1.128,2.8,2.548,2.641" transform="translate(-32.77 -80.143)" fill="#f6d578"></path><path id="Path_1425" data-name="Path 1425" d="M186.916,171.267q10.363-1.05,20.687-2.469a2.667,2.667,0,0,0,2.548-2.641c-.055-1.275-1.133-2.835-2.548-2.641q-10.322,1.418-20.687,2.469a2.655,2.655,0,0,0-2.548,2.641c.057,1.316,1.127,2.785,2.548,2.641" transform="translate(-90.43 -77.148)" fill="#f6d578"></path><path id="Path_1426" data-name="Path 1426" d="M242.3,165.53a45.087,45.087,0,0,0,6.486-.815,2.584,2.584,0,0,0,1.522-1.213,2.784,2.784,0,0,0,.257-2.035,2.658,2.658,0,0,0-1.171-1.578,2.749,2.749,0,0,0-1.963-.266q-1.162.231-2.334.394l.677-.094q-1.73.237-3.475.326a2.635,2.635,0,0,0-1.8.773,2.711,2.711,0,0,0,0,3.735,2.514,2.514,0,0,0,1.8.773" transform="translate(-117.597 -75.286)" fill="#f6d578"></path><path id="Path_1427" data-name="Path 1427" d="M175.885,207.5a51.149,51.149,0,0,0,.044,7.952c.234,2.547.613,5.078.868,7.623a2.655,2.655,0,0,0,2.548,2.641,2.623,2.623,0,0,0,2.548-2.641c-.254-2.545-.633-5.077-.868-7.623a51.145,51.145,0,0,1-.044-7.952,2.61,2.61,0,0,0-2.548-2.641,2.657,2.657,0,0,0-2.548,2.641" transform="translate(-86.205 -96.664)" fill="#fff"></path><path id="Path_1428" data-name="Path 1428" d="M149.384,241.861l27.735-3.826a2.595,2.595,0,0,0,2.548-2.641c-.055-1.274-1.133-2.836-2.548-2.641l-27.735,3.826a2.595,2.595,0,0,0-2.548,2.641c.055,1.274,1.133,2.836,2.548,2.641" transform="translate(-72.021 -109.818)" fill="#fff"></path></g></g></g></g></svg>