<svg xmlns="http://www.w3.org/2000/svg" xmlns:xlink="http://www.w3.org/1999/xlink" width="250" height="250" viewBox="0 0 250 250"><defs><clipPath id="clip-path"><rect id="Rectangle_101" data-name="Rectangle 101" width="159.959" height="107.922" fill="none"></rect></clipPath><clipPath id="clip-Chat"><rect width="250" height="250"></rect></clipPath></defs><g id="Chat" clip-path="url(#clip-Chat)"><g id="Group_249" data-name="Group 249" transform="translate(-825.504 -12261.022)"><g id="Group_226" data-name="Group 226" transform="translate(828.504 12273.022)"><path id="Path_44" data-name="Path 44" d="M110.182,38.945c-7.489,72.442-56.5,124.35-119.669,111.139C-72.253,135.91-123.85,83.486-131.663,41.27-140.456-.526-88.858-53.411-9.488-70.821,70.294-87.023,119.3-33.608,110.182,38.945" transform="translate(132.637 73.734)" fill="#28325a"></path></g><g id="Group_230" data-name="Group 230" transform="translate(879.577 12334.577)"><g id="Group_229" data-name="Group 229" clip-path="url(#clip-path)"><path id="Path_1409" data-name="Path 1409" d="M67.513,70.033c-6.427,2.812-13.837,2.474-20.385,2.538C41.433,80.2,34.2,85.96,25.311,90.713a20.557,20.557,0,0,1,.16-2.48c.643-3.055,1.54-6.086,1.929-9.163.529-3.95-.873-5.466-4.755-5.65-1.24-.069-2.5.069-3.766.091-1.24.022-2.5.138-3.744.046-4.824-.391-5.971-1.4-6.866-6.339-.689-3.9-1.355-7.832-1.722-11.781-.712-7.694-1.262-15.409-1.791-23.1-.3-4.317.551-8.314,3.582-11.643a13.35,13.35,0,0,1,6.132-4.064c5.6-1.722,11.3-2.962,16.971-4.364,9.783-2.411,19.773-3.077,29.671-4.571a111.515,111.515,0,0,1,17.5-1.08A188.007,188.007,0,0,0,101.074,5.1c3.7-.413,7.463-1.033,11.276.711,1.424,8.405,4.433,16.466,4.868,25.1.094,1.743.472,3.977-.292,5.742,1.078-.011,2.155-.231,3.225-.344.582-.062,1.167-.1,1.747-.156-.349-1.841-.786-3.736-.938-5.078-.253-2.273-.184-4.571-.573-6.821-1.125-6.59-2.435-13.136-3.606-19.728-.62-3.513-1.263-4.433-4.755-4.5a131.226,131.226,0,0,0-15.02.5c-4.777.5-9.53.826-14.353.873a150.1,150.1,0,0,0-18.739.9c-11.6,1.54-23.264,2.435-34.746,5.03a168.447,168.447,0,0,0-18.1,4.961C5.467,14.216,2.183,18.533,1.1,24.23.185,29.145-.505,34.1.483,39.181c.551,2.848.367,5.833.689,8.75.8,7.463,1.493,14.973,2.641,22.392.918,5.857,3.169,7.694,9.094,8.521,1.86.253,3.766.138,5.626.253,1.171.069,2.457-.344,3.651,1.08-1.309,3.72-2.641,7.647-4.042,11.552-1.149,3.193-1.677,6.361-.3,10.036a17.421,17.421,0,0,0,3.582-1.262c4.548-2.962,9.094-5.948,13.5-9.094a84.774,84.774,0,0,0,7.785-6.315c2.617-2.366,5.03-4.937,7.877-7.763,5.216,1.754,11.245-1.238,16.873-.8-.042-.92-.086-1.84-.062-2.76a36.659,36.659,0,0,0,.108-3.741" transform="translate(0 0)" fill="#f6d578"></path><path id="Path_1410" data-name="Path 1410" d="M256.027,128.273c-.482-6.246-1.149-12.469-1.884-18.695-.686-5.975-1.6-11.97-2.477-17.964h0a55.869,55.869,0,0,0-1.033-5.535A5.149,5.149,0,0,0,245.81,81.9a60.089,60.089,0,0,0-16.857-.091c-3.652.566-7.305,1.089-11.62,1.722-.025.013-.052.018-.078.029,0-.019-.007-.039-.011-.059-.573.059-1.151.1-1.726.153a27.85,27.85,0,0,1-3.648.354.2.2,0,0,1-.1-.032,1.9,1.9,0,0,1-.47.031l0,0c-2.686.367-5.557.918-8.474,1.08-9,.529-17.8,2.457-26.456,4.708-3.306.873-6.27,3.193-9.232,5.075a6.021,6.021,0,0,0-2.044,3.1h0a44.986,44.986,0,0,0-2.022,8.452,85.214,85.214,0,0,0-.074,9.479.172.172,0,0,1,.082.122,20.649,20.649,0,0,1,.015,4.6c-.052,1.629.119,3.257.122,4.886a.164.164,0,0,1,0,.021c.011.214.02.428.032.642.319,1.212.625,2.392.882,3.566,1.631,7.694,5.259,9.141,11.207,9.692a49.918,49.918,0,0,0,11.253-.46c9.163-1.262,18.3-.712,27.351-.16.849.987,1.515,1.791,2.2,2.573q5.616,6.372,11.207,12.7c1.562,1.768,3.306,2.411,5.466.987.5-2.917.918-5.788,1.54-8.635.666-2.986-1.608-6.246.78-8.956a5.146,5.146,0,0,1,1.309-.482c2.3-.091,4.593-.069,6.89-.229a48.182,48.182,0,0,0,6.8-.873c3.857-.9,6.177-3.813,5.9-7.625m-6.451,2.521h0a19.354,19.354,0,0,1-4.868.873c-3.124.229-6.27.184-9.392.436a25.359,25.359,0,0,0-3.926.918c-1.884,4.455-.069,9.116-2.091,13.527a15.242,15.242,0,0,1-2.113-1.54c-2.2-2.228-4.524-4.364-6.5-6.775-2.8-3.422-5.971-4.961-10.656-5.213a155.885,155.885,0,0,0-28.729.873c-2.641.344-5.4-.276-8.083-.551a3.763,3.763,0,0,1-3.4-3.215,32.757,32.757,0,0,1-.827-5.557c-.3-6.866-.551-13.733-.666-20.623A6.656,6.656,0,0,1,172,97.792a42.47,42.47,0,0,1,8.014-3.4c9.874-2.871,20.048-4.11,30.269-4.868a138.5,138.5,0,0,0,14.836-2.159c7-1.286,14.055-1.929,21.495-.16a18.851,18.851,0,0,1,1.424,3.813q1.653,11.471,3.055,22.988c.3,2.457.16,4.983.344,7.463.115,1.653.5,3.261.735,4.892.251,2.227-.46,3.7-2.6,4.433" transform="translate(-96.09 -47.932)" fill="#fff"></path></g></g></g></g></svg>