<svg xmlns="http://www.w3.org/2000/svg" xmlns:xlink="http://www.w3.org/1999/xlink" width="250" height="250" viewBox="0 0 250 250"><defs><clipPath id="clip-path"><rect id="Rectangle_103" data-name="Rectangle 103" width="250" height="250" fill="#fff"></rect></clipPath><clipPath id="clip-path-2"><path id="Path_674" data-name="Path 674" d="M0,249.324H220.954V0H0Z" fill="#28325a"></path></clipPath><clipPath id="clip-No_tech"><rect width="250" height="250"></rect></clipPath></defs><g id="No_tech" data-name="No tech" clip-path="url(#clip-No_tech)"><g id="Mask_Group_1" data-name="Mask Group 1" clip-path="url(#clip-path)"><g id="Group_99" data-name="Group 99" transform="translate(20.994 255.736) rotate(-100)" clip-path="url(#clip-path-2)"><g id="Group_98" data-name="Group 98" transform="translate(0 0)"><path id="Path_673" data-name="Path 673" d="M189.531,225.9c-23.793,20.611-58.054,28.437-88.435,20.2-14.27-3.87-27.51-10.994-39.505-19.639C31.792,204.983,8.964,173,1.8,136.97-12.765,63.765,63.666-34.363,140.948,11.963,206.241,51.1,255.926,168.381,189.531,225.9" fill="#28325a"></path></g></g></g><g id="Group_175" data-name="Group 175" transform="translate(75.493 60.932)"><path id="Path_1121" data-name="Path 1121" d="M215.25,63.761c1.995-.176,3.662.157,4.911,1.714A5.493,5.493,0,0,1,221.2,67.95a10.663,10.663,0,0,1,.22,2.2l.882,121.052c-.032,5.126-2.164,6.615-7.055,6.615l-84.67.22c-4.263.407-6.835-2.324-6.395-5.953V71.258c-.049-1.323-.074-4.56,1.318-6.162,1.581-1.819,4.195-1.555,6.179-1.555Zm0,0" transform="translate(-124.136 -63.527)" fill="none" stroke="#fff" stroke-linecap="round" stroke-linejoin="round" stroke-miterlimit="10" stroke-width="4"></path><path id="Path_1122" data-name="Path 1122" d="M222.6,200.13c-2.166-1.1-5.818,0-8.385,0-3.095-.007-6.2-.028-9.244.21-12.752,1-25.521-.763-38.267-.21-5.357.232-10.75.21-16.136.21-3.268,0-7.83.768-10.877-.21V90.871c3,.764,7.491.363,10.724.631a71.351,71.351,0,0,0,13.974.205c9.426-1.106,19.31-.205,28.852-.205,10,0,19.565-.229,29.387-.435Zm0,0" transform="translate(-132.587 -83.84)" fill="none" stroke="#fff" stroke-linecap="round" stroke-linejoin="round" stroke-miterlimit="10" stroke-width="4"></path><path id="Path_1123" data-name="Path 1123" d="M271.93,468.924c7.421-3.5,1.677,6.814.22,1.764Zm0,0" transform="translate(-225.376 -344.466)" fill="none" stroke="#fff" stroke-linecap="round" stroke-linejoin="round" stroke-miterlimit="10" stroke-width="4"></path></g><line id="Line_97" data-name="Line 97" y1="137.665" x2="137.665" transform="translate(52.54 53.07)" fill="none" stroke="#f6d578" stroke-linecap="round" stroke-width="4"></line></g></svg>