<svg xmlns="http://www.w3.org/2000/svg" xmlns:xlink="http://www.w3.org/1999/xlink" width="250" height="250" viewBox="0 0 250 250"><defs><clipPath id="clip-path"><rect id="Rectangle_71" data-name="Rectangle 71" width="162.848" height="158.624" fill="none" stroke="#fff" stroke-width="5"></rect></clipPath><clipPath id="clip-Questions"><rect width="250" height="250"></rect></clipPath></defs><g id="Questions" clip-path="url(#clip-Questions)"><g id="Group_250" data-name="Group 250" transform="translate(-1408.504 -12827.512)"><g id="Group_171" data-name="Group 171" transform="translate(1411.504 12841.535)"><path id="Path_44" data-name="Path 44" d="M110.9,39.278C103.387,111.934,54.236,164-9.124,150.745c-62.951-14.216-114.7-66.8-122.537-109.136C-140.479-.31-88.729-53.351-9.124-70.813,70.894-87.062,120.043-33.49,110.9,39.278" transform="translate(132.637 73.734)" fill="#28325a"></path></g><g id="Group_182" data-name="Group 182" transform="translate(1458.903 12878.965)"><g id="Group_180" data-name="Group 180" transform="translate(0 0)"><g id="Group_179" data-name="Group 179" clip-path="url(#clip-path)"><path id="Path_1131" data-name="Path 1131" d="M94.053,140.734c-4.26.192-5.879,8.222,1.47,7.637S100.507,140.446,94.053,140.734Z" transform="translate(5.885 9.158)" fill="none" stroke="#fff" stroke-linecap="round" stroke-linejoin="round" stroke-width="5"></path><path id="Path_1132" data-name="Path 1132" d="M111.6,125.631c-10.15-1.651-13.505,12.035-2.641,13.218S122.478,127.368,111.6,125.631Z" transform="translate(6.654 8.166)" fill="none" stroke="#fff" stroke-linecap="round" stroke-linejoin="round" stroke-width="5"></path><path id="Path_1133" data-name="Path 1133" d="M142.412,30.974c.224-2.471,1.31-17.712-20.993-26.233C101.513-2.874,89.062,13.4,84.035,8.022,76.782.258,57.8-3.79,39.43,10.642,23.88,22.859,30.973,28.471,25,32.945c-7.232,5.421-23.719,5.24-24,30.813-.266,24.933,25.37,26.776,25.967,32.8s9.586,19.661,30.12,23.283c16.668,2.94,24.848-9.586,30.887-10.161s20.386,13.782,37.874,3.525,10.981-21.557,14.6-25.168,15.87-2.439,20.375-22.473C166.674,39.506,141.8,37.61,142.412,30.974Z" transform="translate(0.065 0.065)" fill="none" stroke="#fff" stroke-linecap="round" stroke-linejoin="round" stroke-width="5"></path></g></g><g id="Group_181" data-name="Group 181" transform="translate(61.669 27.627)"><path id="Path_1128" data-name="Path 1128" d="M263.147,111.858c-10.8,0-19.678,8.517-19.678,19.051a2.078,2.078,0,1,0,4.155,0c0-8.205,6.886-14.9,15.523-14.9a17.674,17.674,0,0,1,11.616,4.475c2.972,2.719,4.568,6.226,3.925,10.08v0c-1.388,8.382-5.157,9.781-9.479,12.434a16.256,16.256,0,0,0-6.09,5.706c-1.59,2.777-2.324,6.535-1.908,11.913a2.077,2.077,0,1,0,4.142-.32c-.375-4.864.3-7.665,1.371-9.528a12.144,12.144,0,0,1,4.658-4.229c4.054-2.488,9.8-5.623,11.4-15.294v0c.9-5.391-1.442-10.37-5.219-13.826a21.6,21.6,0,0,0-14.421-5.565Z" transform="translate(-243.469 -111.857)" fill="#f6d578" stroke="#f6d578" stroke-width="1" fill-rule="evenodd"></path><path id="Path_1129" data-name="Path 1129" d="M331.8,405.19a4.155,4.155,0,1,0,4.145,4.155A4.191,4.191,0,0,0,331.8,405.19Z" transform="translate(-312.036 -350.778)" fill="#f6d578" stroke="#f6d578" stroke-width="1" fill-rule="evenodd"></path></g></g></g></g></svg>