<svg xmlns="http://www.w3.org/2000/svg" xmlns:xlink="http://www.w3.org/1999/xlink" width="250" height="250" viewBox="0 0 250 250"><defs><clipPath id="clip-path"><path id="Path_676" data-name="Path 676" d="M0-51.807H244.248V-295.362H0Z" transform="translate(0 295.362)" fill="#28325a"></path></clipPath><clipPath id="clip-Sign_language"><rect width="250" height="250"></rect></clipPath></defs><g id="Sign_language" data-name="Sign language" clip-path="url(#clip-Sign_language)"><g id="Group_251" data-name="Group 251" transform="translate(-1417.876 -12270.022)"><g id="Group_170" data-name="Group 170" transform="translate(1420.876 12273.022)"><g id="Group_102" data-name="Group 102" transform="translate(0 0)" clip-path="url(#clip-path)"><g id="Group_101" data-name="Group 101" transform="translate(0 0)"><path id="Path_675" data-name="Path 675" d="M-8.8-46.356c26.521,21.8,63.507,24.128,97.811,25.485C180-17.273,203.485-82.794,190.982-165.392c-7.19-47.5-37.349-82.292-84.319-94.875-118.355-31.705-215,132.1-115.46,213.911" transform="translate(50.157 264.285)" fill="#28325a"></path></g></g></g><g id="Group_223" data-name="Group 223" transform="translate(0 -697)"><path id="Path_1119" data-name="Path 1119" d="M229.489,98.971c7.978,6.362,17.8,11.637,24.774,19.125,1.447,1.552,3.765-.777,2.324-2.324-4.721-5.073-11.174-8.876-16.7-12.973-7.319-5.419-15.46-11.011-21.066-18.305-1.039-1.353-3.881-5.845-.3-6.075,3.6-.231,7.991,4.337,10.426,6.422,3.115,2.665,6.079,5.5,9.25,8.1,1.774,1.456,4.388,3.819,6.881,3.73,5-.174,2.029-5.141.482-7.372-4.447-6.406-9.668-12.288-14.392-18.489-3.679-4.832-10.267-11.984-10.375-18.451-.054-3.124,4-.1,4.9.628a61.193,61.193,0,0,1,8.258,8.827c5.247,6.366,9.884,13.247,15.387,19.4,1.493,1.674,6.641,6.263,7.59,1.428.906-4.628-4.15-11.118-6.273-14.784-4.289-7.4-8.9-14.643-12.639-22.348-1.31-2.7-5.562-14.888,1.674-9.041,5.9,4.765,9.641,12.836,13.243,19.324,1.114,2.007,15.51,31.312,19.714,24.045,2.123-3.669-2.232-11.059-3.571-14.344-3.261-8.02-6.833-15.96-9.233-24.3-.783-2.736-1.738-6-1-8.84.841-3.234,4.362,1.813,4.9,2.651,4.824,7.448,7.477,16.5,10.564,24.753,2.7,7.222,5.175,15.251,9.729,21.574,2.876,3.986,9.694,8.4,13.414,3.25,2.547-3.517,1.393-10.567,2.02-14.677a28.966,28.966,0,0,1,2.384-8.107c.688-1.451,4.849-6.282,6.644-3.411,1.406,2.251.662,6.443.478,8.9a145.049,145.049,0,0,1-2.251,15.292c-2.026,10.983-4.938,21.833-6.61,32.873-.311,2.068,2.854,2.961,3.17.871,2.665-17.542,8.716-34.789,9.167-52.635.137-5.44-1.1-9.844-7.408-8.9-8.566,1.283-9.277,16.327-9.56,22.583-.155,3.427-.414,7.8-4.828,5.419a13.009,13.009,0,0,1-3.655-2.971c-2.5-2.9-3.987-6.992-5.443-10.47-3.666-8.735-6.61-17.757-10.282-26.492-1.88-4.479-4.548-12.621-9.688-14.515-4.676-1.719-6.432,3.359-6.223,7,.441,7.641,4.119,15.339,6.955,22.318,2.494,6.136,6.473,12.951,7.408,19.613a13.9,13.9,0,0,1-2.247-2.642,94.275,94.275,0,0,1-5.69-9.473c-4.2-7.575-8.13-15.317-12.877-22.574-2.547-3.893-6.57-10.46-11.824-10.882-4.786-.384-5.684,4.035-4.875,7.787,3.187,14.767,15.542,26.368,20.942,40.258.112.291.265.655.385,1.03-.142-.124-.313-.277-.539-.489a69,69,0,0,1-6.866-8.154c-5.25-6.754-10.228-13.847-16.342-19.868-2.646-2.607-7.774-6.966-11.189-3.054-3.248,3.725.952,10.224,2.913,13.478,4.254,7.067,9.644,13.477,14.774,19.912,2.191,2.744,4.4,5.484,6.435,8.345.465.655.9,1.332,1.308,2.023-.168-.078-.364-.172-.637-.322-3.38-1.875-27.873-27.427-29.864-13.262-1.082,7.695,11.038,15.647,15.962,19.576Z" transform="translate(1287.541 12982.257)" fill="#f6d578" stroke="#f6d578" stroke-width="1"></path><path id="Path_1120" data-name="Path 1120" d="M292.46,272.572c-6.281-2.1-10.887-8.521-15.409-13.054-5.212-5.23-11.231-9.805-16.815-14.643-3.948-3.418-15.734-14.665-20.423-6.264-5.093,9.118,7.033,17.43,13.486,21.669,4.3,2.821,5.49,5.814.414,7.939a11.677,11.677,0,0,1-3.983.836,61.053,61.053,0,0,1-12.36-1.046c-9.161-1.356-18.224-3.285-27.414-4.46-4.623-.587-12.879-2.192-16.575,1.762-8.664,9.269,24.695,13.42,27.81,13.867,5.86.839,13.558.782,19.1,3.345-.107.034-.217.061-.368.11a16.969,16.969,0,0,1-3.584.525,106.959,106.959,0,0,1-11.131.043c-8.551-.231-17.11-.751-25.664-.319-4.578.235-12.136.419-15.088,4.679-7.522,10.868,22.839,9.913,26.589,9.919,7.563.022,15.477-.653,22.975.573.311.05.7.106,1.077.193-.39.125-.787.248-1.184.35A84.527,84.527,0,0,1,222.7,300.4c-5.279.663-35.973,1.552-32.5,11.978,1.556,4.671,9.323,4.338,13.093,4.3,8.256-.089,16.518-1.488,24.673-2.649,3.47-.5,6.94-1,10.433-1.307.8-.07,1.61-.1,2.414-.1-.14.1-.306.205-.539.349-6.652,3.995-15.117,4.9-22.16,8.182-3.9,1.817-8.955,6.268-4.84,10.577,3.816,3.995,12.993.633,17.22-.556,15.831-4.452,32.333-13.211,49.108-12.686,2.118.065,2.11-3.218,0-3.285-19.678-.615-37.9,10.8-56.843,14.473-1.824.354-6.8,1.428-7.662-1.086-1.055-3.072,6.94-5.61,8.687-6.268,6.364-2.384,14.5-3.368,19.895-7.755,3.875-3.144-.5-5.31-3.486-5.243-7.3.165-14.661,1.807-21.879,2.748s-15.612,2.516-22.776.627c-2.534-.669-2.907-2.26-.653-3.6,3.067-1.821,7.087-2.379,10.537-3.028,8.3-1.551,16.753-2.162,25.094-3.478,2.21-.349,10.585-1.239,8.61-5.432-1.7-3.6-9.789-2.87-12.849-2.945-8.549-.209-17.1.133-25.65-.239-1.74-.076-17.371-.892-12.964-5.1s15.388-2.923,20.864-2.881c8.269.065,16.532.684,24.8.558,2.93-.043,9.883.326,10.839-3.576,1-4.127-7.27-4.747-9.573-5.141-8.333-1.432-16.755-2.277-25.062-3.891a51.143,51.143,0,0,1-10.492-2.923c-1.464-.632-5.34-2.926-2.209-4.186,6.692-2.688,17.008.47,23.728,1.616,8.635,1.475,17.292,3.349,26.053,3.846,4.362.248,14.592-1,14.689-7.1.063-4.368-4.4-6.492-7.563-8.576a50.083,50.083,0,0,1-7.939-6.485c-2.046-2.038-7.511-10.724-.952-11.224,5.3-.4,12.072,7.383,15.634,10.5,5.623,4.915,11.465,9.536,16.7,14.886,4.252,4.354,8.461,9.432,14.407,11.418,2.011.693,2.869-2.48.87-3.148Z" transform="translate(1307.745 12843.373)" fill="#fffefc" stroke="#fff" stroke-width="1"></path></g></g></g></svg>