<svg xmlns="http://www.w3.org/2000/svg" xmlns:xlink="http://www.w3.org/1999/xlink" width="100" height="90" viewBox="0 0 100 90"><defs><clipPath id="clip-path"><path id="Path_676" data-name="Path 676" d="M0-208.362H87.248v-87H0Z" transform="translate(0 295.362)" fill="#28325a"></path></clipPath><clipPath id="clip-Sign_language_-_100x90"><rect width="100" height="90"></rect></clipPath></defs><g id="Sign_language_-_100x90" data-name="Sign language - 100x90" clip-path="url(#clip-Sign_language_-_100x90)"><g id="Group_251" data-name="Group 251" transform="translate(-1414.876 -12271.022)"><g id="Group_170" data-name="Group 170" transform="translate(1420.876 12273.022)"><g id="Group_102" data-name="Group 102" transform="translate(0 0)" clip-path="url(#clip-path)"><g id="Group_101" data-name="Group 101" transform="translate(0 0)"><path id="Path_675" data-name="Path 675" d="M-35.383-186.439c9.473,7.786,22.685,8.619,34.939,9.1,32.5,1.285,40.89-22.12,36.424-51.624-2.568-16.966-13.341-29.4-30.12-33.89-42.277-11.325-76.8,47.187-41.244,76.411" transform="translate(50.157 264.285)" fill="#28325a"></path></g></g></g><g id="Group_223" data-name="Group 223" transform="translate(1445.929 12287.396)"><path id="Path_1119" data-name="Path 1119" d="M219.184,53.355c2.85,2.273,6.359,4.157,8.849,6.832.517.554,1.345-.277.83-.83-1.686-1.812-3.991-3.171-5.967-4.634-2.614-1.936-5.522-3.933-7.525-6.539-.371-.483-1.386-2.088-.107-2.17s2.854,1.549,3.724,2.294c1.113.952,2.172,1.965,3.3,2.894.634.52,1.567,1.364,2.458,1.332,1.786-.062.725-1.836.172-2.633-1.588-2.288-3.454-4.389-5.141-6.6-1.314-1.726-3.667-4.281-3.706-6.591-.019-1.116,1.427-.036,1.749.224a21.858,21.858,0,0,1,2.95,3.153c1.874,2.274,3.531,4.732,5.5,6.931.533.6,2.372,2.237,2.711.51.324-1.653-1.482-3.972-2.241-5.281-1.532-2.645-3.178-5.231-4.515-7.983-.468-.963-1.987-5.318.6-3.23,2.107,1.7,3.444,4.585,4.73,6.9.4.717,5.54,11.185,7.042,8.589.758-1.311-.8-3.95-1.276-5.124a87.8,87.8,0,0,1-3.3-8.679,6.289,6.289,0,0,1-.357-3.158c.3-1.155,1.558.648,1.752.947,1.723,2.661,2.671,5.894,3.774,8.842.966,2.58,1.848,5.448,3.475,7.706,1.027,1.424,3.463,3,4.791,1.161.91-1.256.5-3.775.722-5.243a10.347,10.347,0,0,1,.852-2.9c.246-.518,1.732-2.244,2.373-1.218.5.8.236,2.3.171,3.18a51.811,51.811,0,0,1-.8,5.462c-.724,3.923-1.764,7.8-2.361,11.743-.111.739,1.019,1.058,1.132.311.952-6.266,3.113-12.427,3.274-18.8.049-1.943-.394-3.516-2.646-3.179-3.06.458-3.314,5.832-3.415,8.067-.055,1.224-.148,2.785-1.725,1.936a4.647,4.647,0,0,1-1.306-1.061,13.976,13.976,0,0,1-1.944-3.74c-1.31-3.12-2.361-6.343-3.673-9.463-.672-1.6-1.625-4.508-3.46-5.185-1.67-.614-2.3,1.2-2.223,2.5.157,2.729,1.471,5.479,2.485,7.972.891,2.192,2.312,4.626,2.646,7.006a4.966,4.966,0,0,1-.8-.944,33.675,33.675,0,0,1-2.033-3.384c-1.5-2.706-2.9-5.471-4.6-8.064-.91-1.391-2.347-3.737-4.224-3.887-1.71-.137-2.03,1.441-1.741,2.781,1.138,5.275,5.552,9.419,7.481,14.38.04.1.095.234.138.368-.051-.044-.112-.1-.193-.175a24.647,24.647,0,0,1-2.453-2.913,69.6,69.6,0,0,0-5.838-7.1c-.945-.931-2.777-2.488-4-1.091-1.16,1.331.34,3.652,1.041,4.815a67.838,67.838,0,0,0,5.278,7.113c.783.98,1.571,1.959,2.3,2.981.166.234.321.476.467.722-.06-.028-.13-.061-.228-.115-1.207-.67-9.956-9.8-10.668-4.737-.386,2.749,3.943,5.589,5.7,6.993Z" transform="translate(-209.89 -28.006)" fill="#f6d578" stroke="#f6d578" stroke-width="1"></path><path id="Path_1120" data-name="Path 1120" d="M222.271,248.781c-2.244-.749-3.889-3.044-5.5-4.663-1.862-1.868-4.012-3.5-6.007-5.231-1.41-1.221-5.62-5.238-7.3-2.238-1.819,3.257,2.512,6.226,4.817,7.74,1.535,1.008,1.961,2.077.148,2.836a4.171,4.171,0,0,1-1.423.3,21.809,21.809,0,0,1-4.415-.373c-3.272-.484-6.51-1.174-9.792-1.593-1.651-.21-4.6-.783-5.921.629-3.095,3.311,8.821,4.794,9.934,4.953,2.093.3,4.843.279,6.824,1.195-.038.012-.078.022-.132.039a6.061,6.061,0,0,1-1.28.187,38.207,38.207,0,0,1-3.976.015c-3.054-.083-6.112-.268-9.167-.114-1.635.084-4.335.15-5.39,1.671-2.687,3.882,8.158,3.541,9.5,3.543a52.294,52.294,0,0,1,8.207.2c.111.018.249.038.385.069-.139.045-.281.089-.423.125a30.194,30.194,0,0,1-4.007.645c-1.886.237-12.85.554-11.608,4.279.556,1.668,3.33,1.55,4.677,1.537a68.133,68.133,0,0,0,8.813-.946c1.24-.179,2.479-.358,3.727-.467.287-.025.575-.036.862-.036-.05.035-.109.073-.193.125-2.376,1.427-5.4,1.749-7.916,2.923-1.393.649-3.2,2.239-1.729,3.778,1.363,1.427,4.641.226,6.151-.2,5.655-1.59,11.55-4.719,17.542-4.532.757.023.754-1.149,0-1.173-7.029-.22-13.538,3.857-20.3,5.17-.651.126-2.43.51-2.737-.388-.377-1.1,2.479-2,3.1-2.239,2.273-.852,5.18-1.2,7.107-2.77,1.384-1.123-.179-1.9-1.245-1.873a74.349,74.349,0,0,0-7.815.981c-2.574.336-5.577.9-8.136.224-.905-.239-1.038-.807-.233-1.285a11.7,11.7,0,0,1,3.764-1.082c2.966-.554,5.984-.772,8.964-1.242.789-.125,3.781-.443,3.075-1.94-.606-1.285-3.5-1.025-4.59-1.052-3.054-.075-6.109.048-9.162-.085-.621-.027-6.205-.319-4.631-1.821s5.5-1.044,7.453-1.029c2.954.023,5.905.244,8.86.2,1.047-.015,3.53.116,3.872-1.277.358-1.474-2.6-1.7-3.419-1.836-2.977-.512-5.985-.813-8.952-1.39a18.268,18.268,0,0,1-3.748-1.044c-.523-.226-1.908-1.045-.789-1.5,2.39-.96,6.075.168,8.476.577a83.905,83.905,0,0,0,9.306,1.374c1.558.089,5.212-.358,5.247-2.536.023-1.56-1.571-2.319-2.7-3.064a17.891,17.891,0,0,1-2.836-2.317c-.731-.728-2.683-3.831-.34-4.009,1.895-.145,4.312,2.637,5.585,3.75,2.009,1.756,4.1,3.407,5.964,5.317,1.519,1.555,3.022,3.369,5.146,4.079.718.247,1.025-.886.311-1.125Z" transform="translate(-183.265 -211.03)" fill="#fffefc" stroke="#fff" stroke-width="1"></path></g></g></g></svg>