<svg xmlns="http://www.w3.org/2000/svg" xmlns:xlink="http://www.w3.org/1999/xlink" width="768" viewBox="0 0 576 579.750005" height="773" preserveAspectRatio="xMidYMid meet"><path fill="#ffffff" d="M 534.164062 343.40625 C 506.5625 421.5 473.253906 506.480469 400.214844 545.546875 C 343.152344 576.070312 273.445312 571.171875 210.894531 554.574219 C 167.085938 542.949219 123.851562 525.503906 89.558594 495.855469 C 40.691406 453.605469 14.089844 388.761719 12.164062 324.191406 C 6.796875 144.210938 173.304688 35.804688 335.519531 13.519531 C 402.117188 4.371094 458.804688 31.257812 507.847656 76.023438 C 590.277344 151.261719 567.671875 248.601562 534.164062 343.40625 " fill-opacity="1" fill-rule="nonzero"></path><path fill="#f6d578" d="M 245.734375 172.832031 C 241.355469 172.980469 241.640625 170.351562 243.398438 167.574219 C 249.4375 158.011719 272.191406 117.34375 274.941406 113.394531 C 277.277344 110.035156 278.261719 110.417969 279.320312 112.371094 C 283.117188 119.382812 306.390625 161.636719 309.253906 166.988281 C 311.445312 171.078125 309.980469 172.972656 305.160156 173.121094 C 297.460938 173.355469 252.527344 172.605469 245.726562 172.828125 Z M 245.734375 172.832031 " fill-opacity="1" fill-rule="nonzero"></path><path fill="#f6d578" d="M 328.808594 403.730469 C 328.097656 405.390625 308.28125 447.777344 307.75 449.179688 C 307.222656 450.582031 305.820312 451.984375 308.457031 451.109375 C 311.085938 450.234375 350.394531 439.351562 351.621094 439 C 352.847656 438.648438 351.976562 437.421875 351.09375 435.664062 C 350.21875 433.910156 330.910156 404.074219 330.566406 403.199219 C 330.210938 402.328125 329.335938 402.496094 328.808594 403.730469 Z M 328.808594 403.730469 " fill-opacity="1" fill-rule="nonzero"></path><path fill="#f6d578" d="M 218.675781 314.871094 C 209.199219 302.238281 191.371094 304.105469 183.875 305.683594 C 183.875 305.683594 178.824219 306.285156 177.363281 306.132812 C 176.066406 305.996094 180.796875 308.132812 182.558594 312.128906 C 183.28125 313.769531 186.488281 321.558594 185.1875 324.757812 C 183.886719 327.964844 181.917969 329.015625 178.859375 330.503906 C 172.402344 333.652344 166.972656 330.8125 166.972656 330.8125 C 166.972656 330.8125 162.5 328.308594 162.691406 324.253906 C 162.710938 323.335938 162.734375 322.179688 162.761719 321.953125 C 162.804688 321.558594 162.804688 319.757812 161.96875 317.519531 C 161.136719 315.28125 158.15625 313.832031 156.96875 313.265625 C 155.78125 312.695312 151.003906 310.632812 149.996094 310.585938 C 148.984375 310.546875 139.773438 312.871094 137.800781 313.875 L 137.148438 314.160156 C 130 316.996094 110.730469 328.980469 106.726562 346.667969 C 102.394531 365.789062 100.023438 399.71875 110.492188 442.65625 L 129.160156 435.636719 C 129.160156 435.636719 129.527344 436.1875 134.335938 440.53125 C 139.144531 444.875 143.90625 446.304688 150.746094 446.121094 C 156.011719 445.980469 160.609375 442.09375 161.625 441.355469 C 162.640625 440.613281 164.742188 437.578125 164.742188 437.578125 C 167.582031 434.648438 169.671875 427.644531 169.671875 427.644531 L 172.503906 417.066406 L 175.777344 403.953125 C 175.777344 403.953125 176.570312 403.199219 178.789062 403.105469 C 181.007812 403.011719 186.179688 403.289062 187.476562 403.570312 C 188.769531 403.847656 191.917969 404.3125 193.300781 404.679688 C 194.6875 405.050781 197.183594 405.789062 199.125 407.269531 C 201.070312 408.75 202.636719 413.558594 202.730469 415.3125 C 202.824219 417.066406 201.527344 418.269531 199.773438 419.65625 C 198.015625 421.042969 193.765625 421.316406 193.765625 421.316406 L 194.183594 421.847656 C 196.15625 424.609375 198.921875 425.003906 205.238281 423.820312 C 211.554688 422.632812 238.695312 414.609375 245.40625 409.476562 L 245.890625 409.394531 L 245.890625 406.992188 L 246.261719 390.355469 L 246.8125 381.390625 C 246.8125 381.390625 247.367188 377.976562 247.734375 377.511719 C 248.105469 377.046875 254.210938 374.722656 254.210938 374.722656 C 251.199219 364.125 228.15625 327.5 218.679688 314.867188 Z M 220.871094 387.285156 L 215.738281 389.160156 C 215.738281 389.160156 216.726562 387.085938 217.027344 386.199219 C 217.324219 385.3125 218.503906 382.648438 218.3125 377.019531 C 218.113281 371.394531 216.53125 365.964844 216.53125 365.964844 L 218.804688 370.40625 L 223.050781 378.503906 L 225.914062 384.921875 L 220.875 387.292969 Z M 220.871094 387.285156 " fill-opacity="1" fill-rule="nonzero"></path><path fill="#f6d578" d="M 378.992188 196.796875 C 378.992188 196.796875 376.304688 193.460938 378.226562 187.875 C 380.613281 180.945312 386.542969 180.566406 393.585938 180.980469 C 399.664062 181.347656 409.027344 185.496094 415.367188 188.785156 C 421.707031 192.070312 428.628906 203.355469 430.496094 213.304688 C 432.058594 221.617188 433.308594 232.460938 429.496094 243.460938 C 427.441406 249.402344 425.488281 256.929688 420.765625 260.761719 C 418.226562 262.824219 416.640625 241.628906 416.640625 235.214844 C 416.640625 233.628906 417.234375 233.207031 417.808594 233.335938 C 422.386719 234.386719 423.574219 227.382812 423.667969 223.15625 C 423.761719 218.882812 422.585938 209.6875 417.824219 209.191406 C 413.066406 208.691406 412.289062 212.640625 410.941406 215.035156 C 408.648438 219.105469 405.011719 221.355469 403.660156 218.988281 C 402.308594 216.621094 403.355469 208.070312 401.875 205.410156 C 397.714844 197.929688 379.113281 197.027344 379.113281 197.027344 L 378.984375 196.804688 Z M 378.992188 196.796875 " fill-opacity="1" fill-rule="nonzero"></path><path stroke-linecap="round" transform="matrix(0.587068, 0, 0, 0.587058, 57.836378, 69.669673)" fill="none" stroke-linejoin="round" d="M 138.239314 415.488917 C 129.0171 417.950874 90.637783 439.276744 83.271988 471.861076 C 75.892886 504.4321 71.587855 561.589423 89.420131 634.729505 " stroke="#313f51" stroke-width="1.98" stroke-opacity="1" stroke-miterlimit="4"></path><path stroke-linecap="round" transform="matrix(0.587068, 0, 0, 0.587058, 57.836378, 69.669673)" fill="none" stroke-linejoin="round" d="M 142.577615 493.579528 C 142.577615 493.579528 146.882645 525.53839 153.642941 542.752126 " stroke="#313f51" stroke-width="1.98" stroke-opacity="1" stroke-miterlimit="4"></path><path stroke-linecap="round" transform="matrix(0.587068, 0, 0, 0.587058, 57.836378, 69.669673)" fill="none" stroke-linejoin="round" d="M 77.729344 510.580338 C 74.661926 540.077243 88.388787 585.19094 120.140885 621.820866 C 152.099252 658.696987 182.241122 636.73234 189.181071 614.022451 C 196.580135 589.808772 205.782388 551.808135 213.387721 513.142104 C 221.458822 472.107272 223.301934 442.849908 221.458822 439.156973 C 219.622364 435.470692 217.992174 434.579064 217.992174 434.579064 " stroke="#313f51" stroke-width="1.98" stroke-opacity="1" stroke-miterlimit="4"></path><path stroke-linecap="round" transform="matrix(0.587068, 0, 0, 0.587058, 57.836378, 69.669673)" fill="none" stroke-linejoin="round" d="M 148.519489 555.840421 C 148.519489 555.840421 159.578162 531.872938 164.501999 503.600358 C 169.419183 475.327777 171.881102 445.212056 171.881102 440.30145 C 171.881102 435.390844 177.783053 433.600935 177.783053 433.600935 " stroke="#313f51" stroke-width="1.98" stroke-opacity="1" stroke-miterlimit="4"></path><path stroke-linecap="round" transform="matrix(0.587068, 0, 0, 0.587058, 57.836378, 69.669673)" fill="none" stroke-linejoin="round" d="M 146.862684 345.349762 C 143.030075 352.389628 144.440688 386.750561 147.987182 394.542322 C 151.54033 402.327429 154.847285 409.260832 164.961114 413.273156 C 184.130811 420.878607 177.210823 429.708382 178.887589 437.001097 C 178.887589 437.001097 184.609887 450.202509 199.767322 446.196839 C 214.918103 442.197822 217.659483 436.502052 217.399983 432.196954 C 217.140484 427.898511 215.317333 415.488917 209.402074 408.528899 C 195.242714 391.847477 179.779203 397.170627 172.007524 379.810504 C 167.722455 370.22218 168.767107 356.508415 163.923116 347.558869 C 159.07247 338.622631 149.650641 340.239538 146.882645 345.3298 Z M 146.862684 345.349762 " stroke="#313f51" stroke-width="1.98" stroke-opacity="1" stroke-miterlimit="4"></path><path stroke-linecap="round" transform="matrix(0.587068, 0, 0, 0.587058, 57.836378, 69.669673)" fill="none" stroke-linejoin="round" d="M 212.948568 388.267659 C 215.410487 386.431172 219.096711 379.670772 219.096711 379.670772 " stroke="#313f51" stroke-width="1.98" stroke-opacity="1" stroke-miterlimit="4"></path><path stroke-linecap="round" transform="matrix(0.587068, 0, 0, 0.587058, 57.836378, 69.669673)" fill="none" stroke-linejoin="round" d="M 206.121734 274.538559 C 206.121734 274.538559 221.352361 271.770521 215.550217 257.33813 C 209.748073 242.912394 186.599383 241.002714 161.926965 250.497883 C 137.261201 259.999705 118.317734 272.562339 109.747595 299.417631 C 102.707838 321.488742 110.452902 360.846782 123.627494 377.022504 C 144.127958 402.167734 136.762163 426.188449 136.762163 426.188449 C 136.762163 426.188449 164.042885 433.880401 169.03326 415.708497 " stroke="#313f51" stroke-width="1.98" stroke-opacity="1" stroke-miterlimit="4"></path><path stroke-linecap="round" transform="matrix(0.587068, 0, 0, 0.587058, 57.836378, 69.669673)" fill="none" stroke-linejoin="round" d="M 196.739827 300.568762 C 182.22116 306.736962 186.040461 339.500951 204.458275 332.101772 C 219.369518 326.113228 212.689068 293.7884 196.739827 300.568762 Z M 196.739827 300.568762 " stroke="#313f51" stroke-width="1.98" stroke-opacity="1" stroke-miterlimit="4"></path><path stroke-linecap="round" transform="matrix(0.587068, 0, 0, 0.587058, 57.836378, 69.669673)" fill="none" stroke-linejoin="round" d="M 234.021262 316.152284 C 245.712049 308.872876 239.377598 281.478616 225.111777 287.547007 C 222.829512 288.518481 221.039631 290.18862 219.708864 292.257994 " stroke="#313f51" stroke-width="1.98" stroke-opacity="1" stroke-miterlimit="4"></path><path stroke-linecap="round" transform="matrix(0.587068, 0, 0, 0.587058, 57.836378, 69.669673)" fill="none" stroke-linejoin="round" d="M 158.480279 331.968693 C 158.480279 331.968693 174.782173 327.078049 187.910189 322.919338 " stroke="#313f51" stroke-width="1.98" stroke-opacity="1" stroke-miterlimit="4"></path><path stroke-linecap="round" transform="matrix(0.587068, 0, 0, 0.587058, 57.836378, 69.669673)" fill="none" stroke-linejoin="round" d="M 210.919148 306.617192 C 210.919148 306.617192 215.037872 292.437651 220.540593 297.308333 " stroke="#313f51" stroke-width="1.98" stroke-opacity="1" stroke-miterlimit="4"></path><path stroke-linecap="round" transform="matrix(0.587068, 0, 0, 0.587058, 57.836378, 69.669673)" fill="none" stroke-linejoin="round" d="M 200.379475 304.880514 C 200.379475 304.880514 198.882362 310.057277 198.276863 312.279692 " stroke="#313f51" stroke-width="1.98" stroke-opacity="1" stroke-miterlimit="4"></path><path stroke-linecap="round" transform="matrix(0.587068, 0, 0, 0.587058, 57.836378, 69.669673)" fill="none" stroke-linejoin="round" d="M 228.511887 291.046978 C 228.511887 291.046978 227.00812 296.230395 226.409275 298.45281 " stroke="#313f51" stroke-width="1.98" stroke-opacity="1" stroke-miterlimit="4"></path><path stroke-linecap="round" transform="matrix(0.587068, 0, 0, 0.587058, 57.836378, 69.669673)" fill="none" stroke-linejoin="round" d="M 216.668061 401.688651 C 241.047711 395.207716 262.339981 401.548918 278.482184 423.08106 C 294.617732 444.599894 328.598865 502.801885 334.480854 519.629693 " stroke="#313f51" stroke-width="1.98" stroke-opacity="1" stroke-miterlimit="4"></path><path stroke-linecap="round" transform="matrix(0.587068, 0, 0, 0.587058, 57.836378, 69.669673)" fill="none" stroke-linejoin="round" d="M 268.541355 451.939187 C 266.518589 456.650175 259.798216 469.432389 263.83044 484.902793 C 267.869318 500.373198 279.972642 523.242781 269.206738 543.410866 " stroke="#313f51" stroke-width="1.98" stroke-opacity="1" stroke-miterlimit="4"></path><path stroke-linecap="round" transform="matrix(0.587068, 0, 0, 0.587058, 57.836378, 69.669673)" fill="none" stroke-linejoin="round" d="M 267.170665 495.628941 C 271.249465 508.03188 284.690211 532.651449 286.027632 536.011687 " stroke="#313f51" stroke-width="1.98" stroke-opacity="1" stroke-miterlimit="4"></path><path stroke-linecap="round" transform="matrix(0.587068, 0, 0, 0.587058, 57.836378, 69.669673)" fill="none" stroke-linejoin="round" d="M 224.146971 567.617891 C 226.841774 559.546664 244.328051 550.131343 259.798216 546.771104 C 275.268381 543.410866 292.761312 533.98889 298.137611 529.963258 " stroke="#313f51" stroke-width="1.98" stroke-opacity="1" stroke-miterlimit="4"></path><path stroke-linecap="round" transform="matrix(0.587068, 0, 0, 0.587058, 57.836378, 69.669673)" fill="none" stroke-linejoin="round" d="M 201.138012 569.427762 C 214.339219 565.109356 227.507158 569.640688 235.591567 572.328878 C 243.669322 575.017069 249.711003 586.448534 245.006742 593.182319 C 240.302481 599.909449 227.520465 597.893306 216.089178 603.269688 C 204.65789 608.652723 193.219949 632.1877 179.772549 631.522307 " stroke="#313f51" stroke-width="1.98" stroke-opacity="1" stroke-miterlimit="4"></path><path stroke-linecap="round" transform="matrix(0.587068, 0, 0, 0.587058, 57.836378, 69.669673)" fill="none" stroke-linejoin="round" d="M 232.218072 599.902796 C 235.578259 604.607129 240.289174 605.279177 251.048424 603.263034 C 261.807674 601.240237 308.038516 587.573049 319.469804 578.829775 " stroke="#313f51" stroke-width="1.98" stroke-opacity="1" stroke-miterlimit="4"></path><path stroke-linecap="round" transform="matrix(0.587068, 0, 0, 0.587058, 57.836378, 69.669673)" fill="none" stroke-linejoin="round" d="M 320.061995 175.727587 C 312.603047 175.980436 313.088777 171.502336 316.083002 166.771387 C 326.36983 150.482548 365.128416 81.208404 369.812715 74.481273 C 373.791708 68.758887 375.468475 69.410973 377.271664 72.737942 C 383.739191 84.68176 423.382737 156.657402 428.259997 165.773296 C 431.992799 172.739969 429.497611 175.967128 421.286779 176.219978 C 408.172071 176.619214 331.633013 175.341658 320.048687 175.720933 Z M 320.061995 175.727587 " stroke="#313f51" stroke-width="1.98" stroke-opacity="1" stroke-miterlimit="4"></path><path stroke-linecap="round" transform="matrix(0.587068, 0, 0, 0.587058, 57.836378, 69.669673)" fill="none" stroke-linejoin="round" d="M 413.049332 502.030029 C 413.049332 502.030029 398.870011 505.110802 378.522585 509.509054 C 358.168505 513.907307 325.910716 521.692414 323.648412 524.640108 C 321.392762 527.587803 321.432685 541.32153 320.760648 557.370827 C 320.26161 569.461031 320.361418 638.209514 320.361418 646.460396 C 320.361418 654.711279 321.532493 656.96031 325.857485 660.207431 C 330.641592 663.800558 378.303008 690.289883 383.246807 692.492336 C 388.19726 694.688135 389.301797 695.792689 394.252249 694.142513 C 399.202702 692.492336 508.891163 654.737895 515.491767 652.528787 C 522.092371 650.332988 523.742522 642.627728 524.288136 634.376846 C 524.840405 626.132617 527.5219 534.268356 527.182554 530.402418 C 526.982939 528.140079 469.959578 504.072787 467.37789 503.207776 " stroke="#313f51" stroke-width="1.98" stroke-opacity="1" stroke-miterlimit="4"></path><path stroke-linecap="round" transform="matrix(0.587068, 0, 0, 0.587058, 57.836378, 69.669673)" fill="none" stroke-linejoin="round" d="M 323.648412 524.640108 C 325.25864 526.296939 372.786979 552.30718 378.169931 555.288144 C 383.552884 558.282416 389.228604 561.270034 391.018486 561.868889 C 392.808367 562.467743 441.148475 550.217844 460.970248 545.127582 C 483.087593 539.451773 525.898364 530.409072 525.898364 530.409072 " stroke="#313f51" stroke-width="1.98" stroke-opacity="1" stroke-miterlimit="4"></path><path stroke-linecap="round" transform="matrix(0.587068, 0, 0, 0.587058, 57.836378, 69.669673)" fill="none" stroke-linejoin="round" d="M 391.018486 561.868889 C 391.018486 561.868889 390.719063 599.530175 391.018486 620.157381 C 391.317908 640.791242 391.317908 688.912518 391.317908 694.288899 " stroke="#313f51" stroke-width="1.98" stroke-opacity="1" stroke-miterlimit="4"></path><path stroke-linecap="round" transform="matrix(0.587068, 0, 0, 0.587058, 57.836378, 69.669673)" fill="none" stroke-linejoin="round" d="M 494.299304 515.138285 C 491.611155 515.73714 364.722532 546.01921 364.423109 547.522999 C 364.117033 549.006827 364.722532 583.387723 363.218765 583.993231 C 361.721653 584.592085 345.878873 576.520859 345.878873 575.622578 C 345.878873 574.717642 346.211565 538.793033 346.77714 537.661864 C 347.682062 535.871955 474.098263 506.421627 475.60203 506.1222 " stroke="#313f51" stroke-width="1.98" stroke-opacity="1" stroke-miterlimit="4"></path><path stroke-linecap="round" transform="matrix(0.587068, 0, 0, 0.587058, 57.836378, 69.669673)" fill="none" stroke-linejoin="round" d="M 461.569093 569.041833 C 460.358095 571.869757 426.603193 644.071633 425.698271 646.460396 C 424.800003 648.84916 422.411277 651.237923 426.902615 649.747441 C 431.380646 648.256959 498.338182 629.71909 500.427486 629.120235 C 502.51679 628.521381 501.032985 626.432044 499.529218 623.437773 C 498.038759 620.450155 465.148856 569.62738 464.563318 568.136898 C 463.957819 566.65307 462.46736 566.939189 461.569093 569.041833 Z M 461.569093 569.041833 " stroke="#313f51" stroke-width="1.98" stroke-opacity="1" stroke-miterlimit="4"></path><path stroke-linecap="round" transform="matrix(0.587068, 0, 0, 0.587058, 57.836378, 69.669673)" fill="none" stroke-linejoin="round" d="M 559.540151 550.843314 C 562.587608 557.011514 562.680761 561.343228 562.288185 567.657814 C 561.642763 578.17769 552.101164 581.571198 547.210596 581.298386 C 535.559732 580.639646 526.257671 570.053232 526.696824 559.739629 " stroke="#313f51" stroke-width="1.98" stroke-opacity="1" stroke-miterlimit="4"></path><path stroke-linecap="round" transform="matrix(0.587068, 0, 0, 0.587058, 57.836378, 69.669673)" fill="none" stroke-linejoin="round" d="M 541.827644 580.852572 C 543.617526 584.891512 555.501274 588.052133 568.729097 591.611989 C 582.163189 595.231731 642.506813 605.039635 659.999744 599.210786 C 677.492675 593.381937 682.622781 580.852572 690.687229 549.020135 C 698.75833 517.187698 709.970041 463.829773 703.688821 433.787245 C 697.407602 403.751371 682.769166 373.522533 628.626915 356.208988 " stroke="#313f51" stroke-width="1.98" stroke-opacity="1" stroke-miterlimit="4"></path><path stroke-linecap="round" transform="matrix(0.587068, 0, 0, 0.587058, 57.836378, 69.669673)" fill="none" stroke-linejoin="round" d="M 569.188211 352.589246 C 543.910294 353.487527 525.818518 369.037779 515.47846 386.457788 C 507.833204 399.353119 484.930706 452.817507 478.662793 492.28201 " stroke="#313f51" stroke-width="1.98" stroke-opacity="1" stroke-miterlimit="4"></path><path stroke-linecap="round" transform="matrix(0.587068, 0, 0, 0.587058, 57.836378, 69.669673)" fill="none" stroke-linejoin="round" d="M 533.536966 365.710811 C 510.960506 394.74194 510.541314 448.85176 509.350278 466.777468 C 507.979588 487.477867 510.521353 518.318868 510.521353 518.318868 " stroke="#313f51" stroke-width="1.98" stroke-opacity="1" stroke-miterlimit="4"></path><path stroke-linecap="round" transform="matrix(0.587068, 0, 0, 0.587058, 57.836378, 69.669673)" fill="none" stroke-linejoin="round" d="M 562.128493 540.316785 C 562.128493 540.316785 576.221314 543.151362 585.909297 544.362379 C 615.678553 548.08193 638.441321 547.216918 641.169393 544.881386 C 645.926884 540.802522 650.152069 504.65168 653.738486 468.021754 C 657.331557 431.37852 674.212335 378.938838 693.967569 405.162006 " stroke="#313f51" stroke-width="1.98" stroke-opacity="1" stroke-miterlimit="4"></path><path stroke-linecap="round" transform="matrix(0.587068, 0, 0, 0.587058, 57.836378, 69.669673)" fill="none" stroke-linejoin="round" d="M 119.908001 624.342708 C 119.908001 624.342708 74.18285 641.376788 64.30856 644.969914 " stroke="#313f51" stroke-width="1.98" stroke-opacity="1" stroke-miterlimit="4"></path><path stroke-linecap="round" transform="matrix(0.587068, 0, 0, 0.587058, 57.836378, 69.669673)" fill="none" stroke-linejoin="round" d="M 671.41107 593.847712 C 671.41107 593.847712 720.729291 610.888446 726.112243 615.3732 " stroke="#313f51" stroke-width="1.98" stroke-opacity="1" stroke-miterlimit="4"></path><path stroke-linecap="round" transform="matrix(0.587068, 0, 0, 0.587058, 57.836378, 69.669673)" fill="none" stroke-linejoin="round" d="M 245.312819 258.056756 C 237.447986 258.422722 234.500338 273.201117 248.007622 272.123179 C 261.528213 271.038588 257.203221 257.517787 245.312819 258.056756 Z M 245.312819 258.056756 " stroke="#313f51" stroke-width="1.98" stroke-opacity="1" stroke-miterlimit="4"></path><path stroke-linecap="round" transform="matrix(0.587068, 0, 0, 0.587058, 57.836378, 69.669673)" fill="none" stroke-linejoin="round" d="M 279.041106 228.426772 C 260.350485 225.39923 254.169072 250.597692 274.170499 252.760221 C 294.171925 254.922751 299.042532 231.667239 279.041106 228.426772 Z M 279.041106 228.426772 " stroke="#313f51" stroke-width="1.98" stroke-opacity="1" stroke-miterlimit="4"></path><path stroke-linecap="round" transform="matrix(0.587068, 0, 0, 0.587058, 57.836378, 69.669673)" fill="none" stroke-linejoin="round" d="M 547.050904 216.549493 C 547.050904 216.549493 542.473066 210.867031 545.746753 201.3519 C 549.812245 189.547815 559.912766 188.902383 571.90963 189.6077 C 582.262996 190.23317 598.212237 197.299652 609.011411 202.902267 C 619.810584 208.498229 631.601179 227.721454 634.781712 244.669033 C 637.443245 258.828612 639.572472 277.299943 633.07833 296.037431 C 629.578413 306.15807 626.251496 318.980207 618.20701 325.50772 C 613.882017 329.020999 611.180561 292.916734 611.180561 281.990969 C 611.180561 279.28947 612.191944 278.570845 613.170057 278.790425 C 620.968351 280.580334 622.991117 268.649824 623.150809 261.450264 C 623.310501 254.170856 621.307697 238.507487 613.196673 237.662437 C 605.092302 236.810733 603.768189 243.537864 601.472616 247.616728 C 597.566815 254.55013 591.372095 258.382798 589.069869 254.350512 C 586.767642 250.318226 588.55087 235.752757 586.029066 231.221426 C 578.942733 218.479135 547.257173 216.942076 547.257173 216.942076 C 546.139329 220.422085 538.979803 242.326847 525.798557 248.827744 C 516.689457 253.319152 508.891163 253.099572 508.132626 256.672737 C 506.662129 263.579524 517.361495 267.671695 520.402297 269.581375 C 521.872794 270.499619 524.261521 285.670596 525.412634 288.159169 C 526.097979 289.649651 531.361162 290.228543 535.919039 290.567894 C 544.069986 291.18671 551.449089 285.118319 552.307433 286.628763 C 553.172432 288.139207 552.247549 295.598271 545.93306 300.462299 C 540.530146 304.607702 532.758468 304.121965 533.656735 306.909965 C 534.561657 309.697965 535.007464 318.061964 538.168035 323.611348 C 541.328606 329.160732 543.717333 333.219634 551.708588 336.327023 C 559.713151 339.441065 562.507762 336.732913 565.102757 341.270898 C 567.691099 345.808884 571.290823 354.43904 568.868827 364.739336 C 566.446832 375.039631 558.069654 378.027249 562.101878 385.087077 C 566.127448 392.146904 580.513038 389.678294 589.642099 385.087077 C 598.771159 380.502514 607.700605 368.518772 616.277398 363.042582 C 624.188807 357.978935 629.232414 356.528377 628.853145 356.208988 C 625.519574 353.327833 613.323095 336.692989 616.03786 324.962097 " stroke="#313f51" stroke-width="1.98" stroke-opacity="1" stroke-miterlimit="4"></path><path stroke-linecap="round" transform="matrix(0.587068, 0, 0, 0.587058, 57.836378, 69.669673)" fill="none" stroke-linejoin="round" d="M 549.452938 246.512174 L 549.812245 251.682283 " stroke="#313f51" stroke-width="1.98" stroke-opacity="1" stroke-miterlimit="4"></path><path stroke-linecap="round" transform="matrix(0.587068, 0, 0, 0.587058, 57.836378, 69.669673)" fill="none" stroke-linejoin="round" d="M 703.688821 433.780591 C 710.322694 466.331654 714.148649 556.359428 710.961462 607.441707 " stroke="#313f51" stroke-width="1.98" stroke-opacity="1" stroke-miterlimit="4"></path><path stroke-linecap="round" transform="matrix(0.587068, 0, 0, 0.587058, 57.836378, 69.669673)" fill="none" stroke-linejoin="round" d="M 144.540496 365.617656 C 136.036895 367.321064 130.467636 354.971355 127.380257 345.569342 C 122.789111 331.642651 131.432442 312.193191 145.897878 330.278593 C 153.84921 340.219576 160.849044 336.060865 162.552426 315.160847 C 163.796693 299.73702 168.560838 293.748476 171.807909 287.700047 C 178.441782 275.350339 195.848213 267.771504 206.108426 274.538559 C 216.368639 281.312267 222.536743 301.872934 226.089891 309.658041 C 229.643039 317.449802 247.768084 321.887978 248.060852 326.798584 C 248.360275 331.70919 240.788211 338.94202 235.378644 341.111204 C 229.969076 343.280387 233.242763 356.628186 234.626761 369.476939 C 236.017412 382.332347 232.49088 392.659258 222.257282 399.166808 C 218.038751 401.861653 210.080765 403.897758 204.012468 402.700049 " stroke="#313f51" stroke-width="1.98" stroke-opacity="1" stroke-miterlimit="4"></path><path stroke-linecap="round" transform="matrix(0.587068, 0, 0, 0.587058, 57.836378, 69.669673)" fill="none" stroke-linejoin="round" d="M 470.352154 82.579115 C 470.731423 78.440366 472.541266 52.989055 435.279793 38.749629 C 402.017274 26.0273 381.210734 53.221943 372.820249 44.232473 C 360.71027 31.257295 328.991441 24.510203 298.31061 48.610764 C 272.320733 69.031699 284.171212 78.387135 274.197114 85.872814 C 262.107097 94.942131 234.566876 94.642704 234.107761 137.347675 C 233.661955 179.007978 276.479379 182.082097 277.490762 192.162812 C 278.502145 202.236874 293.553119 224.999994 327.807058 231.048423 C 355.660009 235.959029 369.326985 215.078973 379.400891 214.080882 C 389.48145 213.069484 413.448562 237.096852 442.672203 219.969617 C 471.88919 202.842382 461.016824 183.958507 467.071814 177.916732 C 473.120149 171.881611 493.58069 173.85783 501.112831 140.381871 C 510.907275 96.831849 469.347425 93.671229 470.358808 82.592423 Z M 470.352154 82.579115 " stroke="#313f51" stroke-width="1.98" stroke-opacity="1" stroke-miterlimit="4"></path><path stroke-linecap="round" transform="matrix(0.587068, 0, 0, 0.587058, 57.836378, 69.669673)" fill="none" stroke-linejoin="round" d="M 510.361661 521.233292 C 510.361661 521.233292 510.62116 508.730544 515.571613 509.908291 C 522.331909 511.518543 522.651293 527.221836 522.651293 527.221836 " stroke="#313f51" stroke-width="1.98" stroke-opacity="1" stroke-miterlimit="4"></path><path stroke-linecap="round" transform="matrix(0.587068, 0, 0, 0.587058, 57.836378, 69.669673)" fill="none" stroke-linejoin="round" d="M 527.668284 541.940346 C 531.820277 541.108604 534.701387 536.637158 536.078731 533.037377 C 537.462729 529.437597 541.042492 521.812185 539.65184 516.003297 C 538.267843 510.187756 531.347855 509.083202 527.74813 508.25146 C 524.148406 507.419718 520.229297 505.862697 520.229297 501.49106 C 520.229297 497.119423 528.027591 497.172654 534.947579 498.556673 C 541.867567 499.940692 550.171552 502.429265 554.316891 507.692529 C 558.468884 512.94914 557.357694 522.078342 557.357694 522.078342 " stroke="#313f51" stroke-width="1.98" stroke-opacity="1" stroke-miterlimit="4"></path><path stroke-linecap="round" transform="matrix(0.587068, 0, 0, 0.587058, 57.836378, 69.669673)" fill="none" stroke-linejoin="round" d="M 548.461517 538.793033 C 550.238091 532.272175 550.278014 521.978533 556.259811 522.09165 C 563.179799 522.218075 562.4878 530.948041 562.221647 536.211306 C 561.942186 541.467916 556.792118 571.550368 542.87895 570.572239 " stroke="#313f51" stroke-width="1.98" stroke-opacity="1" stroke-miterlimit="4"></path><path stroke-linecap="round" transform="matrix(0.587068, 0, 0, 0.587058, 57.836378, 69.669673)" fill="none" stroke-linejoin="round" d="M 490.619734 512.782792 C 490.619734 512.782792 485.489628 498.170745 481.257789 494.690735 C 478.077256 492.082392 468.163043 490.711681 464.649818 491.922697 C 458.401868 494.078573 451.162496 499.029103 448.321308 500.779088 C 443.477317 503.746744 442.000166 510.6003 448.088424 511.711508 C 454.183336 512.822715 458.149022 507.599374 463.139398 504.831336 C 468.12312 502.063298 472.800765 501.298095 476.879566 506.667823 " stroke="#313f51" stroke-width="1.98" stroke-opacity="1" stroke-miterlimit="4"></path><path stroke-linecap="round" transform="matrix(0.587068, 0, 0, 0.587058, 57.836378, 69.669673)" fill="none" stroke-linejoin="round" d="M 443.883201 506.541398 C 439.172286 509.309436 430.668685 512.569866 428.100305 506.328472 C 424.873196 498.530057 443.617047 489.148006 449.71196 486.938898 C 455.800218 484.729791 464.663126 491.922697 464.663126 491.922697 " stroke="#313f51" stroke-width="1.98" stroke-opacity="1" stroke-miterlimit="4"></path><path stroke-linecap="round" transform="matrix(0.587068, 0, 0, 0.587058, 57.836378, 69.669673)" fill="none" stroke-linejoin="round" d="M 439.917515 491.277266 C 424.440696 488.05676 414.280291 499.388415 412.616833 503.540472 C 410.960028 507.692529 415.937096 510.181102 419.257359 509.628825 C 422.577623 509.083202 427.009076 505.476768 427.009076 505.476768 " stroke="#313f51" stroke-width="1.98" stroke-opacity="1" stroke-miterlimit="4"></path><path fill="#313f51" d="M 178.84375 230.839844 C 178.84375 230.839844 187.785156 229.214844 184.378906 220.742188 C 180.972656 212.273438 167.382812 211.152344 152.898438 216.726562 C 138.417969 222.304688 127.296875 229.679688 122.265625 245.445312 C 118.132812 258.402344 122.679688 281.507812 130.414062 291.003906 C 142.449219 305.765625 138.125 319.867188 138.125 319.867188 C 138.125 319.867188 154.246094 324.066406 157.175781 313.394531 C 157.175781 313.394531 150.234375 310.792969 147.199219 306.019531 C 144.164062 301.246094 143.730469 298.105469 143.296875 294.417969 L 142.644531 284.226562 C 142.644531 284.226562 141.453125 284.664062 140.148438 284.011719 C 138.847656 283.359375 134.511719 279.566406 132.992188 273.820312 C 131.472656 268.070312 131.59375 260.746094 136.246094 259.296875 C 139.714844 258.210938 142.75 263.957031 145.785156 265.90625 C 148.820312 267.855469 150.550781 265.582031 151.421875 263.523438 C 152.289062 261.460938 153.699219 253.660156 153.914062 249.539062 C 154.132812 245.417969 159.117188 237.617188 161.71875 234.582031 C 164.320312 231.546875 170.171875 229.160156 174.074219 229.378906 C 177.980469 229.597656 178.835938 230.828125 178.835938 230.828125 Z M 178.84375 230.839844 " fill-opacity="1" fill-rule="nonzero"></path></svg>