<svg xmlns="http://www.w3.org/2000/svg" xmlns:xlink="http://www.w3.org/1999/xlink" width="768" viewBox="0 0 576 579.750005" height="773" preserveAspectRatio="xMidYMid meet"><path fill="#ffffff" d="M 106.425781 502.136719 C 164.929688 550.265625 246.523438 555.410156 322.199219 558.410156 C 522.925781 566.347656 574.730469 421.683594 547.148438 239.3125 C 531.289062 134.441406 464.757812 57.613281 361.136719 29.832031 C 100.039062 -40.171875 -113.167969 321.5 106.425781 502.136719 " fill-opacity="1" fill-rule="nonzero"></path><path fill="#f6d578" d="M 392.464844 174.992188 C 385.027344 169.066406 378.382812 153.828125 384.03125 143.960938 C 389.683594 134.097656 389.320312 119.992188 382.421875 113.394531 C 375.519531 106.796875 375.488281 100.894531 376.761719 95.832031 C 378.035156 90.765625 377.789062 80.175781 369.769531 77.980469 C 362.871094 76.085938 355.703125 83.824219 351.023438 75.128906 C 346.597656 66.898438 327.53125 60.699219 321.867188 69.417969 C 318.160156 75.121094 310.542969 77.519531 300.128906 76.585938 C 288.125 75.507812 291.46875 91.644531 287.058594 91.589844 C 282.652344 91.539062 270.996094 92.261719 272.621094 106.105469 C 274.054688 118.3125 264.621094 122.976562 255.871094 128.363281 C 247.121094 133.757812 241.53125 147.601562 244.453125 158.828125 C 247.375 170.058594 241.414062 180.640625 232.242188 187.183594 C 223.066406 193.726562 237.175781 206.445312 229.945312 215.515625 C 222.714844 224.585938 219.832031 233.171875 231.070312 235.207031 C 242.308594 237.242188 250.003906 217.652344 261.488281 221.859375 C 272.976562 226.066406 285.164062 216.980469 283.089844 208.410156 C 281.015625 199.839844 280.082031 186.730469 286.550781 185.449219 C 293.003906 184.171875 281.195312 165.3125 286.203125 161.394531 C 285.890625 159.929688 285.625 158.421875 285.410156 156.902344 C 283.375 158.582031 281.480469 159.097656 280.238281 157.078125 C 276.445312 150.875 284.648438 139.113281 285.496094 137.925781 C 285.996094 134.820312 286.738281 131.816406 287.769531 129.019531 C 289.480469 124.378906 297.351562 120.207031 296.804688 115.3125 C 296.25 110.421875 295.023438 99.554688 308.445312 94.179688 C 321.867188 88.808594 337 88.199219 345.703125 92.722656 C 354.398438 97.25 351.160156 104.769531 356.210938 108.046875 C 361.257812 111.328125 362.792969 115.800781 362.792969 115.800781 C 362.738281 116.839844 362.648438 118.195312 362.515625 119.792969 L 362.363281 124.183594 C 362.363281 124.183594 361.5 134.289062 361.792969 137.84375 C 361.984375 140.132812 361.390625 148.964844 360.488281 156.742188 C 361.421875 159.414062 362.578125 162.785156 363.109375 164.585938 C 364.082031 167.855469 364.320312 173.550781 360.328125 175.246094 C 358.089844 176.195312 356.84375 175.476562 356.070312 174.042969 C 353.34375 178.953125 349.039062 183.863281 343.675781 186.992188 C 338.488281 190.027344 333.207031 191.730469 328.027344 192.339844 L 329.296875 193.28125 C 329.296875 193.28125 320.710938 219.570312 335.464844 228.363281 C 335.464844 228.363281 329.398438 229.390625 328.195312 237.621094 C 326.683594 247.957031 343.414062 256.957031 353.929688 250.515625 C 362.40625 245.320312 359.578125 237.742188 376.59375 235.832031 C 389.367188 234.398438 378.382812 220.21875 378.382812 220.21875 L 393.429688 228.289062 C 393.429688 228.289062 396.1875 207.792969 402.179688 200.964844 C 408.175781 194.136719 399.914062 180.925781 392.472656 175 Z M 392.464844 174.992188 " fill-opacity="1" fill-rule="nonzero"></path><path fill="#f5f5f5" d="M 381.164062 435.433594 C 375.328125 437.46875 366.441406 438.261719 364.171875 428.257812 C 362.128906 419.234375 364.289062 416.960938 361.152344 416.183594 C 357.375 415.242188 354.921875 416.746094 352.277344 418.070312 C 349.632812 419.386719 347.042969 420.375 345.855469 418.449219 C 344.347656 415.996094 345.996094 413.191406 351.332031 410.515625 C 360.386719 405.984375 366.054688 411.648438 366.054688 408.820312 C 366.054688 405.992188 361.523438 402.777344 358.878906 403.535156 C 356.234375 404.289062 344.53125 412.027344 341.132812 409.382812 C 337.730469 406.742188 341.316406 402.402344 345.472656 400.699219 C 349.625 398.996094 355.476562 395.410156 359.0625 395.789062 C 362.648438 396.167969 366.492188 399.640625 365.863281 398.054688 C 365.484375 397.113281 360.949219 392.765625 357.550781 392.765625 C 354.152344 392.765625 338.863281 400.503906 336.976562 398.433594 C 335.085938 396.359375 333.578125 392.390625 341.316406 389.9375 C 349.054688 387.488281 357.367188 384.273438 359.816406 385.03125 C 362.269531 385.785156 363.59375 388.429688 363.402344 387.480469 C 363.210938 386.53125 360.195312 381.253906 357.359375 381.058594 C 354.523438 380.867188 346.527344 382.792969 340.554688 385.777344 C 334.507812 388.796875 331.496094 383.132812 336.777344 379.550781 C 342.0625 375.964844 356.21875 372.75 360.566406 372.75 C 364.914062 372.75 366.988281 373.316406 368.121094 376.152344 C 369.253906 378.980469 375.4375 399.234375 375.859375 400.496094 C 377.371094 405.03125 383.96875 418.726562 385.867188 420.882812 C 392.289062 428.183594 386.523438 433.539062 381.148438 435.417969 Z M 213.902344 414.488281 C 219.753906 413.730469 225.203125 413.292969 222.589844 408.636719 C 220.894531 405.617188 205.035156 403.917969 201.066406 404.484375 C 197.097656 405.046875 184.640625 408.066406 186.71875 405.992188 C 188.792969 403.917969 199.371094 395.613281 203.527344 395.425781 C 207.679688 395.242188 215.605469 396.9375 218.25 394.863281 C 220.894531 392.789062 220.140625 389.015625 217.308594 387.6875 C 214.480469 386.371094 199.5625 387.503906 196.542969 388.628906 C 193.519531 389.761719 179.929688 400.707031 177.476562 400.898438 C 175.027344 401.082031 172.757812 397.121094 172.757812 397.121094 C 172.757812 397.121094 168.804688 397.414062 164.015625 401.769531 C 159.230469 406.125 147.734375 419.472656 147.734375 419.472656 C 149.246094 421.363281 156.523438 440.90625 164.835938 441.285156 C 173.144531 441.664062 183.714844 433.355469 188.625 434.679688 C 193.535156 436.003906 208.066406 440.53125 208.066406 435.058594 C 208.066406 429.585938 183.519531 427.695312 187.296875 424.867188 C 191.074219 422.039062 205.609375 421.46875 209.957031 422.417969 C 214.304688 423.367188 219.207031 424.113281 219.011719 419.773438 C 218.820312 415.433594 212.785156 413.167969 204.667969 412.976562 C 196.550781 412.789062 187.296875 415.242188 187.296875 415.242188 " fill-opacity="1" fill-rule="nonzero"></path><path fill="#313f51" d="M 192.617188 422.988281 L 192.601562 423.164062 C 191.238281 423.410156 189.835938 423.71875 188.769531 424.074219 C 188.183594 424.3125 187.667969 424.574219 187.28125 424.859375 C 187.183594 424.9375 187.105469 425.015625 187.042969 425.089844 C 187.011719 425.183594 187.011719 425.285156 187.066406 425.382812 C 187.589844 426.339844 190.050781 427.066406 192.132812 427.566406 L 192.101562 427.867188 C 197.652344 429.398438 205.886719 431.164062 207.679688 433.941406 C 208.121094 431.957031 208.398438 430.703125 208.398438 430.703125 L 209.277344 422.300781 C 205.777344 421.761719 198.121094 421.917969 192.617188 422.996094 Z M 192.617188 422.988281 " fill-opacity="1" fill-rule="nonzero"></path><path fill="#313f51" d="M 191.292969 435.417969 L 191.292969 435.527344 C 189.742188 435.082031 188.285156 434.679688 187.492188 434.546875 C 187.058594 434.546875 186.597656 434.59375 186.113281 434.679688 C 185.292969 434.957031 184.632812 435.457031 184.632812 435.457031 C 178.664062 469.417969 161.851562 494.480469 161.851562 494.480469 C 161.851562 494.480469 173.894531 507.460938 186.164062 494.464844 C 189.875 490.542969 192.839844 483.851562 195.191406 476.4375 C 195.894531 474.75 201.660156 460.890625 201.867188 460.074219 C 202.023438 459.464844 205.136719 445.429688 207.003906 436.984375 C 204.179688 438.773438 196.28125 436.792969 191.292969 435.425781 Z M 191.292969 435.417969 " fill-opacity="1" fill-rule="nonzero"></path><path fill="#313f51" d="M 203.519531 395.417969 C 201.597656 395.503906 198.308594 397.332031 195.125 399.472656 L 195.125 399.542969 C 191.492188 402.203125 187.199219 405.570312 187.199219 405.570312 C 185.347656 407.550781 189.972656 405.960938 191.953125 405.960938 C 192.53125 405.960938 193.441406 405.824219 194.460938 405.636719 L 194.460938 405.707031 C 197.042969 405.214844 199.617188 404.683594 201.058594 404.476562 C 202.816406 404.21875 206.910156 404.421875 211.074219 404.976562 L 211.660156 399.363281 L 212 395.859375 C 209.007812 395.742188 205.722656 395.3125 203.511719 395.410156 Z M 203.519531 395.417969 " fill-opacity="1" fill-rule="nonzero"></path><path fill="#313f51" d="M 231.078125 235.199219 C 219.839844 233.164062 222.722656 224.585938 229.953125 215.507812 C 236.789062 206.929688 224.570312 195.101562 230.960938 188.300781 L 230.730469 187.863281 C 222.675781 187.863281 198.5 188.480469 194.167969 193.441406 C 189.828125 198.398438 178.054688 231.863281 164.417969 243.015625 C 150.78125 254.167969 120.414062 295.0625 112.359375 301.257812 C 104.304688 307.457031 96.863281 324.1875 102.445312 331 C 108.027344 337.816406 121.65625 369.421875 124.140625 382.433594 C 126.621094 395.441406 139.632812 418.988281 144.589844 423.328125 C 144.589844 423.328125 153.886719 410.316406 161.328125 403.496094 C 168.765625 396.683594 178.679688 393.585938 178.679688 393.585938 C 178.679688 393.585938 171.242188 373.753906 170.625 363.226562 C 170.007812 352.691406 164.425781 353.3125 161.328125 347.734375 C 158.226562 342.152344 155.128906 319.234375 155.128906 319.234375 C 155.128906 319.234375 169.382812 311.796875 174.964844 304.980469 C 180.546875 298.167969 194.175781 290.105469 194.175781 290.105469 L 194.613281 290.253906 C 195.6875 310.65625 195.824219 334.664062 195.410156 345.867188 C 194.792969 362.601562 192.523438 390.515625 192.523438 390.515625 C 192.523438 390.515625 194.296875 389.367188 196.273438 388.621094 L 196.257812 388.730469 C 196.355469 388.683594 196.449219 388.644531 196.527344 388.613281 C 198.738281 387.789062 207.304688 386.957031 212.855469 387.085938 L 216.222656 352.582031 C 216.222656 352.582031 212.738281 334.09375 211.867188 330.824219 C 211.503906 329.460938 211.179688 326.816406 210.925781 324.1875 C 211.574219 319.269531 212.320312 314.777344 213.15625 311.070312 C 218.203125 288.695312 231.308594 245.265625 240.691406 232.273438 L 240.707031 232.203125 C 237.683594 234.367188 234.546875 235.816406 231.0625 235.191406 Z M 231.078125 235.199219 " fill-opacity="1" fill-rule="nonzero"></path><path fill="#313f51" d="M 451.992188 345.882812 C 447.652344 332.875 438.980469 309.328125 424.71875 296.9375 C 410.464844 284.542969 412.941406 265.335938 412.941406 251.085938 C 412.941406 236.835938 399.605469 232.003906 393.4375 228.117188 C 393.421875 228.226562 393.414062 228.289062 393.414062 228.289062 L 378.367188 220.21875 C 378.367188 220.21875 389.351562 234.398438 376.578125 235.832031 C 359.5625 237.742188 362.394531 245.3125 353.914062 250.515625 C 351.4375 252.03125 348.609375 252.6875 345.765625 252.671875 L 345.742188 252.726562 C 347.183594 259.941406 352.417969 309.722656 347.359375 329.929688 C 342.3125 350.140625 327.871094 379.011719 324.980469 401.382812 C 322.089844 423.757812 317.558594 483.226562 327.148438 495.203125 C 338.695312 509.640625 366.847656 493.039062 366.847656 493.039062 C 366.847656 493.039062 364.503906 441.992188 363.355469 423.558594 C 363.148438 421.675781 363.125 420.257812 363.0625 419.203125 C 363.039062 418.933594 363.023438 418.679688 363 418.457031 C 362.855469 417.144531 362.492188 416.527344 361.136719 416.191406 C 357.359375 415.25 354.90625 416.753906 352.261719 418.078125 C 349.617188 419.394531 347.027344 420.382812 345.839844 418.457031 C 344.332031 416.003906 345.980469 413.199219 351.316406 410.523438 C 360.378906 405.992188 366.039062 411.65625 366.039062 408.828125 C 366.039062 406 361.507812 402.785156 358.863281 403.542969 C 356.21875 404.296875 344.515625 412.035156 341.117188 409.390625 C 337.714844 406.75 341.300781 402.410156 345.457031 400.707031 C 349.609375 399.011719 355.460938 395.417969 359.046875 395.796875 C 362.632812 396.175781 366.476562 399.648438 365.847656 398.0625 C 365.46875 397.121094 360.9375 392.773438 357.535156 392.773438 C 354.136719 392.773438 338.847656 400.511719 336.960938 398.441406 C 335.070312 396.367188 333.5625 392.398438 341.300781 389.945312 C 349.039062 387.496094 357.351562 384.28125 359.800781 385.039062 C 362.253906 385.792969 363.578125 388.4375 363.386719 387.488281 C 363.203125 386.546875 360.179688 381.261719 357.34375 381.066406 C 354.515625 380.882812 346.511719 382.800781 340.539062 385.785156 C 334.492188 388.804688 331.480469 383.140625 336.761719 379.558594 C 342.046875 375.972656 356.203125 372.757812 360.550781 372.757812 C 361.992188 372.757812 363.164062 372.835938 364.15625 373.023438 L 363.988281 372.675781 C 363.988281 365.863281 367.042969 348.351562 372.621094 332.859375 C 378.203125 317.367188 379.4375 307.457031 379.4375 307.457031 C 379.4375 307.457031 385.636719 314.269531 389.351562 317.992188 C 393.066406 321.707031 399.265625 329.769531 400.507812 342.777344 C 401.746094 355.789062 413.519531 364.464844 413.519531 364.464844 C 413.519531 364.464844 402.980469 373.761719 396.78125 379.339844 C 390.585938 384.921875 373.847656 392.976562 373.847656 392.976562 L 372.839844 390.894531 C 374.332031 395.710938 375.644531 399.957031 375.828125 400.511719 C 377.339844 405.046875 383.9375 418.742188 385.835938 420.898438 C 392.257812 428.199219 386.492188 433.554688 381.117188 435.433594 C 375.558594 437.371094 367.265625 438.164062 364.519531 429.632812 L 364.558594 432.019531 C 364.558594 432.019531 372 443.171875 380.054688 441.933594 C 388.109375 440.691406 447.609375 396.699219 460.003906 383.6875 C 472.398438 370.679688 456.289062 358.902344 451.949219 345.890625 Z M 451.992188 345.882812 " fill-opacity="1" fill-rule="nonzero"></path><path stroke-linecap="round" transform="matrix(0.770898, 0, 0, 0.770725, 80.906984, 39.081918)" fill="none" stroke-linejoin="round" d="M 356.350934 176.97947 C 350.589592 184.257523 358.048427 193.649048 366.920994 190.608079 C 374.688924 187.9523 375.210839 176.239501 366.140654 173.38099 " stroke="#313f51" stroke-width="1.98" stroke-opacity="1" stroke-miterlimit="4"></path><path stroke-linecap="round" transform="matrix(0.770898, 0, 0, 0.770725, 80.906984, 39.081918)" fill="none" stroke-linejoin="round" d="M 357.420101 175.342415 C 357.521444 177.998195 365.370448 178.231336 366.318004 171.029308 C 367.270627 163.832348 362.821675 152.960884 362.821675 152.960884 " stroke="#313f51" stroke-width="1.98" stroke-opacity="1" stroke-miterlimit="4"></path><path stroke-linecap="round" transform="matrix(0.770898, 0, 0, 0.770725, 80.906984, 39.081918)" fill="none" stroke-linejoin="round" d="M 405.208325 245.127584 C 413.108001 250.190797 430.721389 256.571764 430.721389 275.060855 C 430.721389 293.549946 427.498686 318.470687 445.998825 334.552344 C 464.488829 350.628933 475.74802 381.180534 481.367481 398.057912 C 487.002144 414.940358 507.899041 430.221227 491.820997 447.098604 C 475.737886 463.98105 398.560234 521.070174 388.111785 522.671751 C 377.658269 524.278396 368.010429 509.808452 368.010429 509.808452 " stroke="#313f51" stroke-width="1.98" stroke-opacity="1" stroke-miterlimit="4"></path><path stroke-linecap="round" transform="matrix(0.770898, 0, 0, 0.770725, 80.906984, 39.081918)" fill="none" stroke-linejoin="round" d="M 380.070229 459.171251 C 380.070229 459.171251 401.777869 448.720454 409.819425 441.47788 C 417.860981 434.240374 431.532132 422.177864 431.532132 422.177864 C 431.532132 422.177864 416.249629 410.921211 414.648412 394.038765 C 413.042128 377.161387 405.000572 366.700454 400.181719 361.880518 C 395.357799 357.060582 387.321311 348.211363 387.321311 348.211363 C 387.321311 348.211363 385.709959 361.069593 378.479147 381.170398 C 371.238199 401.271203 367.280761 423.992309 367.280761 432.831392 " stroke="#313f51" stroke-width="1.98" stroke-opacity="1" stroke-miterlimit="4"></path><path stroke-linecap="round" transform="matrix(0.770898, 0, 0, 0.770725, 80.906984, 39.081918)" fill="none" stroke-linejoin="round" d="M 146.920854 325.708193 C 146.920854 325.708193 129.231458 336.158989 122.000646 345.008209 C 114.759698 353.85236 96.269694 363.502368 96.269694 363.502368 C 96.269694 363.502368 100.287939 393.248113 104.31125 400.480551 C 108.329494 407.70792 115.570441 406.9122 116.37105 420.581355 C 117.171658 434.250511 126.819498 459.97204 126.819498 459.97204 C 126.819498 459.97204 113.95909 463.991187 104.31125 472.83027 C 94.658343 481.669353 82.598543 498.561935 82.598543 498.561935 C 76.168339 492.931075 59.279552 462.379473 56.07205 445.502096 C 52.849348 428.61965 35.170086 387.612184 27.929139 378.768032 C 20.688192 369.928949 30.341099 348.221499 40.789548 340.178137 C 51.237996 332.139842 90.640099 279.080002 108.31936 264.610058 C 126.008756 250.140115 141.281124 206.720147 146.91072 200.288497 C 152.540315 193.861916 183.890728 193.050991 194.339176 193.050991 " stroke="#313f51" stroke-width="1.98" stroke-opacity="1" stroke-miterlimit="4"></path><path stroke-linecap="round" transform="matrix(0.770898, 0, 0, 0.770725, 80.906984, 39.081918)" fill="none" stroke-linejoin="round" d="M 207.290794 250.682421 C 195.119516 267.539525 178.119252 323.88868 171.572504 352.919796 C 165.020688 381.950913 163.079972 447.519272 163.079972 451.2698 " stroke="#313f51" stroke-width="1.98" stroke-opacity="1" stroke-miterlimit="4"></path><path stroke-linecap="round" transform="matrix(0.770898, 0, 0, 0.770725, 80.906984, 39.081918)" fill="none" stroke-linejoin="round" d="M 169.799004 362.808014 C 167.929228 382.467878 175.241115 400.759306 175.241115 408.260363 C 175.241115 415.761419 171.491429 450.398056 171.491429 450.398056 " stroke="#313f51" stroke-width="1.98" stroke-opacity="1" stroke-miterlimit="4"></path><path stroke-linecap="round" transform="matrix(0.770898, 0, 0, 0.770725, 80.906984, 39.081918)" fill="none" stroke-linejoin="round" d="M 343.561465 277.189533 C 345.431241 286.550649 352.221212 351.14083 345.659262 377.35905 C 339.112514 403.582339 320.379287 441.042008 316.629601 470.068056 C 312.879916 499.099173 307.00203 576.258692 319.441866 591.798043 C 334.42034 610.530412 370.939238 588.990215 370.939238 588.990215 C 370.939238 588.990215 366.728442 497.259387 365.791021 490.701031 " stroke="#313f51" stroke-width="1.98" stroke-opacity="1" stroke-miterlimit="4"></path><path stroke-linecap="round" transform="matrix(0.770898, 0, 0, 0.770725, 80.906984, 39.081918)" fill="none" stroke-linejoin="round" d="M 134.551958 514.278676 C 126.809364 558.342316 105.000381 590.860411 105.000381 590.860411 C 105.000381 590.860411 120.622383 607.70231 136.538278 590.840138 C 152.459241 573.977965 157.982427 517.948112 157.982427 517.948112 " stroke="#313f51" stroke-width="1.98" stroke-opacity="1" stroke-miterlimit="4"></path><path stroke-linecap="round" transform="matrix(0.770898, 0, 0, 0.770725, 80.906984, 39.081918)" fill="none" stroke-linejoin="round" d="M 265.258907 128.491221 C 253.44233 145.029023 255.651605 159.939908 265.11196 152.900065 " stroke="#313f51" stroke-width="1.98" stroke-opacity="1" stroke-miterlimit="4"></path><path stroke-linecap="round" transform="matrix(0.770898, 0, 0, 0.770725, 80.906984, 39.081918)" fill="none" stroke-linejoin="round" d="M 257.257889 151.212327 C 257.257889 151.212327 254.171999 156.66073 253.878105 162.818692 C 253.452465 171.850369 256.391407 174.779836 259.629312 173.928365 C 262.872283 173.092098 263.748899 157.420972 261.2812 152.459124 " stroke="#313f51" stroke-width="1.98" stroke-opacity="1" stroke-miterlimit="4"></path><path stroke-linecap="round" transform="matrix(0.770898, 0, 0, 0.770725, 80.906984, 39.081918)" fill="none" stroke-linejoin="round" d="M 242.299683 239.370016 C 246.181115 247.910071 290.098041 267.818281 322.720307 251.508551 " stroke="#313f51" stroke-width="1.98" stroke-opacity="1" stroke-miterlimit="4"></path><path stroke-linecap="round" transform="matrix(0.770898, 0, 0, 0.770725, 80.906984, 39.081918)" fill="none" stroke-linejoin="round" d="M 289.069411 151.37958 C 289.069411 151.37958 296.948819 149.027898 303.95161 150.061827 C 310.9392 151.090688 315.180398 155.079426 316.979234 155.150382 C 318.77807 155.221338 325.502168 154.501642 331.309114 157.152353 C 337.131261 159.808132 337.871064 162.200361 337.871064 162.200361 C 337.871064 162.200361 331.947574 167.821086 324.959984 166.792224 C 317.972394 165.758295 300.668101 163.158266 295.682033 158.93132 C 290.690897 154.699305 289.069411 151.369444 289.069411 151.369444 Z M 289.069411 151.37958 " stroke="#313f51" stroke-width="1.98" stroke-opacity="1" stroke-miterlimit="4"></path><path stroke-linecap="round" transform="matrix(0.770898, 0, 0, 0.770725, 80.906984, 39.081918)" fill="none" stroke-linejoin="round" d="M 304.772487 128.379718 C 304.772487 128.379718 286.632116 140.639892 285.32986 143.721407 C 284.027604 146.797854 283.880657 152.570626 284.919422 154.562461 " stroke="#313f51" stroke-width="1.98" stroke-opacity="1" stroke-miterlimit="4"></path><path stroke-linecap="round" transform="matrix(0.770898, 0, 0, 0.770725, 80.906984, 39.081918)" fill="none" stroke-linejoin="round" d="M 279.538116 134.588363 C 275.018224 139.991151 278.261196 155.631868 278.261196 155.631868 " stroke="#313f51" stroke-width="1.98" stroke-opacity="1" stroke-miterlimit="4"></path><path stroke-linecap="round" transform="matrix(0.770898, 0, 0, 0.770725, 80.906984, 39.081918)" fill="none" stroke-linejoin="round" d="M 306.829747 131.481507 C 303.399291 135.120533 305.669371 139.099134 310.589567 140.538526 C 314.562207 141.709299 312.302261 146.199796 317.541687 147.512481 C 322.781113 148.820098 322.938194 144.39042 326.201434 144.577946 C 329.459607 144.770541 335.37803 146.787717 336.219175 143.06253 C 337.060321 139.332275 334.217654 135.120533 334.217654 135.120533 C 334.217654 135.120533 348.132028 150.117578 346.642288 156.468135 " stroke="#313f51" stroke-width="1.98" stroke-opacity="1" stroke-miterlimit="4"></path><path stroke-linecap="round" transform="matrix(0.770898, 0, 0, 0.770725, 80.906984, 39.081918)" fill="none" stroke-linejoin="round" d="M 352.292152 152.631446 C 351.881714 163.4725 336.497868 192.888806 329.191048 196.578515 " stroke="#313f51" stroke-width="1.98" stroke-opacity="1" stroke-miterlimit="4"></path><path stroke-linecap="round" transform="matrix(0.770898, 0, 0, 0.770725, 80.906984, 39.081918)" fill="none" stroke-linejoin="round" d="M 291.298954 107.19937 C 300.288066 105.030145 303.328351 103.828963 306.059541 105.182194 C 308.790731 106.530357 311.101348 111.907803 311.101348 111.907803 C 311.101348 111.907803 304.351914 110.1187 300.100581 108.28905 " stroke="#313f51" stroke-width="1.98" stroke-opacity="1" stroke-miterlimit="4"></path><path stroke-linecap="round" transform="matrix(0.770898, 0, 0, 0.770725, 80.906984, 39.081918)" fill="none" stroke-linejoin="round" d="M 334.901718 119.221334 C 334.921987 114.908226 338.722344 113.940184 343.551331 114.948772 C 348.380318 115.962429 354.587568 121.081393 354.587568 121.081393 C 354.587568 121.081393 348.659011 117.721122 344.397544 118.050561 C 340.141144 118.379999 338.849023 119.302426 338.849023 119.302426 " stroke="#313f51" stroke-width="1.98" stroke-opacity="1" stroke-miterlimit="4"></path><path stroke-linecap="round" transform="matrix(0.770898, 0, 0, 0.770725, 80.906984, 39.081918)" fill="none" stroke-linejoin="round" d="M 268.349864 116.671988 C 270.569273 110.65087 280.779566 105.237945 280.070166 98.892456 C 279.350632 92.5419 277.759549 78.44194 295.170251 71.467985 C 312.580954 64.499098 332.2212 63.708446 343.50066 69.577516 C 354.78012 75.451654 350.579458 85.208096 357.131274 89.460384 C 363.678022 93.717741 365.669409 99.520923 365.669409 99.520923 C 365.598469 100.869086 365.481925 102.62778 365.309642 104.700707 L 365.112024 110.402524 C 365.112024 110.402524 363.992185 123.5091 364.372221 128.121236 C 364.752257 132.728304 362.68993 157.851776 360.480655 166.457718 C 358.271381 175.078865 351.040568 185.940192 340.860678 191.890355 C 330.680788 197.840517 320.23234 199.877966 310.381814 198.950471 C 300.531289 198.017907 296.472507 195.078304 286.991883 189.78195 C 278.37774 184.97215 272.079282 177.080836 268.577886 166.878385 C 263.439803 151.921886 262.710135 131.927516 268.349864 116.661851 Z M 268.349864 116.671988 " stroke="#313f51" stroke-width="1.98" stroke-opacity="1" stroke-miterlimit="4"></path><path stroke-linecap="round" transform="matrix(0.770898, 0, 0, 0.770725, 80.906984, 39.081918)" fill="none" stroke-linejoin="round" d="M 187.888704 313.022284 C 187.888704 313.022284 190.209455 294.15814 193.847664 293.489127 C 197.490939 292.820114 203.120535 293.159689 203.779264 297.128153 C 204.437992 301.101686 200.470419 304.411274 196.832211 304.411274 C 193.188935 304.411274 189.981434 304.061562 189.981434 304.061562 " stroke="#313f51" stroke-width="1.98" stroke-opacity="1" stroke-miterlimit="4"></path><path stroke-linecap="round" transform="matrix(0.770898, 0, 0, 0.770725, 80.906984, 39.081918)" fill="none" stroke-linejoin="round" d="M 207.067839 311.040586 C 207.067839 311.040586 206.409111 298.461111 217.987532 301.111822 " stroke="#313f51" stroke-width="1.98" stroke-opacity="1" stroke-miterlimit="4"></path><path stroke-linecap="round" transform="matrix(0.770898, 0, 0, 0.770725, 80.906984, 39.081918)" fill="none" stroke-linejoin="round" d="M 230.239883 301.111822 C 221.331846 299.920776 216.999439 312.687777 227.589768 312.358339 C 238.180096 312.028901 240.171483 302.429576 230.239883 301.111822 Z M 230.239883 301.111822 " stroke="#313f51" stroke-width="1.98" stroke-opacity="1" stroke-miterlimit="4"></path><path stroke-linecap="round" transform="matrix(0.770898, 0, 0, 0.770725, 80.906984, 39.081918)" fill="none" stroke-linejoin="round" d="M 243.470193 316.990748 C 241.818305 322.621609 253.731157 322.292171 255.048615 317.979063 C 256.371139 313.681161 260.009347 308.379738 255.377979 303.752397 C 250.751677 299.119988 242.80133 304.081835 243.140829 309.048751 C 243.470193 314.010599 248.101562 314.010599 251.73977 313.022284 C 255.377979 312.028901 257.52138 309.509965 257.52138 309.509965 " stroke="#313f51" stroke-width="1.98" stroke-opacity="1" stroke-miterlimit="4"></path><path stroke-linecap="round" transform="matrix(0.770898, 0, 0, 0.770725, 80.906984, 39.081918)" fill="none" stroke-linejoin="round" d="M 263.992122 317.320187 C 264.321486 316.331872 263.328326 304.081835 275.241179 305.739163 " stroke="#313f51" stroke-width="1.98" stroke-opacity="1" stroke-miterlimit="4"></path><path stroke-linecap="round" transform="matrix(0.770898, 0, 0, 0.770725, 80.906984, 39.081918)" fill="none" stroke-linejoin="round" d="M 291.790467 318.648076 C 287.488463 322.292171 279.54825 321.298788 281.200139 312.358339 C 282.852027 303.41789 289.140351 305.409725 291.461103 307.061985 C 293.781854 308.709176 296.092471 312.358339 291.461103 312.687777 C 286.829734 313.022284 281.661249 312.62189 281.661249 312.62189 " stroke="#313f51" stroke-width="1.98" stroke-opacity="1" stroke-miterlimit="4"></path><path stroke-linecap="round" transform="matrix(0.770898, 0, 0, 0.770725, 80.906984, 39.081918)" fill="none" stroke-linejoin="round" d="M 300.399543 318.318638 C 299.41145 321.628226 307.022298 322.292171 310.001778 321.298788 C 312.981258 320.310473 311.988098 316.671447 309.337983 315.667927 C 306.687867 314.679612 301.068406 315.338489 301.39777 311.040586 C 301.732201 306.737615 312.981258 308.060436 312.981258 312.687777 " stroke="#313f51" stroke-width="1.98" stroke-opacity="1" stroke-miterlimit="4"></path><path stroke-linecap="round" transform="matrix(0.770898, 0, 0, 0.770725, 80.906984, 39.081918)" fill="none" stroke-linejoin="round" d="M 193.168666 318.318638 C 174.820542 318.318638 174.638125 342.149698 189.859822 339.169549 C 205.081519 336.189399 207.731635 318.318638 193.168666 318.318638 Z M 193.168666 318.318638 " stroke="#313f51" stroke-width="1.98" stroke-opacity="1" stroke-miterlimit="4"></path><path stroke-linecap="round" transform="matrix(0.770898, 0, 0, 0.770725, 80.906984, 39.081918)" fill="none" stroke-linejoin="round" d="M 188.871729 334.532071 C 189.530458 333.209249 193.498031 327.24895 191.521845 326.590074 C 189.540592 325.931197 187.219841 325.931197 187.219841 325.931197 " stroke="#313f51" stroke-width="1.98" stroke-opacity="1" stroke-miterlimit="4"></path><path stroke-linecap="round" transform="matrix(0.770898, 0, 0, 0.770725, 80.906984, 39.081918)" fill="none" stroke-linejoin="round" d="M 192.839302 333.538688 C 192.839302 333.538688 190.518551 328.581908 192.839302 327.24895 C 195.160054 325.931197 198.798262 325.931197 198.798262 325.931197 " stroke="#313f51" stroke-width="1.98" stroke-opacity="1" stroke-miterlimit="4"></path><path stroke-linecap="round" transform="matrix(0.770898, 0, 0, 0.770725, 80.906984, 39.081918)" fill="none" stroke-linejoin="round" d="M 193.188935 322.048893 L 192.489669 323.792382 " stroke="#313f51" stroke-width="1.98" stroke-opacity="1" stroke-miterlimit="4"></path><path stroke-linecap="round" transform="matrix(0.770898, 0, 0, 0.770725, 80.906984, 39.081918)" fill="none" stroke-linejoin="round" d="M 208.648788 324.309347 C 208.998421 326.569801 210.042252 339.600352 212.651831 339.250641 C 215.261409 338.90093 221.681479 326.220089 221.681479 326.220089 " stroke="#313f51" stroke-width="1.98" stroke-opacity="1" stroke-miterlimit="4"></path><path stroke-linecap="round" transform="matrix(0.770898, 0, 0, 0.770725, 80.906984, 39.081918)" fill="none" stroke-linejoin="round" d="M 239.21886 341.161383 C 236.442066 343.239379 225.669321 345.327511 227.579633 335.429157 C 229.489946 325.530803 242.34022 328.997507 242.34022 332.651738 C 242.34022 336.300901 233.042013 336.691159 228.177556 334.957807 " stroke="#313f51" stroke-width="1.98" stroke-opacity="1" stroke-miterlimit="4"></path><path stroke-linecap="round" transform="matrix(0.770898, 0, 0, 0.770725, 80.906984, 39.081918)" fill="none" stroke-linejoin="round" d="M 249.641973 344.278376 C 249.641973 344.278376 246.17098 329.691862 259.710386 332.991313 " stroke="#313f51" stroke-width="1.98" stroke-opacity="1" stroke-miterlimit="4"></path><path stroke-linecap="round" transform="matrix(0.770898, 0, 0, 0.770725, 80.906984, 39.081918)" fill="none" stroke-linejoin="round" d="M 176.001187 364.789712 C 176.001187 364.789712 173.898322 347.577828 178.767847 346.021865 C 183.632304 344.460834 192.140036 346.711151 190.579356 351.399312 C 189.018677 356.092541 178.352341 356.062131 176.442028 354.5011 " stroke="#313f51" stroke-width="1.98" stroke-opacity="1" stroke-miterlimit="4"></path><path stroke-linecap="round" transform="matrix(0.770898, 0, 0, 0.770725, 80.906984, 39.081918)" fill="none" stroke-linejoin="round" d="M 207.782306 363.041155 C 204.128896 365.990895 192.839302 365.468862 196.138012 356.959217 C 199.441789 348.449572 210.898599 351.049601 210.898599 356.442252 C 210.898599 361.829835 197.181844 357.998215 197.181844 357.998215 " stroke="#313f51" stroke-width="1.98" stroke-opacity="1" stroke-miterlimit="4"></path><path stroke-linecap="round" transform="matrix(0.770898, 0, 0, 0.770725, 80.906984, 39.081918)" fill="none" stroke-linejoin="round" d="M 218.028069 367.040029 C 218.028069 367.040029 216.989305 355.747898 228.278899 357.141675 " stroke="#313f51" stroke-width="1.98" stroke-opacity="1" stroke-miterlimit="4"></path><path stroke-linecap="round" transform="matrix(0.770898, 0, 0, 0.770725, 80.906984, 39.081918)" fill="none" stroke-linejoin="round" d="M 236.958915 371.378478 C 237.131198 369.467736 234.698969 350.360314 244.777516 351.931482 " stroke="#313f51" stroke-width="1.98" stroke-opacity="1" stroke-miterlimit="4"></path><path stroke-linecap="round" transform="matrix(0.770898, 0, 0, 0.770725, 80.906984, 39.081918)" fill="none" stroke-linejoin="round" d="M 235.048602 357.141675 C 239.907992 357.65864 243.728618 357.65864 243.728618 357.65864 " stroke="#313f51" stroke-width="1.98" stroke-opacity="1" stroke-miterlimit="4"></path><path stroke-linecap="round" transform="matrix(0.770898, 0, 0, 0.770725, 80.906984, 39.081918)" fill="none" stroke-linejoin="round" d="M 260.74915 370.511802 C 257.100807 373.121967 247.549243 373.28922 248.76029 364.429864 C 249.981472 355.570508 262.13248 357.830961 263.348595 362.351868 C 264.569776 366.867707 253.452465 366.517996 249.981472 365.129287 " stroke="#313f51" stroke-width="1.98" stroke-opacity="1" stroke-miterlimit="4"></path><path stroke-linecap="round" transform="matrix(0.770898, 0, 0, 0.770725, 80.906984, 39.081918)" fill="none" stroke-linejoin="round" d="M 283.338473 364.951897 C 273.27006 356.442252 270.660482 365.301608 270.310849 368.079027 C 269.961216 370.861513 274.997956 378.681872 282.821624 372.077901 " stroke="#313f51" stroke-width="1.98" stroke-opacity="1" stroke-miterlimit="4"></path><path stroke-linecap="round" transform="matrix(0.770898, 0, 0, 0.770725, 80.906984, 39.081918)" fill="none" stroke-linejoin="round" d="M 294.101084 357.830961 C 294.101084 357.830961 290.098041 376.588671 299.48239 376.588671 " stroke="#313f51" stroke-width="1.98" stroke-opacity="1" stroke-miterlimit="4"></path><path stroke-linecap="round" transform="matrix(0.770898, 0, 0, 0.770725, 80.906984, 39.081918)" fill="none" stroke-linejoin="round" d="M 289.40891 363.041155 C 292.70762 363.730441 300.009373 364.429864 300.009373 364.429864 " stroke="#313f51" stroke-width="1.98" stroke-opacity="1" stroke-miterlimit="4"></path><path stroke-linecap="round" transform="matrix(0.770898, 0, 0, 0.770725, 80.906984, 39.081918)" fill="none" stroke-linejoin="round" d="M 305.917661 365.301608 C 306.089944 367.040029 305.750446 377.982449 305.750446 377.982449 " stroke="#313f51" stroke-width="1.98" stroke-opacity="1" stroke-miterlimit="4"></path><path stroke-linecap="round" transform="matrix(0.770898, 0, 0, 0.770725, 80.906984, 39.081918)" fill="none" stroke-linejoin="round" d="M 307.128708 360.091415 L 306.961493 357.308928 " stroke="#313f51" stroke-width="1.98" stroke-opacity="1" stroke-miterlimit="4"></path><path stroke-linecap="round" transform="matrix(0.770898, 0, 0, 0.770725, 80.906984, 39.081918)" fill="none" stroke-linejoin="round" d="M 321.72208 368.428738 C 310.518627 366.639635 313.731196 381.631611 321.027881 380.759867 C 328.329634 379.888123 330.41223 369.817447 321.72208 368.428738 Z M 321.72208 368.428738 " stroke="#313f51" stroke-width="1.98" stroke-opacity="1" stroke-miterlimit="4"></path><path stroke-linecap="round" transform="matrix(0.770898, 0, 0, 0.770725, 80.906984, 39.081918)" fill="none" stroke-linejoin="round" d="M 336.660017 382.837862 C 336.487734 381.2819 335.621253 375.199962 336.8323 372.417476 C 338.048414 369.640057 345.051205 371.479843 345.568054 374.612041 " stroke="#313f51" stroke-width="1.98" stroke-opacity="1" stroke-miterlimit="4"></path><path stroke-linecap="round" transform="matrix(0.770898, 0, 0, 0.770725, 80.906984, 39.081918)" fill="none" stroke-linejoin="round" d="M 319.289851 320.660184 C 320.328616 324.481669 323.287827 324.998633 326.931103 324.659058 C 330.569311 324.319484 332.312408 321.531929 330.229813 320.320609 C 328.152284 319.10929 319.462134 318.582189 320.328616 314.410993 C 321.200164 310.239797 326.241971 311.111542 328.152284 312.15054 C 330.05753 313.189537 330.229813 316.149414 330.229813 316.149414 " stroke="#313f51" stroke-width="1.98" stroke-opacity="1" stroke-miterlimit="4"></path><path stroke-linecap="round" transform="matrix(0.770898, 0, 0, 0.770725, 80.906984, 39.081918)" fill="none" stroke-linejoin="round" d="M 86.672526 493.539268 C 88.628443 495.992317 98.06853 521.348929 108.85141 521.840553 C 119.629223 522.332176 133.340911 511.551941 139.71031 513.270088 C 146.079708 514.988236 164.92948 520.862374 164.92948 513.761712 C 164.92948 506.661049 133.087554 504.208001 137.987481 500.538565 C 142.892475 496.869129 161.742247 496.12916 167.381977 497.360753 C 173.021707 498.592345 179.380971 499.560387 179.127614 493.929526 C 178.879324 488.298665 171.050588 485.359062 160.521065 485.110716 C 149.991543 484.872507 137.987481 488.050319 137.987481 488.050319 " stroke="#313f51" stroke-width="1.98" stroke-opacity="1" stroke-miterlimit="4"></path><path stroke-linecap="round" transform="matrix(0.770898, 0, 0, 0.770725, 80.906984, 39.081918)" fill="none" stroke-linejoin="round" d="M 172.520059 487.072141 C 180.110639 486.088894 187.179304 485.521247 183.789385 479.479855 C 181.590245 475.562074 161.017645 473.362439 155.869428 474.092272 C 150.721211 474.822105 134.562093 478.739886 137.257813 476.048629 C 139.948465 473.362439 153.670288 462.582205 159.061728 462.338927 C 164.448101 462.100718 174.729334 464.300352 178.159789 461.609094 C 181.590245 458.917837 180.612287 454.021877 176.938608 452.298661 C 173.269997 450.59065 153.918578 452.060452 150.001677 453.520117 C 146.079708 454.989919 128.451118 469.191244 125.268953 469.439589 C 122.091854 469.677799 119.147844 464.538561 119.147844 464.538561 " stroke="#313f51" stroke-width="1.98" stroke-opacity="1" stroke-miterlimit="4"></path><path stroke-linecap="round" transform="matrix(0.770898, 0, 0, 0.770725, 80.906984, 39.081918)" fill="none" stroke-linejoin="round" d="M 395.611156 495.399328 C 393.148525 492.601636 384.590121 474.832241 382.629136 468.947966 C 382.081885 467.310911 374.060598 441.031871 372.591127 437.362435 C 371.121655 433.687931 368.431002 432.947962 362.791272 432.947962 C 357.151542 432.947962 338.788217 437.109021 331.932373 441.77184 C 325.071461 446.419455 328.988363 453.768463 336.8323 449.850681 C 344.569827 445.978514 354.952402 443.479851 358.631148 443.728197 C 362.309894 443.981611 366.221728 450.82886 366.470018 452.060452 C 366.718308 453.292044 365.000547 449.860818 361.818381 448.877571 C 358.641282 447.899393 347.858402 452.060452 337.820393 455.248401 C 327.782383 458.431282 329.7383 463.580656 332.190797 466.271914 C 334.638227 468.958103 354.481158 458.917837 358.879438 458.917837 C 363.277718 458.917837 369.170805 464.548698 369.662318 465.78029 C 370.478128 467.838013 365.502194 463.33231 360.840422 462.840687 C 356.188785 462.349064 348.598205 467.001746 343.211833 469.211517 C 337.820393 471.421288 333.168755 477.052148 337.582237 480.478307 C 341.990651 483.909533 357.171811 473.869268 360.602267 472.891089 C 364.027655 471.907843 369.910608 476.068902 369.910608 479.748474 C 369.910608 483.428047 362.558184 476.079038 350.80748 481.948108 C 343.880695 485.409745 341.747428 489.048771 343.708413 492.241788 C 345.248824 494.740451 348.60834 493.458176 352.038795 491.750165 C 355.469251 490.042154 358.651417 488.080729 363.551344 489.302185 C 367.620259 490.32091 364.818129 493.260513 367.468245 504.968243 C 370.412255 517.948112 381.940005 516.919251 389.510316 514.278676 C 396.477638 511.85097 403.961808 504.902356 395.631425 495.419601 Z M 395.611156 495.399328 " stroke="#313f51" stroke-width="1.98" stroke-opacity="1" stroke-miterlimit="4"></path><path stroke-linecap="round" transform="matrix(0.770898, 0, 0, 0.770725, 80.906984, 39.081918)" fill="none" stroke-linejoin="round" d="M 169.991555 463.47929 L 168.841314 474.137887 " stroke="#313f51" stroke-width="1.98" stroke-opacity="1" stroke-miterlimit="4"></path><path stroke-linecap="round" transform="matrix(0.770898, 0, 0, 0.770725, 80.906984, 39.081918)" fill="none" stroke-linejoin="round" d="M 162.649265 462.658229 C 162.649265 462.658229 161.990537 472.308237 161.858791 473.757765 " stroke="#313f51" stroke-width="1.98" stroke-opacity="1" stroke-miterlimit="4"></path><path stroke-linecap="round" transform="matrix(0.770898, 0, 0, 0.770725, 80.906984, 39.081918)" fill="none" stroke-linejoin="round" d="M 152.950754 464.959229 C 152.950754 464.959229 152.950754 473.159708 152.819008 473.702014 " stroke="#313f51" stroke-width="1.98" stroke-opacity="1" stroke-miterlimit="4"></path><path stroke-linecap="round" transform="matrix(0.770898, 0, 0, 0.770725, 80.906984, 39.081918)" fill="none" stroke-linejoin="round" d="M 152.008265 497.228977 L 151.739707 505.698076 " stroke="#313f51" stroke-width="1.98" stroke-opacity="1" stroke-miterlimit="4"></path><path stroke-linecap="round" transform="matrix(0.770898, 0, 0, 0.770725, 80.906984, 39.081918)" fill="none" stroke-linejoin="round" d="M 160.880832 497.228977 C 160.749087 498.039902 159.938344 508.389333 159.938344 508.389333 " stroke="#313f51" stroke-width="1.98" stroke-opacity="1" stroke-miterlimit="4"></path><path stroke-linecap="round" transform="matrix(0.770898, 0, 0, 0.770725, 80.906984, 39.081918)" fill="none" stroke-linejoin="round" d="M 166.110124 497.842239 C 166.34828 501.729611 164.650787 511.952335 164.650787 511.952335 " stroke="#313f51" stroke-width="1.98" stroke-opacity="1" stroke-miterlimit="4"></path><path stroke-linecap="round" transform="matrix(0.770898, 0, 0, 0.770725, 80.906984, 39.081918)" fill="none" stroke-linejoin="round" d="M 162.938092 516.807749 C 162.938092 516.807749 158.078702 544.779595 156.371075 547.942203 C 154.668515 551.099742 150.290504 561.798884 150.290504 561.798884 C 150.290504 561.798884 157.830412 574.930802 180.450138 578.341755 C 203.069864 581.737504 238.088888 588.549274 268.000232 586.8514 C 297.911576 585.148458 313.239683 580.531253 313.959217 580.277839 " stroke="#313f51" stroke-width="1.98" stroke-opacity="1" stroke-miterlimit="4"></path><path stroke-linecap="round" transform="matrix(0.770898, 0, 0, 0.770725, 80.906984, 39.081918)" fill="none" stroke-linejoin="round" d="M 266.348343 158.657632 C 259.781326 163.690436 275.160104 188.241192 266.77905 189.89852 C 258.397996 191.560916 259.609043 208.570069 262.289562 219.689879 C 264.97008 230.809689 249.170729 242.598512 234.268262 237.139972 C 219.370862 231.681433 209.388591 257.088729 194.810421 254.458291 C 180.232251 251.817716 183.971802 240.68777 193.351084 228.909083 C 202.730365 217.140533 184.437979 200.638209 196.330564 192.148837 C 208.228215 183.659465 215.960675 169.929491 212.170452 155.358181 C 208.380229 140.79194 215.631311 122.82995 226.981711 115.830653 C 238.33211 108.831356 250.56926 102.789965 248.709619 86.951585 C 246.601688 68.979459 261.722042 68.051963 267.437779 68.117851 C 273.158583 68.188807 268.821109 47.251735 284.392439 48.650581 C 297.901441 49.8619 307.78237 46.749976 312.591088 39.350285 C 319.938446 28.048017 344.67117 36.081243 350.412242 46.760112 C 356.467478 58.042107 365.780887 48.001841 374.729461 50.459958 C 385.132305 53.318469 385.451535 67.048443 383.799646 73.622004 C 382.147758 80.190497 382.188295 87.848671 391.141936 96.408998 C 400.090511 104.969326 400.561755 123.270891 393.229599 136.068302 C 385.902511 148.870781 394.521721 168.642147 404.169561 176.33073 C 413.822468 184.019313 424.52934 201.160242 416.761411 210.019598 C 408.978279 218.878954 405.411011 245.472227 405.411011 245.472227 L 385.892376 235.001158 C 385.892376 235.001158 400.141182 253.39902 383.571625 255.259079 C 361.499151 257.737469 365.167762 267.559798 354.172062 274.310749 C 340.531314 282.668346 318.838876 270.980888 320.789726 257.580352 C 322.350406 246.891346 330.219678 245.568525 330.219678 245.568525 C 311.08108 234.169959 322.21866 200.050288 322.21866 200.050288 " stroke="#313f51" stroke-width="1.98" stroke-opacity="1" stroke-miterlimit="4"></path></svg>