<svg style="position: absolute; width: 0; height: 0; overflow: hidden;" version="1.1" xmlns="http://www.w3.org/2000/svg" xmlns:xlink="http://www.w3.org/1999/xlink">
<defs>
<symbol id="icon-button-contrast" viewBox="0 0 36 36">
<title>button-high-contrast</title>
<path class="path1" fill="#fff" stroke="#7797a8" stroke-linejoin="miter" stroke-linecap="butt" stroke-miterlimit="10" stroke-width="3.5154" d="M31.202 34.246h-26.405c-1.672 0-3.044-1.372-3.044-3.044v-26.405c0-1.672 1.372-3.044 3.044-3.044h26.405c1.672 0 3.044 1.372 3.044 3.044v26.405c0 1.672-1.372 3.044-3.044 3.044z"></path>
<path class="path2" fill="#47484f" stroke="#47484f" stroke-linejoin="miter" stroke-linecap="butt" stroke-miterlimit="10" stroke-width="1.5941" d="M18 8.287c-5.361 0-9.713 4.352-9.713 9.713 0 2.326 0.818 4.452 2.181 6.124l15.065-12.248c-1.781-2.19-4.489-3.589-7.533-3.589z"></path>
<path class="path3" fill="none" stroke="#47484f" stroke-linejoin="miter" stroke-linecap="butt" stroke-miterlimit="10" stroke-width="1.5941" d="M10.467 24.124c1.781 2.19 4.498 3.589 7.533 3.589 5.361 0 9.713-4.352 9.713-9.713 0-2.326-0.818-4.452-2.181-6.124l-15.065 12.248z"></path>
</symbol>
<symbol id="icon-button-text-only" viewBox="0 0 36 36">
<title>button-text-only</title>
<path class="path1" fill="#fff" stroke="#7797a8" stroke-linejoin="miter" stroke-linecap="butt" stroke-miterlimit="10" stroke-width="3.5154" d="M31.202 34.246h-26.405c-1.672 0-3.044-1.372-3.044-3.044v-26.405c0-1.672 1.372-3.044 3.044-3.044h26.405c1.672 0 3.044 1.372 3.044 3.044v26.405c0 1.672-1.372 3.044-3.044 3.044z"></path>
<path class="path2" fill="#47484f" d="M7.96 8.995h-2.49v-1.699h6.897v1.699h-2.49v7.024h-1.917v-7.024z"></path>
<path class="path3" fill="#47484f" d="M17.409 14.983c-0.3 0.382-0.672 0.672-1.118 0.872-0.454 0.209-0.918 0.309-1.408 0.309-0.463 0-0.89-0.073-1.299-0.218s-0.763-0.363-1.063-0.636c-0.3-0.273-0.536-0.609-0.709-0.99s-0.254-0.818-0.254-1.29c0-0.472 0.082-0.909 0.254-1.29s0.409-0.718 0.709-0.99c0.3-0.273 0.654-0.491 1.063-0.636s0.836-0.218 1.299-0.218c0.427 0 0.818 0.073 1.163 0.218s0.645 0.363 0.89 0.636c0.245 0.273 0.427 0.609 0.563 0.99 0.127 0.382 0.2 0.818 0.2 1.29v0.582h-4.289c0.073 0.354 0.236 0.636 0.482 0.845s0.554 0.318 0.909 0.318c0.3 0 0.563-0.064 0.772-0.2s0.391-0.309 0.545-0.527l1.29 0.936zM15.847 12.348c0.009-0.309-0.091-0.582-0.309-0.8s-0.491-0.336-0.827-0.336c-0.209 0-0.382 0.036-0.545 0.1-0.154 0.064-0.291 0.154-0.4 0.254s-0.2 0.218-0.254 0.354c-0.064 0.136-0.1 0.282-0.109 0.427h2.444z"></path>
<path class="path4" fill="#47484f" d="M20.426 12.821l-1.999-2.78h2.181l1.063 1.626 1.027-1.626h2.054l-1.944 2.78 2.308 3.207h-2.181l-1.308-1.999-1.408 1.999h-2.153l2.362-3.207z"></path>
<path class="path5" fill="#47484f" d="M29.74 11.512h-1.626v1.999c0 0.164 0.009 0.318 0.027 0.445 0.018 0.136 0.055 0.254 0.109 0.354s0.145 0.173 0.263 0.227c0.118 0.055 0.282 0.082 0.473 0.082 0.1 0 0.227-0.009 0.391-0.027s0.282-0.064 0.363-0.145v1.536c-0.209 0.073-0.418 0.127-0.645 0.145-0.218 0.027-0.436 0.036-0.654 0.036-0.309 0-0.6-0.036-0.863-0.1s-0.491-0.173-0.691-0.318c-0.2-0.145-0.354-0.327-0.463-0.563-0.109-0.227-0.164-0.509-0.164-0.836v-2.844h-1.181v-1.481h1.181v-1.763h1.845v1.772h1.626v1.481z"></path>
<path class="path6" fill="#47484f" d="M6.406 24.887c0-0.473 0.082-0.909 0.254-1.29s0.409-0.718 0.709-0.99c0.3-0.273 0.654-0.491 1.063-0.636s0.836-0.218 1.299-0.218c0.463 0 0.89 0.073 1.299 0.218s0.763 0.363 1.063 0.636c0.3 0.273 0.536 0.609 0.709 0.99s0.254 0.818 0.254 1.29c0 0.473-0.082 0.909-0.254 1.29s-0.409 0.718-0.709 0.99c-0.3 0.273-0.654 0.491-1.063 0.636s-0.836 0.218-1.299 0.218c-0.463 0-0.89-0.073-1.299-0.218s-0.763-0.363-1.063-0.636c-0.3-0.273-0.536-0.609-0.709-0.99-0.164-0.382-0.254-0.818-0.254-1.29zM8.259 24.887c0 0.454 0.127 0.818 0.391 1.099 0.254 0.282 0.618 0.418 1.090 0.418s0.836-0.136 1.090-0.418c0.254-0.282 0.391-0.645 0.391-1.099s-0.127-0.818-0.391-1.099c-0.254-0.282-0.618-0.418-1.090-0.418s-0.836 0.136-1.090 0.418c-0.263 0.282-0.391 0.645-0.391 1.099z"></path>
<path class="path7" fill="#47484f" d="M14.147 21.889h1.772v0.809h0.027c0.055-0.118 0.136-0.227 0.245-0.345s0.236-0.218 0.382-0.309c0.145-0.091 0.318-0.164 0.509-0.218s0.391-0.082 0.618-0.082c0.473 0 0.845 0.073 1.136 0.218s0.509 0.345 0.672 0.6c0.164 0.254 0.273 0.554 0.327 0.9s0.082 0.718 0.082 1.118v3.298h-1.845v-2.935c0-0.173-0.009-0.354-0.018-0.536s-0.045-0.354-0.109-0.509c-0.064-0.154-0.154-0.282-0.282-0.382s-0.309-0.145-0.545-0.145c-0.236 0-0.427 0.045-0.582 0.127s-0.263 0.2-0.336 0.345c-0.082 0.145-0.127 0.309-0.154 0.491s-0.036 0.373-0.036 0.563v2.98h-1.845v-5.988z"></path>
<path class="path8" fill="#47484f" d="M21.244 18.563h1.845v9.313h-1.845v-9.313z"></path>
<path class="path9" fill="#47484f" d="M27.868 28.849c-0.127 0.318-0.245 0.6-0.354 0.854-0.118 0.245-0.263 0.454-0.436 0.618-0.173 0.173-0.4 0.3-0.672 0.382s-0.627 0.127-1.072 0.127c-0.473 0-0.936-0.073-1.381-0.218l0.245-1.517c0.282 0.127 0.563 0.182 0.863 0.182 0.209 0 0.373-0.018 0.509-0.064 0.127-0.045 0.236-0.109 0.327-0.2s0.154-0.191 0.218-0.318c0.055-0.127 0.118-0.263 0.182-0.427l0.136-0.345-2.626-6.033h1.999l1.536 3.953h0.027l1.318-3.953h1.899l-2.717 6.96z"></path>
</symbol>
<symbol id="icon-button-text-zoom" viewBox="0 0 36 36">
<title>button-text-zoom</title>
<path class="path1" fill="#fff" stroke="#7797a8" stroke-linejoin="miter" stroke-linecap="butt" stroke-miterlimit="10" stroke-width="3.5154" d="M31.202 34.246h-26.405c-1.672 0-3.044-1.372-3.044-3.044v-26.405c0-1.672 1.372-3.044 3.044-3.044h26.405c1.672 0 3.044 1.372 3.044 3.044v26.405c0 1.672-1.372 3.044-3.044 3.044z"></path>
<path class="path2" fill="#47484f" d="M5.434 22.243l3.716-8.296c0.2-0.445 0.554-0.718 1.054-0.718h0.082c0.5 0 0.845 0.273 1.045 0.718l3.716 8.296c0.073 0.127 0.1 0.254 0.1 0.373 0 0.473-0.354 0.845-0.827 0.845-0.418 0-0.7-0.245-0.854-0.618l-0.818-1.872h-4.852l-0.845 1.926c-0.145 0.354-0.445 0.554-0.818 0.554-0.454 0-0.818-0.354-0.818-0.818 0.009-0.118 0.045-0.245 0.118-0.391zM11.985 19.408l-1.763-4.043-1.763 4.043h3.526z"></path>
<path class="path3" fill="#47484f" d="M16.61 23.861l5.588-12.476c0.3-0.663 0.836-1.072 1.59-1.072h0.127c0.754 0 1.272 0.409 1.572 1.072l5.588 12.476c0.109 0.191 0.154 0.391 0.154 0.554 0 0.709-0.536 1.272-1.245 1.272-0.627 0-1.054-0.363-1.29-0.927l-1.227-2.817h-7.315l-1.272 2.899c-0.218 0.536-0.663 0.836-1.227 0.836-0.691 0-1.227-0.536-1.227-1.227 0.009-0.182 0.073-0.373 0.182-0.591zM26.459 19.608l-2.644-6.088-2.644 6.088h5.288z"></path>
</symbol>
<symbol id="icon-twitter" viewBox="0 0 20 20">
<title>twitter</title>
<path class="path1" d="M20 4.422c-0.734 0.328-1.527 0.547-2.355 0.645 0.848-0.508 1.496-1.313 1.805-2.27-0.793 0.469-1.672 0.812-2.605 0.996-0.75-0.797-1.816-1.293-2.996-1.293-2.266 0-4.102 1.836-4.102 4.102 0 0.32 0.035 0.633 0.105 0.934-3.41-0.172-6.434-1.805-8.457-4.289-0.352 0.605-0.555 1.313-0.555 2.062 0 1.422 0.723 2.68 1.824 3.414-0.672-0.020-1.305-0.207-1.859-0.512 0 0.016 0 0.035 0 0.051 0 1.988 1.414 3.648 3.293 4.023-0.344 0.094-0.707 0.145-1.082 0.145-0.266 0-0.52-0.027-0.773-0.074 0.523 1.629 2.039 2.816 3.832 2.852-1.406 1.102-3.172 1.758-5.098 1.758-0.332 0-0.656-0.020-0.98-0.059 1.82 1.168 3.977 1.844 6.293 1.844 7.547 0 11.676-6.254 11.676-11.676 0-0.18-0.004-0.355-0.012-0.531 0.801-0.574 1.496-1.297 2.047-2.121z"></path>
</symbol>
<symbol id="icon-linkedin" viewBox="0 0 20 20">
<title>linkedin</title>
<path class="path1" d="M7.5 7.5h3.459v1.773h0.049c0.481-0.863 1.659-1.773 3.415-1.773 3.651 0 4.327 2.273 4.327 5.229v6.021h-3.606v-5.337c0-1.273-0.026-2.911-1.876-2.911-1.878 0-2.164 1.386-2.164 2.818v5.43h-3.604v-11.25z"></path>
<path class="path2" d="M1.25 7.5h3.75v11.25h-3.75v-11.25z"></path>
<path class="path3" d="M5 4.375c0 1.036-0.839 1.875-1.875 1.875s-1.875-0.839-1.875-1.875c0-1.036 0.839-1.875 1.875-1.875s1.875 0.839 1.875 1.875z"></path>
</symbol>
<symbol id="icon-cancel-circle" viewBox="0 0 120 120">
<title>cancel-circle</title>
<path class="path1" d="M60 0c-33.137 0-60 26.863-60 60s26.863 60 60 60 60-26.863 60-60-26.863-60-60-60zM60 108.75c-26.924 0-48.75-21.826-48.75-48.75s21.826-48.75 48.75-48.75 48.75 21.826 48.75 48.75-21.826 48.75-48.75 48.75z"></path>
<path class="path2" d="M78.75 30l-18.75 18.75-18.75-18.75-11.25 11.25 18.75 18.75-18.75 18.75 11.25 11.25 18.75-18.75 18.75 18.75 11.25-11.25-18.75-18.75 18.75-18.75z"></path>
</symbol>
<symbol id="icon-hamburger-menu" viewBox="0 0 32 32">
<title>menu</title>
<path class="path1" d="M2 6h28v6h-28zM2 14h28v6h-28zM2 22h28v6h-28z"></path>
</symbol>
<symbol id="icon-hamburger-close" viewBox="0 0 32 32">
<title>cross</title>
<path class="path1" d="M31.708 25.708c-0-0-0-0-0-0l-9.708-9.708 9.708-9.708c0-0 0-0 0-0 0.105-0.105 0.18-0.227 0.229-0.357 0.133-0.356 0.057-0.771-0.229-1.057l-4.586-4.586c-0.286-0.286-0.702-0.361-1.057-0.229-0.13 0.048-0.252 0.124-0.357 0.228 0 0-0 0-0 0l-9.708 9.708-9.708-9.708c-0-0-0-0-0-0-0.105-0.104-0.227-0.18-0.357-0.228-0.356-0.133-0.771-0.057-1.057 0.229l-4.586 4.586c-0.286 0.286-0.361 0.702-0.229 1.057 0.049 0.13 0.124 0.252 0.229 0.357 0 0 0 0 0 0l9.708 9.708-9.708 9.708c-0 0-0 0-0 0-0.104 0.105-0.18 0.227-0.229 0.357-0.133 0.355-0.057 0.771 0.229 1.057l4.586 4.586c0.286 0.286 0.702 0.361 1.057 0.229 0.13-0.049 0.252-0.124 0.357-0.229 0-0 0-0 0-0l9.708-9.708 9.708 9.708c0 0 0 0 0 0 0.105 0.105 0.227 0.18 0.357 0.229 0.356 0.133 0.771 0.057 1.057-0.229l4.586-4.586c0.286-0.286 0.362-0.702 0.229-1.057-0.049-0.13-0.124-0.252-0.229-0.357z"></path>
</symbol>
<symbol id="icon-accordian-close" viewBox="0 0 54 32">
<title>icon-accordian-close</title>
<path class="path1" fill="#fff" d="M0.976 25.708l16.488-21.803c1.844-2.386 4.773-3.905 8.786-3.905h1.085c4.014 0 6.942 1.519 8.786 3.905l16.488 21.803c0.651 0.759 0.976 1.519 0.976 2.386 0.108 2.061-2.82 3.905-6.508 3.905-3.037 0-5.098-1.085-6.292-2.712l-13.993-19.525-13.885 19.525c-1.193 1.627-3.58 2.712-6.508 2.712-3.797 0-6.508-1.844-6.4-4.23 0-0.759 0.434-1.41 0.976-2.061z"></path>
</symbol>
<symbol id="icon-button-top" viewBox="0 0 49 32">
<title>Go to top of page</title>
<path class="path1" fill="#41464d" d="M44.651 32h-40.77c-2.141 0-3.881-1.754-3.881-3.881v-24.238c0-2.141 1.74-3.881 3.881-3.881h40.77c2.141 0 3.881 1.74 3.881 3.881v24.238c0 2.127-1.754 3.881-3.881 3.881z"></path>
<path class="path2" fill="#fff" d="M11.090 20.924l8.411-11.076c0.953-1.243 2.417-2.003 4.475-2.003h0.525c2.044 0 3.522 0.76 4.475 2.003l8.411 11.076c0.318 0.401 0.525 0.76 0.525 1.215 0.055 1.050-1.423 2.003-3.315 2.003-1.519 0-2.583-0.525-3.204-1.381l-7.099-9.916-7.099 9.93c-0.635 0.856-1.837 1.381-3.315 1.381-1.947 0-3.315-0.953-3.259-2.168 0-0.373 0.207-0.732 0.47-1.063z"></path>
</symbol>
</defs>
</svg>